<?xml version="1.0" encoding="UTF-8"?>
<svg xmlns="http://www.w3.org/2000/svg" viewBox="0 0 2413.84 430.84">
  <defs>
    <style>
      .cls-1 {
        fill: #fcda2a;
      }

      .cls-2 {
        fill: #ee3f95;
      }

      .cls-3, .cls-4 {
        fill: #e7d04f;
      }

      .cls-5 {
        fill: #070a25;
      }

      .cls-6 {
        fill: #fbba00;
      }

      .cls-7 {
        fill: #0d4574;
      }

      .cls-8 {
        fill: #190e60;
      }

      .cls-9 {
        fill: #ff6142;
      }

      .cls-10 {
        opacity: .7;
      }

      .cls-10, .cls-11, .cls-12 {
        mix-blend-mode: multiply;
      }

      .cls-10, .cls-12 {
        fill: #e6c378;
      }

      .cls-13 {
        fill: #004070;
      }

      .cls-14 {
        fill: #0069b4;
      }

      .cls-15 {
        isolation: isolate;
      }

      .cls-16 {
        fill: #ffba29;
      }

      .cls-17 {
        fill: #fff;
      }

      .cls-18 {
        fill: #f9f9f9;
      }

      .cls-19 {
        fill: #7286ff;
      }

      .cls-20 {
        opacity: .54;
      }

      .cls-21 {
        fill: #97d7ff;
      }

      .cls-11 {
        fill: #c6991a;
      }

      .cls-22 {
        fill: #00ac9b;
      }

      .cls-23 {
        fill: #76b82a;
      }

      .cls-24 {
        fill: #ff9d87;
      }

      .cls-25 {
        fill: #d29319;
      }

      .cls-4 {
        mix-blend-mode: screen;
      }

      .cls-26 {
        fill: #d2921a;
      }
    </style>
  </defs>
  <g class="cls-15">
    <g id="Camada_2" data-name="Camada 2">
      <g id="Camada_19" data-name="Camada 19">
        <g id="logo_msgas-organizado_PRINCIPAL">
          <path class="cls-23" d="M1867.59,135.48c-23.27,9.15-37.76,15.55-42.15,30.83l-.7,2.44c-3.21,11.2-1.23,23.35,5.7,32.71l.14.22c14.27-44.18,65.48-34.38,85.68-60.96,7.46-9.83,12.17-22.31,12.58-46.89-15.04,23.47-40.25,33.41-61.25,41.67v-.02Z"/>
          <path class="cls-14" d="M1921.62,3.71c-10.65,65.62-173.18,31.31-111.3,158.26,17.87-62.31,141.62-19.77,111.3-158.26Z"/>
          <path class="cls-6" d="M1831.23,110.18l.97,5.7c.12.7-.6,1.23-1.23.89l-5.12-2.68c-.24-.12-.56-.12-.8,0l-5.12,2.68c-.63.34-1.35-.19-1.23-.89l.99-5.67c.05-.27-.05-.56-.24-.75l-4.13-4.03c-.51-.48-.22-1.35.48-1.45l5.72-.84c.27-.05.51-.22.65-.46l2.56-5.17c.31-.63,1.21-.63,1.52,0l2.56,5.17c.12.24.36.43.63.46l5.7.84c.7.1.97.97.48,1.45l-4.13,4.03c-.19.19-.29.48-.24.75l-.02-.02Z"/>
          <path class="cls-13" d="M1253.61,209.68v142.47h-59.85v-140.87c0-16.44-16.3-26.63-31.39-26.63-9.75,0-18.4,4.06-25.74,12.07,3.4,10.84,5.07,21.22,5.07,31.63l-.82,124.19h-52.29v-124.19c0-18.11-8.69-33.27-23.23-40.54-7.53-3.38-14.08-5.14-19.29-5.14-19.39,0-31.39,7.65-31.39,45.7v124.19h-52.34v-124.19c0-61.61,31.29-98.41,83.7-98.41,22.48,0,45.34,9.08,63.33,25.01,16.01-16.15,37.35-25.01,60.53-25.01,18.59,0,39.28,8.18,55.38,21.87,18.28,15.55,28.32,36.09,28.32,57.87v-.02ZM1422.28,227.98c-10.53-5.26-28.03-10.99-51.96-16.95-23.66-6.25-32.69-9.29-34.19-10.04l-.17-.1-.19-.07c-4.47-1.69-9.78-4.51-9.78-8.23,0-1.13,0-2.54.27-3.38.7-2.7,2.85-10.91,23.01-10.96l61.56,5.41,17-45.82-4.76-.75c-27.4-4.25-52.03-6.4-73.25-6.4-17.91,0-31.36,1.76-40.97,5.38-12.19,4.2-21.68,12.14-29.07,24.29-6.95,11.47-10.5,24.43-10.5,38.56,0,11.9,3.24,21.83,9.63,29.5,6.49,7.8,14.99,14.03,25.25,18.54,17.17,7.53,28.66,11.18,53.45,16.9,18.88,4.49,25.91,6.83,27.06,7.48l.27.14c7.58,3.79,8.55,7.97,8.55,11.18v2.2l-.24.48-.1.51c-.89,4.49-3.91,7.97-8.91,10.31-4.97,2.29-13.18,3.62-22.57,3.62h-3.77l-55.84-5.84-21.17,48.45,67.87,6.93h6.54c24.94,0,45.49-4.59,61.06-13.59,17.19-9.66,28.25-24.53,32.91-44.42,1.06-6.04,2.05-12.31,2.05-17.36,0-19.77-9.75-35.2-29.16-45.99l.12.02ZM1903.49,169.21c-6.08,2.78-12.31,4.97-18.25,7.03-14.68,5.12-25.52,9.32-32.62,17.43,14.27,10.74,23.56,27.76,23.56,46.96,0,32.42-26.36,58.79-58.79,58.79s-58.79-26.92-58.79-58.79c0-27.06,19.41-50.53,44.78-57.03l-7.19-14.75c-6.01-12.36-10.28-23.8-12.82-34.4-44.88,14.41-77.47,56.54-77.47,106.18,0,60.43,51.06,111.49,111.49,111.49,21.03,0,40.78-5.67,58.79-16.85v15.64h52.29l.41-113.47c0-19.51-5.14-37.83-15.28-54.47-3.02-4.88-6.42-9.46-10.12-13.76ZM1690.17,239.83h0v75.42c0,9.56-1.18,18.83-3.45,27.69-12.26,48.33-55.87,84.19-107.65,84.19-17.46,0-33.99-3.96-48.72-11.03l21.15-48.43c8.23,4.3,17.62,6.74,27.57,6.74,23.97,0,44.59-14.73,53.57-35.71-16.59,9.27-34.19,13.81-53.6,13.81-61.71,0-111.9-49.83-111.9-111.11s49.83-111.9,111.11-111.9,111.88,49.47,111.9,110.31l.02.02ZM1637.46,240.63c0-32.21-26.56-58.38-59.17-58.38s-58.38,26.56-58.38,59.17,26.56,58.38,59.17,58.38,58.4-26.56,58.4-59.17h-.02ZM2097.55,227.98c-10.53-5.26-28.03-10.99-51.96-16.95-23.66-6.25-32.69-9.29-34.19-10.04l-.17-.1-.19-.07c-4.47-1.69-9.78-4.51-9.78-8.23,0-1.13,0-2.54.27-3.38.7-2.7,2.85-10.91,23.01-10.96l61.56,5.41,17-45.82-4.76-.75c-27.4-4.25-52.03-6.4-73.25-6.4-17.91,0-31.36,1.76-40.97,5.38-12.19,4.2-21.68,12.14-29.07,24.29-6.95,11.47-10.5,24.43-10.5,38.56,0,11.9,3.24,21.83,9.63,29.5,6.49,7.8,14.99,14.03,25.25,18.54,17.17,7.53,28.66,11.18,53.45,16.9,18.88,4.49,25.91,6.83,27.06,7.48l.27.14c7.58,3.79,8.55,7.97,8.55,11.18v2.2l-.24.48-.1.51c-.89,4.49-3.91,7.97-8.91,10.31-4.97,2.29-13.18,3.62-22.57,3.62h-3.77l-55.84-5.84-21.17,48.45,67.87,6.93h6.54c24.94,0,45.49-4.59,61.06-13.59,17.19-9.66,28.25-24.53,32.91-44.42,1.06-6.04,2.05-12.31,2.05-17.36,0-19.77-9.75-35.2-29.16-45.99l.12.02Z"/>
        </g>
        <g>
          <g class="cls-20">
            <g>
              <g>
                <g>
                  <path class="cls-3" d="M526.57,137.68c-69.97-15.89-96.84-13.54-164.05,13.1-2.85-5.53-6.68-10.65-9.21-16.31,70.38-30.88,104.39-32.01,177.05-14.78-1.28,5.99-2.54,11.99-3.78,17.99Z"/>
                  <path class="cls-4" d="M528.89,126.53c-72.55-16.94-101.84-14.54-171.98,14.15-.35-.51-.71-1.03-1.06-1.54,70.63-28.9,100.38-31.71,173.42-14.39-.13.59-.25,1.19-.38,1.78Z"/>
                  <path class="cls-12" d="M529.82,122.17c-72.2-17.12-105.66-15.9-175.46,14.71-.35-.81-.68-1.62-1.06-2.41,70.38-30.88,104.39-32.01,177.05-14.78-.18.83-.35,1.65-.53,2.48Z"/>
                  <path class="cls-10" d="M526.57,137.68c-69.97-15.89-96.84-13.54-164.05,13.1-1.11-1.97-1.68-4.13-2.91-6.04,67.63-28.45,98.21-29.41,168.29-13.49-.44,2.14-.89,4.29-1.33,6.43Z"/>
                  <path class="cls-11" d="M356.4,133.11c-1.03.45-2.06.9-3.09,1.36,2.54,5.66,6.37,10.78,9.21,16.31.84-.33,1.67-.66,2.5-1.01-2.35-5.87-6.1-10.88-8.63-16.66Z"/>
                  <path class="cls-11" d="M526.89,118.87c-1.28,6.01-2.45,12.03-3.7,18.05,1.12.25,2.25.51,3.37.77,1.24-6,2.51-12,3.78-17.99-1.15-.27-2.3-.55-3.46-.82Z"/>
                </g>
                <path class="cls-25" d="M364.77,151.63c-1.46.57-2.92,1.14-4.38,1.71-3.58-6.37-8.26-12.36-11.28-18.99,1.78-.71,3.56-1.43,5.33-2.2,3.15,6.59,6.76,13.13,10.34,19.48Z"/>
                <g>
                  <path class="cls-1" d="M353.55,134.82c.22.5-.25.95-.69,1.14s-1.07.22-1.3-.27c-.23-.49.24-.94.67-1.13.43-.19,1.1-.24,1.32.25Z"/>
                  <path class="cls-1" d="M356.54,140.02c.28.41-.02.82-.44.99-.42.17-1.03.14-1.3-.28-.28-.41.03-.81.45-.98.42-.17,1.02-.15,1.3.27Z"/>
                  <path class="cls-1" d="M359.83,144.96c.26.41-.04.81-.45.98-.41.17-.99.14-1.25-.27-.26-.41.03-.81.44-.98.41-.17.99-.14,1.25.27Z"/>
                  <path class="cls-1" d="M362.37,150.4c.23.41-.02.8-.42.95-.41.16-.92.06-1.15-.34-.22-.4.01-.79.42-.96.41-.17.92-.07,1.15.34Z"/>
                </g>
                <path class="cls-25" d="M527.93,139.64c-1.22-.28-2.44-.55-3.66-.83,1.46-7.06,2.89-14.13,4.4-21.18,1.25.3,2.51.6,3.77.88-1.49,7.05-3.04,14.08-4.5,21.13Z"/>
                <g>
                  <path class="cls-1" d="M530.79,120.21c-.08.39-.43.66-.83.56-.4-.1-.61-.49-.53-.88.08-.39.43-.65.83-.56.4.09.6.49.52.88Z"/>
                  <path class="cls-1" d="M529.58,125.92c-.08.39-.43.67-.84.57-.4-.09-.61-.5-.52-.89.08-.39.43-.65.83-.56.4.09.61.48.53.87Z"/>
                  <path class="cls-1" d="M528.35,131.65c-.08.38-.41.67-.81.58-.4-.09-.59-.49-.51-.87.08-.39.41-.66.81-.57.4.09.59.49.51.87Z"/>
                  <path class="cls-1" d="M527.16,137.4c-.08.38-.41.66-.81.57-.4-.09-.59-.48-.51-.87s.41-.66.81-.57c.4.09.59.49.51.87Z"/>
                </g>
              </g>
              <g>
                <g>
                  <path class="cls-3" d="M357.61,152.7c-71.24,27.79-91.77,1.68-152.35-28.4,3.28-5.51,6.55-11.03,9.83-16.54,61.09,30.36,60.43,51.47,133.03,28.69,2.76,5.62,6.42,10.8,9.48,16.25Z"/>
                  <path class="cls-4" d="M351.7,142.74c-72.98,24.05-78.67,1.97-140.35-28.69.33-.55.65-1.1.98-1.64,61.26,30.43,65.74,52.65,138.43,28.71.32.54.63,1.08.95,1.62Z"/>
                  <path class="cls-12" d="M349.38,138.78c-72.07,23.74-75.09,1.36-135.64-28.75.45-.76.91-1.52,1.36-2.29,61.09,30.36,60.43,51.47,133.03,28.69.39.8.8,1.57,1.25,2.34Z"/>
                  <path class="cls-10" d="M357.61,152.7c-71.24,27.79-91.77,1.68-152.35-28.4,1.17-1.97,2.34-3.93,3.51-5.9,61.9,30.74,72.52,53.9,145.5,28.57,1.26,1.83,2.26,3.8,3.34,5.73Z"/>
                  <path class="cls-11" d="M217.07,108.73c-.66-.33-1.32-.65-1.97-.98-3.28,5.51-6.55,11.03-9.83,16.54.66.33,1.31.65,1.97.98,3.28-5.51,6.55-11.03,9.83-16.54Z"/>
                  <path class="cls-11" d="M344.66,137.53c2.77,5.63,5.84,11.26,8.92,16.74,1.34-.53,2.69-1.05,4.03-1.57-3.07-5.46-6.72-10.63-9.48-16.25-1.16.36-2.31.73-3.47,1.09Z"/>
                </g>
                <path class="cls-25" d="M205.58,126.33c-1.18-.59-2.37-1.18-3.55-1.76,3.85-6.48,7.7-12.97,11.56-19.45,1.18.59,2.37,1.18,3.55,1.77-3.85,6.48-7.71,12.96-11.56,19.45Z"/>
                <g>
                  <path class="cls-1" d="M214.92,108.14c-.21.35-.65.54-1.03.35-.38-.19-.46-.63-.24-.98.21-.36.65-.53,1.03-.34.38.19.45.62.24.98Z"/>
                  <path class="cls-1" d="M211.79,113.41c-.21.35-.65.55-1.03.35-.38-.19-.45-.63-.24-.99.21-.36.65-.53,1.03-.34.38.19.46.62.24.98Z"/>
                  <path class="cls-1" d="M208.66,118.68c-.21.36-.65.54-1.03.35-.38-.19-.46-.63-.24-.98s.65-.54,1.03-.35c.38.19.45.63.24.98Z"/>
                  <path class="cls-1" d="M205.53,123.95c-.21.35-.65.53-1.03.34-.38-.19-.46-.62-.25-.98.21-.36.65-.54,1.03-.35.38.19.45.63.24.98Z"/>
                </g>
                <path class="cls-25" d="M360.42,153.33c-1.46.57-2.92,1.14-4.38,1.71-3.62-6.44-7.45-12.86-10.7-19.49,1.27-.4,2.56-.75,3.81-1.21,2.96,6.64,7.7,12.63,11.28,18.99Z"/>
                <g>
                  <path class="cls-1" d="M348.84,136.66c.18.37.08.79-.33.92-.41.13-.84-.12-1.02-.49-.18-.37-.07-.78.33-.91.41-.13.84.12,1.02.49Z"/>
                  <path class="cls-1" d="M351.84,141.9c.21.36.1.75-.3.89-.4.13-.87-.07-1.08-.43s-.09-.74.31-.88c.4-.13.86.06,1.07.42Z"/>
                  <path class="cls-1" d="M355.11,146.94c.27.42-.02.8-.44.98-.42.18-.93.04-1.16-.36s-.1-.73.31-.9c.41-.17,1.02-.14,1.29.27Z"/>
                  <path class="cls-1" d="M358.02,152.1c.22.4-.02.8-.42.95-.41.16-.93.06-1.15-.34-.22-.4.02-.8.42-.96.41-.16.93-.06,1.15.34Z"/>
                </g>
              </g>
            </g>
            <g>
              <g>
                <g>
                  <path class="cls-3" d="M852.94,133.25c-52.75,10.23-104.62,21.57-158.25,25.97-.42-6.16-.87-12.32-1.37-18.48,52.89-3.78,104.02-15.55,155.97-25.62,1.22,6.04,2.44,12.09,3.66,18.13Z"/>
                  <path class="cls-4" d="M850.68,122.04c-52.27,10.13-103.67,21.59-156.84,25.77-.04-.61-.09-1.23-.13-1.84,53.09-4.18,104.4-15.61,156.61-25.73.12.6.24,1.2.36,1.8Z"/>
                  <path class="cls-12" d="M849.79,117.63c-52.08,10.09-103.29,21.68-156.27,25.66-.06-.85-.13-1.7-.2-2.55,52.89-3.78,104.02-15.55,155.97-25.62.17.83.34,1.67.51,2.5Z"/>
                  <path class="cls-10" d="M852.94,133.25c-52.75,10.23-104.62,21.57-158.25,25.97-.15-2.19-.3-4.37-.49-6.56,53.36-4.28,104.96-15.71,157.44-25.88.43,2.15.87,4.31,1.3,6.46Z"/>
                  <path class="cls-11" d="M695.62,140.58c-.77.05-1.54.11-2.31.16.5,6.15.96,12.32,1.37,18.48.79-.07,1.57-.13,2.36-.19-.47-6.15-.93-12.3-1.43-18.45Z"/>
                  <path class="cls-11" d="M845.52,115.86c1.22,6.04,2.47,12.08,3.65,18.14,1.26-.25,2.51-.49,3.77-.74-1.22-6.04-2.44-12.09-3.66-18.13-1.25.24-2.51.49-3.77.73Z"/>
                </g>
                <path class="cls-25" d="M696.22,160.72c-1.43.12-2.86.24-4.29.36-.49-7.23-.95-14.47-1.5-21.7,1.38-.14,2.76-.24,4.14-.35.57,7.23,1.16,14.46,1.66,21.69Z"/>
                <g>
                  <path class="cls-1" d="M693.4,141.15c.03.42-.26.76-.69.79s-.77-.26-.8-.68c-.03-.42.27-.77.69-.8.42-.03.77.26.8.68Z"/>
                  <path class="cls-1" d="M693.84,147.04c.03.43-.27.78-.7.81s-.78-.27-.81-.69c-.03-.43.28-.77.7-.8s.78.25.81.68Z"/>
                  <path class="cls-1" d="M694.28,152.95c.04.43-.27.77-.7.8-.42.03-.78-.25-.81-.68s.27-.77.69-.8c.42-.03.78.25.82.68Z"/>
                  <path class="cls-1" d="M694.71,158.81c.03.43-.3.77-.72.8s-.79-.24-.82-.67.29-.77.72-.8c.42-.04.79.24.82.68Z"/>
                </g>
                <path class="cls-25" d="M855.14,134.48c-1.37.27-2.73.54-4.1.81-1.38-7.12-2.86-14.22-4.29-21.33,1.36-.26,2.73-.53,4.09-.79,1.43,7.1,2.87,14.21,4.3,21.31Z"/>
                <g>
                  <path class="cls-1" d="M849.93,115.41c.08.41-.17.79-.59.87-.42.08-.8-.17-.89-.59-.08-.42.18-.79.59-.87.41-.08.8.17.88.58Z"/>
                  <path class="cls-1" d="M851.1,121.19c.08.41-.17.8-.58.88s-.8-.18-.89-.59c-.08-.42.18-.79.59-.87.41-.08.79.17.88.58Z"/>
                  <path class="cls-1" d="M852.27,126.97c.08.42-.17.79-.59.87-.42.08-.8-.17-.89-.59-.08-.42.18-.79.59-.87.42-.08.8.17.88.59Z"/>
                  <path class="cls-1" d="M853.43,132.74c.08.41-.17.79-.59.87-.41.08-.8-.16-.89-.58-.08-.42.18-.79.59-.87.41-.08.8.17.88.59Z"/>
                </g>
              </g>
              <g>
                <g>
                  <path class="cls-3" d="M689.88,159.62c-54.69,4.56-107.13-9.19-159.98-21.19,1.24-6,2.64-11.97,3.91-17.97,50.9,11.43,102.19,25.93,154.86,20.71.37,6.15.8,12.3,1.22,18.45Z"/>
                  <path class="cls-4" d="M689.14,148.22c-53.38,5.04-105.23-9.2-156.8-20.91.13-.59.27-1.19.39-1.78,51.45,11.58,103.03,25.88,156.27,20.85.04.61.09,1.23.13,1.84Z"/>
                  <path class="cls-12" d="M688.82,143.72c-52.9,5.25-104.41-9.28-155.53-20.77.18-.83.35-1.65.53-2.48,50.9,11.43,102.19,25.93,154.86,20.71.05.85.1,1.69.15,2.54Z"/>
                  <path class="cls-10" d="M689.88,159.62c-54.69,4.56-107.13-9.19-159.98-21.19.44-2.14.9-4.28,1.38-6.42,52.21,11.85,104.15,25.66,158.17,21.04.13,2.19.28,4.38.43,6.56Z"/>
                  <path class="cls-11" d="M535.92,120.95c-.7-.16-1.41-.32-2.11-.47-1.27,6-2.67,11.96-3.91,17.97.68.15,1.36.31,2.03.46,1.34-5.98,2.72-11.96,3.99-17.95Z"/>
                  <path class="cls-11" d="M684.83,141.56c.37,6.13.73,12.27,1.12,18.4,1.31-.11,2.62-.22,3.93-.33-.41-6.15-.85-12.3-1.22-18.45-1.28.13-2.56.25-3.83.38Z"/>
                </g>
                <path class="cls-25" d="M530.79,140.29c-1.22-.28-2.44-.55-3.66-.83,1.46-7.05,2.98-14.09,4.47-21.14,1.27.28,2.54.57,3.81.85-1.49,7.05-3.16,14.06-4.62,21.12Z"/>
                <g>
                  <path class="cls-1" d="M533.77,120.87c-.08.39-.43.66-.84.57-.4-.09-.62-.48-.53-.88.08-.4.44-.65.84-.56.4.09.61.48.53.87Z"/>
                  <path class="cls-1" d="M532.56,126.59c-.09.39-.44.67-.84.57-.4-.09-.6-.49-.52-.88.08-.39.43-.65.84-.56.4.09.61.48.52.87Z"/>
                  <path class="cls-1" d="M531.27,132.31c-.09.39-.44.66-.84.57-.4-.09-.61-.48-.52-.88.09-.39.44-.66.84-.57.4.09.6.48.51.87Z"/>
                  <path class="cls-1" d="M530.03,138.05c-.08.38-.41.66-.81.57s-.59-.48-.51-.87c.08-.39.41-.66.81-.57.4.09.59.49.51.87Z"/>
                </g>
                <path class="cls-25" d="M691.96,161.08c-1.43.12-2.86.24-4.29.36-.46-7.22-.92-14.43-1.36-21.65,1.38-.14,2.76-.27,4.14-.41.56,7.23,1.02,14.47,1.51,21.7Z"/>
                <g>
                  <path class="cls-1" d="M689.27,141.52c.03.42-.28.77-.7.81-.42.04-.77-.24-.79-.67-.03-.42.29-.77.7-.81.42-.04.77.24.79.66Z"/>
                  <path class="cls-1" d="M689.67,147.41c.03.43-.27.78-.7.82-.43.04-.78-.25-.81-.68s.28-.77.7-.81c.42-.04.77.24.81.67Z"/>
                  <path class="cls-1" d="M690.06,153.3c.03.43-.29.77-.72.81-.42.04-.79-.24-.81-.67s.3-.77.72-.81c.42-.04.78.24.81.67Z"/>
                  <path class="cls-1" d="M690.45,159.17c.03.43-.3.76-.72.8-.42.03-.79-.24-.82-.67s.3-.77.72-.8c.42-.04.79.24.82.68Z"/>
                </g>
              </g>
            </g>
          </g>
          <g>
            <g>
              <circle class="cls-5" cx="798.35" cy="94.84" r="65.11"/>
              <g>
                <g>
                  <g>
                    <path class="cls-24" d="M632.2,324.14c-19.25-37.6,79.05-147.13,79.05-147.13l-7.7-6.79,21.83-23.63s23.23,14.13,18.48,23.95c-3.35,6.92-7.29,8.2-7.29,8.2-5.95,18.55-44.27,109.96-44.27,109.96,0,0-51.61,52.02-60.09,35.44Z"/>
                    <g>
                      <path class="cls-26" d="M692.13,156.33c-.09,7.54,17.4,20.25,22.94,16.59,5.54-3.66,27.18-31.78,27.18-31.78l-22.24-24.52s-27.79,32.13-27.88,39.72Z"/>
                      <g>
                        <path class="cls-24" d="M715.15,111.57c-3.42.05-9.66,12.92-9.66,12.92l9.66-3.18s4.18-9.8,0-9.74Z"/>
                        <path class="cls-24" d="M720.91,110.97c-3.42.05-9.66,12.92-9.66,12.92l9.66-3.18s4.18-9.8,0-9.74Z"/>
                        <path d="M705.49,125.08c.22,0,.43-.12.53-.33,2.35-4.85,6.91-12.56,9.14-12.59.58,0,.82.24.95.42.95,1.42-.41,5.97-1.49,8.5-.13.3.01.64.31.77.3.13.64-.01.77-.31.31-.73,3-7.21,1.38-9.61-.29-.44-.83-.95-1.93-.94-3.59.05-9.1,11.05-10.17,13.25-.14.29-.02.64.27.78.08.04.17.06.25.06Z"/>
                      </g>
                    </g>
                  </g>
                  <path d="M692.29,289.28c.23,0,.45-.13.54-.36l3.52-8.43c.12-.3-.02-.64-.31-.76-.3-.12-.64.02-.76.31l-3.52,8.43c-.12.3.02.64.31.76.07.03.15.05.23.05Z"/>
                </g>
                <g>
                  <path class="cls-24" d="M796.56,137.81c-.18,1.68.9,43.69.9,43.69l-43.52,30.69,7.23-34.46,35.39-39.93Z"/>
                  <path d="M790.1,157.03c-3.2,12-10.77,18.68-29.76,23.84l.95-5.22c-.17-1.08,30.03-29.94,30.03-29.94l-1.22,11.32Z"/>
                </g>
                <g>
                  <g>
                    <path class="cls-24" d="M791.92,126.4c-.95,6.7,3.71,12.9,10.42,13.85,6.7.95,12.9-3.71,13.85-10.42.95-6.7-3.72-12.9-10.42-13.85-6.7-.95-12.9,3.72-13.85,10.42Z"/>
                    <g>
                      <path d="M799.16,129.21c.29,0,.54-.21.58-.5.44-3.08,3.31-5.24,6.38-4.8.32.04.62-.18.66-.5.05-.32-.18-.62-.5-.66-3.73-.53-7.18,2.07-7.71,5.79-.05.32.18.62.5.66.03,0,.06,0,.08,0Z"/>
                      <path d="M805.25,134.01c.29,0,.54-.22.58-.51.63-5-4.17-8.86-4.37-9.02-.25-.2-.62-.16-.82.1-.2.25-.16.62.09.82.05.04,4.49,3.62,3.94,7.96-.04.32.19.61.51.65.03,0,.05,0,.07,0Z"/>
                    </g>
                  </g>
                  <path class="cls-24" d="M720.37,133.58c2.61,25.32,18.61,44.42,42.98,41.91,24.37-2.51,36.14-24.47,33.53-49.79-2.6-25.32-18.61-44.42-42.98-41.91-24.37,2.51-36.14,24.47-33.53,49.79Z"/>
                  <g>
                    <g>
                      <path d="M770.65,116.91c1.15-.28,1.85-1.44,1.57-2.59-.28-1.15-1.44-1.85-2.59-1.57l-5.95,1.46c-1.15.28-1.85,1.44-1.57,2.59.28,1.15,1.44,1.85,2.59,1.57l5.95-1.46Z"/>
                      <path d="M726.01,123.15c-1.18-.04-2.11-1.04-2.07-2.22s1.04-2.11,2.22-2.07l6.12.22c1.18.04,2.11,1.04,2.07,2.22-.04,1.18-1.04,2.11-2.22,2.07l-6.12-.22Z"/>
                    </g>
                    <path d="M754.26,144.05c.13,0,.26,0,.4-.02.32-.03.55-.32.52-.64-.03-.32-.31-.56-.64-.52-1.47.16-2.78-.92-2.93-2.38-.07-.71.13-1.4.58-1.96.45-.55,1.09-.9,1.8-.97.32-.03.55-.32.52-.64-.03-.32-.32-.55-.64-.52-1.02.1-1.94.6-2.58,1.4-.65.8-.94,1.79-.84,2.81.2,1.97,1.87,3.44,3.81,3.44Z"/>
                    <path class="cls-2" d="M751.42,157.65c.18,1.75,2.32,2.97,4.78,2.72s4.31-1.88,4.13-3.64-2.32-2.97-4.78-2.72c-2.46.25-4.31,1.88-4.13,3.64Z"/>
                    <path d="M754.59,157.85c.43,0,.88-.02,1.35-.07,4.02-.41,6.4-2.47,6.5-2.55.24-.21.27-.58.05-.82-.21-.24-.58-.27-.82-.06-.02.02-2.22,1.89-5.85,2.27-3.63.38-5.87-1.03-5.89-1.04-.27-.18-.63-.1-.81.18-.17.27-.09.63.18.81.09.06,2.05,1.29,5.29,1.29Z"/>
                  </g>
                  <g>
                    <path d="M766.1,130.26c.23,2.22,1.06,3.95,3.28,3.72,2.22-.23,2.68-2.09,2.45-4.31-.23-2.22-1.06-3.95-3.28-3.72-2.22.23-2.68,2.09-2.45,4.31Z"/>
                    <path d="M762.88,130.77c.2,0,.39-.1.5-.28,2-3.23,8.96-5.7,15.27-4.17.31.08.63-.12.71-.43.08-.31-.12-.63-.43-.71-6.99-1.69-14.33,1.11-16.54,4.69-.17.27-.09.63.19.8.1.06.2.09.31.09Z"/>
                  </g>
                  <g>
                    <path d="M730.28,133.72c.39,2.19.06,4.09-2.14,4.47-2.2.39-3.15-1.28-3.53-3.48-.39-2.19-.06-4.09,2.14-4.47,2.2-.39,3.15,1.28,3.53,3.48Z"/>
                    <path d="M722.82,132.66c.1,0,.21-.03.3-.09,4.22-2.58,11.24-1.97,15.99-.04.3.12.64-.02.76-.32s-.02-.64-.32-.76c-5.02-2.04-12.49-2.65-17.04.13-.28.17-.36.53-.19.8.11.18.3.28.5.28Z"/>
                  </g>
                  <path d="M760.08,176.86c1.36,0,2.73-.07,4.11-.21.32-.03.55-.32.52-.64-.03-.32-.32-.55-.64-.52-11.47,1.19-21.88-2.52-30.11-10.72-7.8-7.77-12.8-18.93-14.09-31.41-.03-.32-.32-.55-.64-.52-.32.03-.55.32-.52.64,1.31,12.75,6.44,24.15,14.43,32.11,7.37,7.34,16.81,11.26,26.94,11.26Z"/>
                </g>
                <path class="cls-5" d="M796.04,118.87c-7.46,1.94-45.93-8.25-51.54-22.19,0,0-4.61,24.67-24.46,28.26,0,0-8.62-37.55,32.76-43.58,41.38-6.03,50.61,35.6,43.24,37.51Z"/>
                <g>
                  <path class="cls-24" d="M693.59,151.69c-.17-3.8.8-9.09,3.03-14.11,1.15-2.6,3.42-7.75,6.76-11.63,3.11-3.61,12.43-7.63,15.58-6.3,4.47,1.87-11.65,12.43-11.65,12.43l-13.72,19.61Z"/>
                  <path d="M696.68,138.12c.2,0,.38-.1.47-.31l.05-.1c1.18-2.66,3.39-7.62,6.63-11.38,3.08-3.57,12.14-7.31,14.91-6.15.3.13.64-.01.77-.31.12-.3-.02-.64-.31-.76-3.46-1.45-13.06,2.76-16.25,6.46-3.35,3.89-5.6,8.95-6.81,11.67-.13.3-.02.69.27.82.09.04.18.06.27.06Z"/>
                </g>
                <path class="cls-16" d="M804.06,156.61c5.34,0,9.69-4.35,9.69-9.69,0-.32-.26-.58-.58-.58-.32,0-.58.26-.58.58,0,4.7-3.82,8.52-8.52,8.52-4.7,0-8.52-3.82-8.52-8.52,0-4.7,3.82-8.52,8.52-8.52.32,0,.58-.26.58-.58,0-.32-.26-.58-.58-.58-5.34,0-9.69,4.35-9.69,9.69,0,5.34,4.35,9.69,9.69,9.69Z"/>
              </g>
              <g>
                <path class="cls-7" d="M801.45,170.14c.47,5.59,1.24,9.33,1.24,9.33,0,0,36.53-15.75,60.69-7.33v168.41s-149.37-8.96-149.37-8.96c0,0-9.06-86.38,1.65-95.61,10.71-9.24,38.28-23.78,38.28-23.78l1.44-17.1c.31-3.68,2.28-7.01,5.35-9.07l34.51-19.59c2.79-1.21,5.95.67,6.21,3.7Z"/>
                <g>
                  <path d="M797.21,184.58s.04,0,.05,0c.32-.03.56-.31.53-.64l-1.22-13.39c-.03-.32-.31-.56-.64-.53-.32.03-.56.31-.53.64l1.22,13.39c.03.3.28.53.58.53Z"/>
                  <path d="M791.32,188.14s.04,0,.05,0c.32-.03.56-.31.53-.64l-1.22-13.39c-.03-.32-.31-.56-.64-.53-.32.03-.56.31-.53.64l1.22,13.39c.03.3.28.53.58.53Z"/>
                  <path d="M785.77,191.28s.04,0,.05,0c.32-.03.56-.31.53-.64l-1.22-13.39c-.03-.32-.31-.56-.64-.53-.32.03-.56.31-.53.64l1.22,13.39c.03.3.28.53.58.53Z"/>
                  <path d="M780.4,194.84s.04,0,.05,0c.32-.03.56-.31.53-.64l-1.22-13.39c-.03-.32-.31-.56-.64-.53-.32.03-.56.31-.53.64l1.22,13.39c.03.3.28.53.58.53Z"/>
                  <path d="M774.29,197.97s.04,0,.05,0c.32-.03.56-.31.53-.64l-1.22-13.39c-.03-.32-.31-.55-.64-.53-.32.03-.56.31-.53.64l1.22,13.39c.03.3.28.53.58.53Z"/>
                  <path d="M768.17,202.58s.04,0,.05,0c.32-.03.56-.31.53-.64l-1.22-13.39c-.03-.32-.31-.56-.64-.53-.32.03-.56.31-.53.64l1.22,13.39c.03.3.28.53.58.53Z"/>
                  <path d="M762.05,207.2s.04,0,.05,0c.32-.03.56-.31.53-.64l-1.22-13.39c-.03-.32-.31-.55-.64-.53-.32.03-.56.31-.53.64l1.22,13.39c.03.3.28.53.58.53Z"/>
                </g>
              </g>
              <g>
                <path d="M574.25,329.45h168s-10.42-88.89-10.42-88.89c-1.16-9.87-9.52-17.32-19.46-17.32h-128.54c-11.73,0-20.83,10.23-19.46,21.88l9.88,84.32Z"/>
                <path class="cls-17" d="M578.49,223.24h128.54c9.94,0,18.31,7.44,19.46,17.32l10.42,88.89h.22l5.47,6.5h-167.2c-3.59,0-6.5-2.91-6.5-6.5h0s-9.88-84.32-9.88-84.32c-1.37-11.65,7.74-21.88,19.46-21.88Z"/>
                <path d="M721.96,324.17s.05,0,.08,0c.32-.04.55-.34.5-.66l-1.39-10.57c-.04-.32-.33-.55-.66-.5-.32.04-.55.34-.5.66l1.39,10.57c.04.29.29.51.58.51Z"/>
                <path d="M718.28,324.17s.05,0,.08,0c.32-.04.55-.34.5-.66l-1.39-10.57c-.04-.32-.32-.55-.66-.5-.32.04-.55.34-.5.66l1.39,10.57c.04.29.29.51.58.51Z"/>
                <path d="M714.6,324.17s.05,0,.08,0c.32-.04.55-.34.5-.66l-1.39-10.57c-.04-.32-.33-.55-.66-.5-.32.04-.55.34-.5.66l1.39,10.57c.04.29.29.51.58.51Z"/>
                <path d="M710.92,324.17s.05,0,.08,0c.32-.04.55-.34.5-.66l-1.39-10.57c-.04-.32-.33-.55-.66-.5-.32.04-.55.34-.5.66l1.39,10.57c.04.29.29.51.58.51Z"/>
                <path d="M707.24,324.17s.05,0,.08,0c.32-.04.55-.34.5-.66l-1.39-10.57c-.04-.32-.33-.55-.66-.5-.32.04-.55.34-.5.66l1.39,10.57c.04.29.29.51.58.51Z"/>
                <path class="cls-18" d="M657.21,276.35l-.29-2.45c-.62-5.27-5.08-9.24-10.38-9.24h0c-6.26,0-11.11,5.46-10.38,11.67l.29,2.45c.62,5.27,5.08,9.24,10.38,9.24h0c6.26,0,11.11-5.46,10.38-11.67Z"/>
                <path d="M744.24,335.95h35.65c1.79,0,3.25-1.45,3.25-3.25h0c0-1.79-1.45-3.25-3.25-3.25h-42.98c.45,3.71,3.59,6.5,7.33,6.5Z"/>
                <path d="M568.91,330.03s.05,0,.07,0c.32-.04.55-.33.51-.65l-9.88-84.32c-.63-5.39,1.07-10.8,4.68-14.85,3.6-4.05,8.78-6.38,14.21-6.38h128.54c.32,0,.58-.26.58-.58,0-.32-.26-.58-.58-.58h-128.54c-5.76,0-11.25,2.47-15.08,6.77-3.83,4.3-5.64,10.05-4.97,15.76l9.88,84.32c.03.3.29.52.58.52Z"/>
              </g>
              <g>
                <g>
                  <path class="cls-24" d="M763.09,361.86c.1,11.62-13.74,22.26-17.05,26.61-3.31,4.35.99,29.69-3.88,32.12-3.75,1.87-6.53-3.84-6.53-3.84,0,0,1.28,11.36-3.51,10.1-4.99-1.3-6.1-6.56-6.1-6.56,0,0,3.24,11.25-2.38,10.51-5.62-.74-12.43-27.71-12.43-27.71,0,0-1.37,20.65-8.1,20.15-6.73-.5-2.79-24.76-.51-32.25,1.61-5.29,2.07-12.05,11.07-24.39,9-12.34,26.68-29.75,38.87-34.82,17.75-7.39,105.62-21.98,105.62-21.98l-20.04-92.53c-6.2-28.64-5.5-58,25.26-45.12,25.75,10.78,52.44,134.64,53.82,158.52,1.37,23.89-12.36,34.32-70.29,32.67-57.93-1.65-83.81-1.49-83.81-1.49Z"/>
                  <path d="M735.63,417.34c.08,0,.16-.02.24-.05.29-.13.43-.48.29-.77-2.8-6.21-3.4-17.05-1.49-26.96.06-.32-.15-.62-.46-.68-.31-.06-.62.15-.68.46-1.95,10.13-1.31,21.25,1.58,27.66.1.22.31.34.53.34Z"/>
                  <path d="M724.85,416.28s.08,0,.13-.01c.32-.07.51-.38.45-.7-.36-1.64-.77-3.35-1.19-5.08-2.03-8.44-4.34-18-1.58-23.84.14-.29.01-.64-.28-.78-.29-.14-.64-.01-.78.28-2.93,6.21-.58,15.99,1.5,24.62.42,1.73.83,3.43,1.19,5.06.06.27.3.46.57.46Z"/>
                  <path d="M712.28,403.68c.05,0,.1,0,.16-.02.31-.08.49-.41.41-.72-1.25-4.55-.61-10.45,1.42-13.15.19-.26.14-.62-.12-.82-.26-.19-.63-.14-.82.12-2.26,3.01-2.97,9.23-1.61,14.16.07.26.31.43.56.43Z"/>
                </g>
                <path d="M858.16,310.39s.02,0,.03,0l23.06-1.1c.32-.02.57-.29.56-.61-.02-.32-.3-.56-.61-.56l-23.06,1.1c-.32.02-.57.29-.56.61.01.31.27.56.58.56Z"/>
                <path d="M907.7,278.54s1.6,6.93,2.49,11.36c0,0-54.31,6.17-55.86,2.21-1.55-3.96,53.37-13.57,53.37-13.57Z"/>
                <path class="cls-7" d="M919.55,276.13c-10.34-43.9-39.54-97.02-56.17-103.98-30.76-12.87-36.79,18.02-30.59,46.66,9.35,44.5,16.62,74.12,16.62,74.12,0,0,53.34-8.49,70.13-16.8Z"/>
                <path d="M849.41,293.51s.06,0,.09,0c.53-.09,53.62-8.59,70.3-16.85.29-.14.41-.49.26-.78-.14-.29-.49-.41-.78-.26-15.63,7.74-63.82,15.74-69.43,16.66-1.01-4.17-7.92-32.78-16.49-73.57-.07-.32-.38-.52-.69-.45-.32.07-.52.38-.45.69,9.25,44.01,16.56,73.84,16.63,74.13.06.26.3.45.57.45Z"/>
                <path d="M762.84,365.41c.23,0,.45-.14.54-.36.05-.14,1.3-3.4-1.45-10.97-.11-.3-.45-.46-.75-.35-.3.11-.46.45-.35.75,2.56,7.08,1.47,10.12,1.46,10.15-.11.3.03.64.33.75.07.03.14.04.21.04Z"/>
              </g>
              <path class="cls-21" d="M716.89,51.66c0-21.08-6.94-38.17-52.44-38.17-45.5,0-52.44,17.09-52.44,38.17,0,21.08,6.94,38.17,52.44,38.17,9.26,0,16.9-.72,23.23-2.02,8.77,7.91,19.42,16.46,23,14.83,3.72-1.68,1.86-15.42-.39-26.76,5.26-6.59,6.59-15.02,6.59-24.22Z"/>
              <g id="simbolo_star" data-name="simbolo star">
                <path class="cls-23" d="M647.15,279.07c-2.13.84-3.46,1.42-3.85,2.82l-.06.22c-.29,1.03-.11,2.13.52,2.99v.02c1.32-4.04,6-3.14,7.85-5.58.68-.9,1.11-2.04,1.15-4.29-1.38,2.14-3.68,3.05-5.6,3.81h0Z"/>
                <path class="cls-14" d="M652.09,267.02c-.97,6-15.84,2.87-10.18,14.47,1.63-5.7,12.95-1.81,10.18-14.47Z"/>
                <path class="cls-6" d="M643.82,276.76l.09.52c.01.06-.06.11-.11.08l-.47-.25s-.05-.01-.07,0l-.46.25c-.06.03-.13-.02-.11-.08l.09-.52s0-.05-.02-.07l-.38-.37s-.02-.13.05-.13l.52-.07s.05-.02.06-.04l.23-.48c.03-.06.11-.06.14,0l.23.48s.03.04.06.04l.52.07c.06.01.09.09.05.13l-.38.37s-.03.05-.02.07h0Z"/>
              </g>
            </g>
            <g>
              <g>
                <rect class="cls-9" x="565.25" y="250.55" width="10.02" height="54.81" transform="translate(1073.88 663.73) rotate(-168.53)"/>
                <g>
                  <path class="cls-17" d="M559.9,303.82l2.22,10.92c.13.62.94.78,1.29.26l6.3-9.19-9.82-1.99Z"/>
                  <path d="M562.57,315.87c-.52-.11-.91-.49-1.02-1.02l-2.22-10.92c-.04-.19.02-.39.16-.53.14-.14.34-.2.53-.16l9.82,1.99c.19.04.35.17.43.35.07.18.05.39-.06.55l-6.3,9.19c-.25.36-.65.57-1.07.57-.09,0-.17,0-.26-.03ZM560.65,304.57l2.05,10.06c.01.06.05.09.1.1.06.01.1,0,.14-.05l5.8-8.46-8.09-1.64Z"/>
                </g>
                <rect class="cls-16" x="571.1" y="247.87" width="9.94" height="3.26" transform="translate(1090.56 609.23) rotate(-168.46)"/>
                <path class="cls-2" d="M577.83,240.89h0c2.69.55,4.43,3.18,3.88,5.87l-.44,2.14-9.74-1.99.44-2.14c.55-2.69,3.18-4.43,5.87-3.88Z"/>
                <path d="M577.26,269.22c.27,0,.52-.19.57-.47.06-.32-.14-.63-.46-.69l-9.82-1.99c-.32-.06-.63.14-.69.46-.06.32.14.63.46.69l9.82,1.99s.08.01.12.01Z"/>
              </g>
              <g>
                <g>
                  <rect class="cls-16" x="549.44" y="238.2" width="10.02" height="54.81" transform="translate(-41.73 115.52) rotate(-11.47)"/>
                  <g>
                    <path class="cls-17" d="M564.81,291.47l-2.22,10.92c-.13.62-.94.78-1.29.26l-6.3-9.19,9.82-1.99Z"/>
                    <path d="M560.81,302.99l-6.3-9.19c-.11-.16-.13-.37-.06-.55.07-.18.23-.31.43-.35l9.82-1.99c.19-.04.39.02.53.16.14.14.2.34.16.53l-2.22,10.92c-.11.52-.5.91-1.02,1.02-.09.02-.17.03-.26.03-.42,0-.83-.21-1.07-.57ZM555.97,293.86l5.8,8.46s.08.06.14.06c.06-.01.09-.05.1-.1l2.05-10.06-8.09,1.64Z"/>
                  </g>
                  <rect class="cls-9" x="543.67" y="235.52" width="9.94" height="3.26" transform="translate(-36.36 114.59) rotate(-11.54)"/>
                  <path class="cls-19" d="M546.88,228.54h0c-2.69.55-4.43,3.18-3.88,5.87l.44,2.14,9.74-1.99-.44-2.14c-.55-2.69-3.18-4.43-5.87-3.88Z"/>
                  <path d="M547.45,256.88s.08,0,.12-.01l9.82-1.99c.32-.06.52-.37.46-.69-.06-.32-.37-.52-.69-.46l-9.82,1.99c-.32.06-.52.37-.46.69.06.28.3.47.57.47Z"/>
                </g>
                <path d="M543.18,261.44s.07,0,.11-.01c.32-.06.52-.37.46-.68l-4.15-21.53,4.21-.69c.32-.05.53-.35.48-.67-.05-.32-.35-.54-.67-.48l-4.81.79c-.16.03-.29.11-.38.24-.09.13-.12.29-.09.44l4.26,22.12c.05.28.3.47.57.47Z"/>
              </g>
              <g>
                <polygon class="cls-8" points="585.09 274.89 544.22 274.89 544.88 292.41 584.43 292.41 585.09 274.89"/>
                <polygon class="cls-8" points="547.5 292.41 548.93 335.95 580.38 335.95 581.81 292.41 547.5 292.41"/>
              </g>
            </g>
          </g>
          <g>
            <g>
              <path class="cls-21" d="M260.9,38.17c0-21.08,6.94-38.17,52.44-38.17,45.5,0,52.44,17.09,52.44,38.17,0,21.08-6.94,38.17-52.44,38.17-9.26,0-16.9-.72-23.23-2.02-8.77,7.91-19.42,16.46-23,14.83-3.72-1.68-1.86-15.42.39-26.76-5.26-6.59-6.59-15.02-6.59-24.22Z"/>
              <g>
                <g>
                  <path class="cls-24" d="M310.8,336.52c-42.62-.33-46.41.71-54.05-23.1-6.38-19.87-22.55-80.39-22.55-80.39-4.79-22.12-1.09-31.15,22.67-21.2,19.89,8.33,37.16,72.21,42.61,90.09,0,0,87.09,10.65,93.26,10.78,12.25.27,35.88,4.05,47.93,10.24,12.06,2.91,10.36,6.91,10.36,6.91,4.38,1.38,6.69,7.26,1.39,6.8-5.3-.46-96.85.21-141.63-.13Z"/>
                  <path d="M292.24,277.24s.84,1.76,1.53,5.18c0,0-28.81,13.67-41.93,14.61,0,0-1.59-5.89-1.93-6.74-1.2-3.06,42.32-13.05,42.32-13.05Z"/>
                  <path class="cls-14" d="M297.1,278.5c-7.99-33.92-33.13-73.33-45.98-78.71-23.76-9.95-25.84,12.31-21.05,34.43,7.22,34.38,12.84,57.26,12.84,57.26,0,0,41.2-6.56,54.18-12.98Z"/>
                  <path d="M451.04,330.43c.25,0,.48-.16.56-.41.09-.31-.08-.64-.39-.73-.8-.24-19.6-5.97-30.05-5.12-.32.03-.56.31-.53.63s.3.56.63.53c10.24-.85,29.42,5.01,29.61,5.07.06.02.12.03.17.03Z"/>
                  <path d="M442.35,324.34c.26,0,.49-.17.56-.43.09-.31-.09-.63-.41-.72-.73-.2-17.96-5.01-22.03-5.12-.32.01-.59.24-.6.57,0,.32.24.59.57.6,3.93.11,21.57,5.03,21.75,5.08.05.01.11.02.16.02Z"/>
                </g>
                <g>
                  <path class="cls-24" d="M212.34,168.15l1.78,22.55,15.24,5.07s-4.58,34.91-35.53,33.37c-30.95-1.54-35.01-43.56-35.01-43.56h16.24s-5.81-37.25-5.81-37.25l43.1,19.82Z"/>
                  <path d="M213.52,183.1s-25.44,0-35.95-19.15l34.78,4.2,1.18,14.95Z"/>
                  <path class="cls-7" d="M104.86,295.99l11.14,39.86,163.56-.2s-11.46-120.82-26.68-132.1c-15.22-11.28-31.61-9.91-32.62-11.45,0,0,8.41,19.12-18.48,15.02-26.89-4.1-33.83-21.55-33.83-21.55,0,0-25.37.51-40.59,4.61-15.22,4.1-22.5,105.8-22.5,105.8Z"/>
                  <path d="M260.31,332.85s.04,0,.06,0c.32-.03.55-.32.52-.64-.06-.58-5.97-58.15-14.79-97.53-.07-.31-.38-.51-.7-.44-.32.07-.51.38-.44.7,8.8,39.32,14.71,96.82,14.77,97.4.03.3.28.53.58.53Z"/>
                </g>
                <g>
                  <path class="cls-5" d="M129.07,123.99c.14-8.13,5.89-14.76,13.3-15.97-1.75-4.16-2.72-8.75-2.63-13.6.32-17.81,14.35-32.01,31.33-31.71,16.99.3,30.5,14.99,30.18,32.8-.32,17.81-14.35,32.01-31.33,31.71-3.34-.06-6.53-.69-9.52-1.78-.09,1.33-.32,2.61-.7,3.84,7.41,1.43,12.96,8.29,12.81,16.45-.16,9.09-7.32,16.33-15.99,16.18-8.67-.15-15.56-7.65-15.4-16.74.03-1.65.3-3.24.75-4.74-7.41-1.43-12.96-8.29-12.81-16.45Z"/>
                  <g>
                    <path class="cls-24" d="M239.12,121.88c3.74,41.09-8.46,51.78-36.75,52.53-28.3.76-45.06-22.65-45.86-52.04-.8-29.4,14.69-53.67,42.99-54.44,28.3-.76,36.95,24.65,39.62,53.94Z"/>
                    <g>
                      <g>
                        <path class="cls-5" d="M185.25,108.37c-1.36-.15-2.34-1.38-2.19-2.74.15-1.36,1.38-2.34,2.74-2.19l7.03.79c1.36.15,2.34,1.38,2.19,2.74-.15,1.36-1.38,2.34-2.74,2.19l-7.03-.79Z"/>
                        <path class="cls-5" d="M231.37,108.76c1.35-.22,2.26-1.5,2.04-2.85-.22-1.35-1.5-2.26-2.85-2.04l-6.98,1.16c-1.35.22-2.26,1.5-2.04,2.85.22,1.35,1.5,2.26,2.85,2.04l6.98-1.16Z"/>
                      </g>
                      <path d="M210.63,137.88h.02c3.86-.1,6.92-3.33,6.82-7.19-.05-1.87-.83-3.61-2.18-4.9-1.36-1.29-3.14-1.97-5.01-1.92-.32,0-.58.28-.57.6,0,.32.26.57.6.57,1.57-.06,3.04.53,4.17,1.6,1.13,1.07,1.78,2.52,1.82,4.08.04,1.56-.53,3.04-1.6,4.17-1.07,1.13-2.52,1.78-4.08,1.82-.32,0-.58.28-.57.6,0,.32.27.57.58.57Z"/>
                      <path d="M207.78,152.92c.14,0,.28,0,.42,0,4.65-.13,7.26-2.27,7.37-2.37.25-.21.28-.57.07-.82-.21-.25-.58-.28-.82-.07-.02.02-2.43,1.98-6.65,2.09-4.23.1-7.06-1.72-7.09-1.74-.27-.18-.63-.11-.81.16-.18.27-.11.63.16.81.12.08,2.95,1.94,7.35,1.94Z"/>
                    </g>
                    <path d="M192.45,122.99c.07,2.57-.62,4.68-3.2,4.75-2.57.07-3.38-2-3.45-4.57-.07-2.57.62-4.68,3.2-4.75,2.57-.07,3.38,2,3.45,4.57Z"/>
                    <path d="M226.51,121.85c-.11,2.57.54,4.69,3.11,4.81,2.57.11,3.42-1.94,3.53-4.51.12-2.57-.54-4.69-3.11-4.8-2.57-.11-3.42,1.94-3.53,4.51Z"/>
                    <g>
                      <path class="cls-24" d="M165.13,122.48c2.09,7.54-2.33,15.34-9.87,17.43-7.54,2.09-15.34-2.33-17.43-9.87-2.09-7.54,2.33-15.34,9.87-17.43,7.54-2.09,15.34,2.33,17.43,9.87Z"/>
                      <g>
                        <path d="M157.17,126.7c.05,0,.1,0,.16-.02.31-.09.49-.41.41-.72-1.15-4.14-5.45-6.57-9.58-5.43-.31.09-.49.41-.41.72.09.31.41.49.72.41,3.52-.97,7.17,1.1,8.14,4.61.07.26.31.43.56.43Z"/>
                        <path d="M150.91,133.1s.1,0,.15-.02c.31-.08.5-.4.42-.71-1.29-4.95,3.3-9.74,3.35-9.79.22-.23.22-.6-.01-.83-.23-.23-.6-.22-.83.01-.21.21-5.1,5.32-3.64,10.9.07.26.31.44.56.44Z"/>
                      </g>
                    </g>
                  </g>
                  <path class="cls-5" d="M182.62,102.81c-4.21-1.2-7.6-3.81-9.91-6.94-5.16,11.66-12.91,26.35-18.62,24.67-9.32-2.74-8.82-21.83-6.12-28.93,3.05-8.02,11.44-15.49,21.9-20.82-2.8-3.81-3.84-8.94-2.29-13.96,2.54-8.19,10.94-12.87,18.76-10.45,4.69,1.46,8.09,5.14,9.52,9.63.02-.08.04-.17.06-.25,2.67-8.59,12.6-13.15,22.19-10.17,9.58,2.98,15.19,12.35,12.52,20.95-.2.64-.45,1.24-.72,1.83,0,0,18.15,1.54,19.1,13.7.95,12.16-14.79,13.52-14.79,13.52,0,0-10.32,14.8-30.95,5.96,0,0-10.76,4.08-20.66,1.27Z"/>
                </g>
                <g>
                  <path d="M118.98,335.85c7.47,0,3.09-23.38,3.09-23.38h-12.06s-.05,23.38,8.97,23.38Z"/>
                  <path class="cls-7" d="M138.77,237.66l.59-49.31c-35.05,2.45-44.58,23.5-47.75,51.63-4.56,40.37-.07,72.48-.07,72.48l56.85-19.68-9.62-55.12"/>
                  <path class="cls-26" d="M142.15,116.43c6.51.96,34.74,24.33,37.22,26.97,2.48,2.65,9.76,23.18,9.76,25.59s-5.93.95-5.93.95l-42.72-28.23s-3.02-19.28-2.3-22.37c.72-3.09,3.97-2.91,3.97-2.91Z"/>
                  <path class="cls-24" d="M114.67,269.76c6.06-17.42,38.03-98.65,38.03-98.65,0,0-13.24-23.53-14.65-26.32-2.57-5.09-4.82-9.92-3.77-14.31,1.61-6.7,12.07-11.15,12.07-11.15,4.54-4.04,8.4,5.43,8.4,5.43,7.64-.76,7.54,5.45,7.54,5.45,2.02-1.51,12.64-2.93,12.4,10.78l-5.01-2.76-5.67,1.53s19.24,21.5,19.24,31.09c0,8.88-24.46,140.73-48.96,158.88h0s-3.33,1.94-5,2.05c-5.86,1.8-15.87,3.02-24.44-5.22-16.67-16.02-13.14-62.16,9.81-56.81Z"/>
                  <path d="M179.53,194.94c.28,0,.52-.2.57-.48,2.23-11.8,3.73-21.29,3.73-23.61,0-9.7-18.6-30.6-19.39-31.48-.21-.24-.58-.26-.83-.05-.24.22-.26.58-.05.83.19.21,19.09,21.44,19.09,30.7,0,1.82-1.16,9.91-3.71,23.39-.06.32.15.62.47.68.04,0,.07.01.11.01Z"/>
                  <path d="M174.7,141.58c.32,0,.58-.26.58-.57.13-7.18-2.69-10.14-5.07-11.35-2.66-1.36-5.73-1.03-7.41-.36-.16-.93-.6-2.37-1.84-3.51-1.37-1.26-3.33-1.81-5.83-1.63-.61-1.35-2.75-5.63-5.66-6.31-1.22-.28-2.39.07-3.5,1.06-.24.21-.26.58-.05.82.21.24.58.26.82.05.82-.73,1.62-.98,2.46-.79,2.32.54,4.41,4.52,5.01,6.01.1.24.34.38.6.36,2.35-.24,4.15.2,5.34,1.29,1.56,1.43,1.56,3.55,1.56,3.58,0,.22.12.43.32.53.2.1.44.08.61-.05.81-.61,4.09-1.5,7.02,0,2.99,1.53,4.53,5.09,4.44,10.29,0,.32.25.59.57.59h.01Z"/>
                  <path d="M155.95,134.65c.11,0,.21-.03.31-.09l6.22-3.86c.27-.17.36-.53.19-.81-.17-.27-.53-.36-.81-.19l-6.22,3.86c-.27.17-.36.53-.19.81.11.18.3.28.5.28Z"/>
                  <path d="M148.54,129.22c.11,0,.21-.03.31-.09l6.22-3.86c.27-.17.36-.53.19-.81-.17-.27-.53-.36-.81-.19l-6.22,3.86c-.27.17-.36.53-.19.81.11.18.3.28.5.28Z"/>
                  <path class="cls-7" d="M114.67,269.76c-8.25,9.57-6.72,62.51,4.3,66.09-18.64.45-26.34-12.22-27.44-23.38-1.1-11.16.26-51.57,23.14-42.7Z"/>
                </g>
              </g>
            </g>
            <g>
              <g>
                <path d="M286.05,335.85h-67.98c-1.98,0-3.58-1.6-3.58-3.58h0c0-1.98,1.6-3.58,3.58-3.58h67.98c1.98,0,3.58,1.6,3.58,3.58h0c0,1.98-1.6,3.58-3.58,3.58Z"/>
                <path class="cls-17" d="M446.73,335.85h-178.01c-1.98,0-3.58-1.6-3.58-3.58h0c0-1.98,1.6-3.58,3.58-3.58h178.01c1.98,0,3.58,1.6,3.58,3.58h0c0,1.98-1.6,3.58-3.58,3.58Z"/>
                <rect x="257.87" y="182.47" width="34.41" height="116.9" rx="14.42" ry="14.42"/>
                <rect class="cls-17" x="263.64" y="182.47" width="186.67" height="116.9" rx="14.42" ry="14.42"/>
                <rect class="cls-17" x="343.45" y="299.37" width="30.29" height="36.47"/>
                <path class="cls-18" d="M373.23,240.92c0,8.98-7.28,16.26-16.26,16.26-8.98,0-16.26-7.28-16.26-16.26,0-8.98,7.28-16.26,16.26-16.26,8.98,0,16.26,7.28,16.26,16.26Z"/>
                <path d="M297.87,299.96h138.02c8.28,0,15.01-6.73,15.01-15.01v-88.05c0-8.28-6.73-15.01-15.01-15.01-.32,0-.58.26-.58.58s.26.58.58.58c7.63,0,13.84,6.21,13.84,13.84v88.05c0,7.63-6.21,13.84-13.84,13.84h-138.02c-.32,0-.58.26-.58.58,0,.32.26.58.58.58Z"/>
                <path d="M446.73,336.43c2.29,0,4.16-1.87,4.16-4.16s-1.87-4.16-4.16-4.16h-114.77c-.32,0-.58.26-.58.58,0,.32.26.58.58.58h114.77c1.65,0,2.99,1.34,2.99,2.99s-1.34,2.99-2.99,2.99c-.32,0-.58.26-.58.58s.26.58.58.58Z"/>
                <g>
                  <path class="cls-17" d="M170.12,336.21h42.05c0-7.78-9.41-14.09-21.02-14.09s-21.02,6.31-21.02,14.09Z"/>
                  <path d="M206.17,337.25s.03,0,.05,0c.32-.03.56-.31.53-.63-.49-5.61-4.13-10.46-8.84-11.79-.31-.09-.63.09-.72.4-.09.31.09.63.4.72,4.26,1.21,7.55,5.64,8,10.77.03.3.28.53.58.53Z"/>
                </g>
              </g>
              <g>
                <path class="cls-22" d="M74.37,272.32c9.12,2.75,17.64,1.23,19.03-3.4,1.4-4.63-4.86-10.61-13.98-13.36-9.12-2.75-17.64-1.23-19.03,3.4-1.4,4.63,4.86,10.61,13.98,13.36Z"/>
                <path d="M45.51,287.5c.32,0,.58-.26.58-.58v-8.51c.01-6.78,2.3-12.07,6.44-14.87,5.34-3.62,13.47-3.3,24.15.95.3.12.64-.03.76-.33.12-.3-.03-.64-.33-.76-11.06-4.4-19.55-4.68-25.23-.83-4.47,3.03-6.94,8.65-6.95,15.84v8.51c0,.32.26.58.58.58Z"/>
                <path class="cls-22" d="M19.06,241.98c6.89,6.57,15.18,9.06,18.52,5.56,3.33-3.5.45-11.66-6.44-18.23-6.89-6.57-15.18-9.06-18.52-5.56-3.33,3.5-.45,11.66,6.44,18.23Z"/>
                <path d="M45.45,277.42h0c.32,0,.58-.26.58-.59-.04-18.82-2.92-24.65-20.53-41.61-.23-.22-.6-.22-.83.02-.22.23-.22.6.02.83,17.49,16.84,20.13,22.18,20.17,40.77,0,.32.26.58.58.58Z"/>
                <path class="cls-16" d="M19.63,282.15c.07.1.15.21.22.31,3.96,5.49,3.96,12.82,0,18.32-2.41,3.35-3.79,7.2-3.79,11.31,0,12.85,13.49,23.26,30.13,23.26,16.64,0,30.13-10.42,30.13-23.26,0-4.1-1.38-7.96-3.79-11.31-3.96-5.49-3.96-12.82,0-18.32.07-.1.15-.21.22-.31,3.23-4.63-.31-11-5.96-11H25.58c-5.65,0-9.18,6.36-5.96,10.99Z"/>
                <path class="cls-22" d="M55.06,225.56c-6.62,6.84-9.17,15.12-5.7,18.48,3.47,3.36,11.66.53,18.28-6.31,6.62-6.84,9.17-15.12,5.7-18.48-3.47-3.36-11.66-.53-18.28,6.31Z"/>
                <path class="cls-22" d="M65.13,296.58c4.17,8.64,11.11,13.93,15.49,11.82,4.39-2.12,4.56-10.84.39-19.48-4.17-8.64-11.11-13.93-15.49-11.82-4.39,2.12-4.56,10.84-.39,19.48Z"/>
                <path class="cls-22" d="M22.47,311.87c2.14,9.35,7.73,16.06,12.47,14.97,4.75-1.09,6.86-9.55,4.72-18.91-2.14-9.35-7.73-16.06-12.47-14.97-4.75,1.09-6.86,9.55-4.72,18.91Z"/>
                <path class="cls-22" d="M26.93,209.73c3.11,9.08,9.36,15.16,13.97,13.59,4.61-1.58,5.83-10.21,2.72-19.29-3.11-9.08-9.36-15.16-13.97-13.59-4.61,1.58-5.83,10.21-2.72,19.29Z"/>
                <path class="cls-22" d="M20.01,281.93c7.88-5.34,12.07-12.92,9.36-16.92-2.71-4-11.3-2.91-19.18,2.43-7.88,5.34-12.07,12.92-9.36,16.92,2.71,4,11.3,2.91,19.18-2.43Z"/>
                <path d="M15.1,275.27c.12,0,.25-.04.35-.12,11.63-8.89,18.59-12.3,23.24-11.42,2.31.44,4.2,1.99,5.94,4.89.17.28.53.36.8.2.28-.17.37-.53.2-.8-1.93-3.2-4.07-4.93-6.72-5.44-5.02-.95-12.25,2.52-24.17,11.64-.26.2-.31.56-.11.82.12.15.29.23.47.23Z"/>
                <path d="M31.07,310.49c.1,0,.19-.02.28-.07.28-.16.39-.51.23-.79-9.72-17.62-2.71-33.5,5.09-38.69,3.39-2.25,6.52-2.19,8.39.17.2.25.57.3.82.1.25-.2.3-.57.1-.82-2.25-2.84-6.06-3-9.95-.42-8.16,5.42-15.53,21.96-5.46,40.22.11.19.31.3.51.3Z"/>
                <path d="M72.35,290.95c.08,0,.15-.01.23-.05.3-.13.44-.47.31-.77-4.7-11.06-11.07-18.4-17.93-20.67-3.1-1.03-6.2-.91-8.82.3.45-11.43,2.8-25.79,15.61-37.68.24-.22.25-.59.03-.83-.22-.24-.59-.25-.83-.03-13.5,12.54-15.65,27.7-16.02,39.5,0,.21.1.41.29.52.18.11.41.11.59,0,2.55-1.5,5.59-1.73,8.78-.67,3.79,1.25,11.07,5.52,17.22,20.02.09.22.31.36.54.36Z"/>
                <path d="M45.51,271.33c.32,0,.58-.26.58-.58v-.15c0-30.44-3.66-53.17-10.32-64.02-.17-.28-.53-.36-.8-.19-.28.17-.36.53-.19.8,6.55,10.66,10.15,33.18,10.15,63.4v.15c0,.32.26.58.58.58Z"/>
              </g>
              <g>
                <path class="cls-9" d="M103.89,326.56c-4.81,0-14.95-2.87-15.55-8.95h-32.13s4.23,8.95,10.45,8.95,37.23,0,37.23,0"/>
                <rect class="cls-9" x="87.93" y="326.56" width="15.96" height="8.95" transform="translate(191.82 662.07) rotate(-180)"/>
                <rect class="cls-9" x="56.01" y="326.56" width="31.92" height="8.95" transform="translate(143.95 662.07) rotate(-180)"/>
                <path d="M64.5,330.64h12.17c.32,0,.58-.26.58-.58,0-.32-.26-.58-.58-.58h-12.17c-.32,0-.58.26-.58.58,0,.32.26.58.58.58Z"/>
                <path d="M67.81,332.98h20.12c.32,0,.58-.26.58-.58,0-.32-.26-.58-.58-.58h-20.12c-.32,0-.58.26-.58.58,0,.32.26.58.58.58Z"/>
                <path d="M90.95,332.98h5.72c.32,0,.58-.26.58-.58,0-.32-.26-.58-.58-.58h-5.72c-.32,0-.58.26-.58.58,0,.32.26.58.58.58Z"/>
                <path d="M98.16,330.64h5.72c.32,0,.58-.26.58-.58,0-.32-.26-.58-.58-.58h-5.72c-.32,0-.58.26-.58.58s.26.58.58.58Z"/>
                <path d="M56.01,327.15h47.88c.32,0,.58-.26.58-.58,0-.32-.26-.58-.58-.58h-47.88c-.32,0-.58.26-.58.58,0,.32.26.58.58.58Z"/>
                <path d="M87.93,336.1c.32,0,.58-.26.58-.58v-8.95c0-.32-.26-.58-.58-.58s-.58.26-.58.58v8.95c0,.32.26.58.58.58Z"/>
              </g>
            </g>
            <g id="simbolo_star-2" data-name="simbolo star">
              <path class="cls-23" d="M357.53,244.23c-2.83,1.11-4.6,1.89-5.12,3.75l-.08.3c-.39,1.36-.15,2.84.69,3.98l.02.02c1.74-5.38,7.97-4.18,10.42-7.42.91-1.2,1.48-2.71,1.53-5.7-1.83,2.85-4.89,4.06-7.45,5.07h0Z"/>
              <path class="cls-14" d="M364.11,228.2c-1.3,7.98-21.07,3.81-13.54,19.25,2.17-7.58,17.23-2.41,13.54-19.25Z"/>
              <path class="cls-6" d="M353.11,241.15l.11.69c.02.08-.08.15-.15.11l-.63-.33s-.07-.02-.1,0l-.62.33c-.08.04-.17-.02-.15-.11l.12-.69s0-.07-.03-.09l-.5-.49c-.06-.06-.03-.17.06-.18l.69-.1s.06-.02.08-.05l.31-.63c.04-.08.14-.08.18,0l.31.63s.05.05.08.05l.69.1c.08.02.12.11.06.18l-.5.49s-.04.06-.03.09h0Z"/>
            </g>
          </g>
        </g>
        <g>
          <rect class="cls-14" x="2133.62" y="196.35" width="280.22" height="152.97" rx="4.24" ry="4.24"/>
          <g>
            <path class="cls-17" d="M2200.38,252.44c-.74-.75-1.94-.8-2.73-.1-4.51,3.94-8.91,6.28-15.44,6.28-11.22,0-19.34-9.29-19.34-20.76v-.16c0-11.47,8.2-20.6,19.25-20.6,6.09,0,10.7,2.29,15.03,5.91.84.7,2.08.6,2.79-.22l4.02-4.64c.72-.83.64-2.09-.19-2.82-5.3-4.63-11.61-7.78-21.56-7.78-17.67,0-30.15,13.65-30.15,30.31v.17c0,16.83,12.64,30.15,29.81,30.15,10.12,0,16.6-3.42,22.34-8.95.81-.77.82-2.06.04-2.86l-3.88-3.92Z"/>
            <path class="cls-17" d="M2238.82,207.54c-18.01,0-30.73,13.81-30.73,30.31v.17c0,16.5,12.56,30.15,30.56,30.15s30.73-13.82,30.73-30.32v-.16c0-16.5-12.56-30.15-30.56-30.15ZM2258.57,238.02c0,11.38-8.12,20.59-19.76,20.59s-19.93-9.37-19.93-20.76v-.16c0-11.39,8.12-20.6,19.76-20.6s19.93,9.37,19.93,20.76v.17Z"/>
            <path class="cls-17" d="M2335.27,210.54v54.62c0,1.1-.89,2-2,2h-6.3c-1.1,0-2-.9-2-2v-40.03l-18.08,26.99c-.52.52-.99.17-1.14.04,0-.01-.02-.03-.03-.04h0l-17.92-26.83v39.87c0,1.1-.9,2-2,2h-6.13c-1.11,0-2-.9-2-2v-54.62c0-1.1.89-2,2-2h7.87c.68,0,1.31.35,1.68.92l17.25,26.8,17.25-26.8c.37-.57,1-.92,1.68-.92h7.87c1.11,0,2,.9,2,2Z"/>
            <path class="cls-17" d="M2387.11,208.54c-1.1,0-2,.9-2,2v31.75c0,10.8-5.61,16.24-14.74,16.24s-14.82-5.78-14.82-16.66v-31.33c0-1.1-.9-2-2-2h-6.3c-1.1,0-2,.9-2,2v31.75c0,17,9.72,25.79,24.95,25.79s25.2-8.79,25.2-26.29v-31.24c0-1.1-.9-2-2-2h-6.29Z"/>
            <path class="cls-17" d="M2223.64,281.09v56.03c0,.55-.45,1-1,1h-4.45c-.49,0-.96-.18-1.32-.5l-2.28-2.02h0l-.64-.58-6.66-6.01-38.94-35.08c-1.29-1.16-3.34-.25-3.34,1.49v40.7c0,1.1-.9,2-2,2h-5.7c-1.1,0-2-.9-2-2v-52.1c0-1.1.9-2,2-2h7.61c.49,0,.97.18,1.34.51l46.03,41.48c.64.58,1.67.12,1.67-.74v-42.19c0-1.1.9-2,2-2h5.7c1.1,0,2,.9,2,2Z"/>
            <path class="cls-17" d="M2241.7,281.51v54.62c0,1.1.9,2,2,2h6.3c1.1,0,2-.9,2-2v-54.62c0-1.1-.9-2-2-2h-6.3c-1.1,0-2,.9-2,2Z"/>
            <path class="cls-17" d="M2317.69,322.4c-.74-.75-1.94-.8-2.73-.1-4.51,3.94-8.91,6.28-15.44,6.28-11.22,0-19.34-9.29-19.34-20.76v-.16c0-11.47,8.2-20.6,19.26-20.6,6.08,0,10.69,2.29,15.02,5.91.84.7,2.08.6,2.79-.22l4.02-4.64c.72-.83.64-2.09-.19-2.82-5.3-4.63-11.61-7.78-21.56-7.78-17.67,0-30.15,13.65-30.15,30.31v.17c0,16.83,12.64,30.15,29.81,30.15,10.12,0,16.6-3.42,22.34-8.95.81-.77.82-2.06.04-2.86l-3.88-3.92Z"/>
            <path class="cls-17" d="M2368.3,279.09h-6.93c-.79,0-1.51.47-1.83,1.2l-24.04,55.03c-.58,1.32.39,2.8,1.83,2.8h6.17c.8,0,1.53-.48,1.84-1.22l4.99-11.72c.31-.74,1.04-1.22,1.84-1.22h25.07c.81,0,1.53.48,1.84,1.23l4.91,11.7c.31.74,1.04,1.23,1.84,1.23h6.5c1.44,0,2.41-1.48,1.83-2.8l-24.04-55.03c-.32-.73-1.04-1.2-1.83-1.2ZM2355.81,312.06l7.02-16.39c.69-1.61,2.98-1.62,3.67,0l7.08,16.39c.57,1.32-.4,2.79-1.84,2.79h-14.1c-1.44,0-2.4-1.47-1.84-2.79Z"/>
          </g>
        </g>
        <path class="cls-14" d="M2305.72,252.12h-.01.01Z"/>
      </g>
    </g>
  </g>
</svg>