<?xml version="1.0" encoding="UTF-8"?>
<svg xmlns="http://www.w3.org/2000/svg" viewBox="0 0 6692.87 1105.91">
  <defs>
    <style>
      .cls-1 {
        fill: #fcda2a;
      }

      .cls-2 {
        fill: #ee3f95;
      }

      .cls-3, .cls-4 {
        fill: #e7d04f;
      }

      .cls-5 {
        fill: #070a25;
      }

      .cls-6 {
        fill: #fbba00;
      }

      .cls-7 {
        fill: #0d4574;
      }

      .cls-8 {
        fill: #190e60;
      }

      .cls-9 {
        fill: #ff6142;
      }

      .cls-10 {
        opacity: .7;
      }

      .cls-10, .cls-11, .cls-12 {
        mix-blend-mode: multiply;
      }

      .cls-10, .cls-12 {
        fill: #e6c378;
      }

      .cls-13 {
        fill: #76b82f;
      }

      .cls-14 {
        fill: #0069b4;
      }

      .cls-15 {
        isolation: isolate;
      }

      .cls-16 {
        fill: #ffba29;
      }

      .cls-17 {
        fill: #fff;
      }

      .cls-18 {
        fill: #f9f9f9;
      }

      .cls-19 {
        fill: #7286ff;
      }

      .cls-20 {
        opacity: .54;
      }

      .cls-21 {
        fill: #97d7ff;
      }

      .cls-11 {
        fill: #c6991a;
      }

      .cls-22 {
        fill: #00ac9b;
      }

      .cls-23 {
        fill: #76b82a;
      }

      .cls-24 {
        fill: #ff9d87;
      }

      .cls-25 {
        fill: #d29319;
      }

      .cls-4 {
        mix-blend-mode: screen;
      }

      .cls-26 {
        fill: #d2921a;
      }
    </style>
  </defs>
  <g class="cls-15">
    <g id="Camada_2" data-name="Camada 2">
      <g id="Camada_2-2" data-name="Camada 2">
        <g>
          <g class="cls-20">
            <g>
              <g>
                <g>
                  <path class="cls-3" d="M1351.62,353.4c-179.6-40.78-248.58-34.76-421.09,33.64-7.31-14.2-17.13-27.35-23.65-41.87,180.64-79.27,267.94-82.18,454.45-37.95-3.28,15.39-6.52,30.78-9.71,46.18Z"/>
                  <path class="cls-4" d="M1357.59,324.79c-186.23-43.48-261.41-37.33-441.46,36.31-.9-1.32-1.81-2.63-2.72-3.95,181.29-74.18,257.65-81.4,445.14-36.93-.32,1.52-.65,3.05-.97,4.57Z"/>
                  <path class="cls-12" d="M1359.97,313.59c-185.33-43.95-271.2-40.82-450.38,37.77-.89-2.07-1.74-4.16-2.71-6.2,180.64-79.27,267.94-82.18,454.45-37.95-.45,2.12-.9,4.25-1.36,6.37Z"/>
                  <path class="cls-10" d="M1351.62,353.4c-179.6-40.78-248.58-34.76-421.09,33.64-2.84-5.05-4.3-10.59-7.46-15.5,173.59-73.02,252.1-75.48,431.97-34.63-1.14,5.5-2.28,11-3.42,16.5Z"/>
                  <path class="cls-11" d="M914.81,341.68c-2.64,1.16-5.29,2.32-7.93,3.48,6.51,14.53,16.34,27.67,23.65,41.87,2.15-.84,4.3-1.7,6.43-2.59-6.04-15.06-15.67-27.92-22.14-42.77Z"/>
                  <path class="cls-11" d="M1352.46,305.12c-3.29,15.42-6.29,30.89-9.49,46.32,2.88.65,5.77,1.31,8.65,1.96,3.19-15.4,6.43-30.8,9.71-46.18-2.96-.7-5.91-1.4-8.87-2.1Z"/>
                </g>
                <path class="cls-25" d="M936.32,389.21c-3.75,1.46-7.49,2.93-11.24,4.38-9.2-16.36-21.19-31.72-28.96-48.74,4.58-1.83,9.15-3.68,13.67-5.66,8.09,16.91,17.36,33.7,26.53,50.01Z"/>
                <g>
                  <path class="cls-1" d="M907.51,346.06c.57,1.28-.65,2.45-1.77,2.94-1.12.49-2.74.57-3.34-.7-.6-1.26.61-2.41,1.71-2.89,1.09-.48,2.83-.62,3.4.65Z"/>
                  <path class="cls-1" d="M915.18,359.41c.71,1.06-.05,2.1-1.13,2.53-1.08.43-2.63.35-3.34-.71-.71-1.06.07-2.08,1.15-2.5,1.07-.43,2.62-.38,3.33.68Z"/>
                  <path class="cls-1" d="M923.62,372.1c.67,1.06-.09,2.08-1.15,2.52-1.05.43-2.53.36-3.2-.7-.66-1.06.09-2.08,1.14-2.52,1.05-.44,2.54-.36,3.2.69Z"/>
                  <path class="cls-1" d="M930.16,386.06c.58,1.05-.05,2.04-1.09,2.45-1.04.41-2.37.16-2.94-.87-.57-1.04.03-2.03,1.08-2.46,1.06-.43,2.37-.17,2.95.88Z"/>
                </g>
                <path class="cls-25" d="M1355.11,358.44c-3.13-.71-6.26-1.42-9.4-2.13,3.75-18.13,7.43-36.27,11.29-54.37,3.22.77,6.44,1.54,9.67,2.26-3.83,18.09-7.81,36.14-11.56,54.25Z"/>
                <g>
                  <path class="cls-1" d="M1362.47,308.55c-.21,1-1.09,1.69-2.12,1.45-1.03-.24-1.56-1.26-1.35-2.27.21-1.01,1.12-1.67,2.14-1.43,1.02.24,1.55,1.25,1.33,2.25Z"/>
                  <path class="cls-1" d="M1359.36,323.22c-.21,1.01-1.11,1.71-2.15,1.47-1.03-.24-1.56-1.27-1.35-2.28.21-1.01,1.11-1.67,2.14-1.43,1.02.24,1.57,1.22,1.36,2.23Z"/>
                  <path class="cls-1" d="M1356.2,337.93c-.2.99-1.05,1.71-2.07,1.48-1.02-.23-1.52-1.25-1.32-2.24.2-.99,1.06-1.7,2.09-1.47,1.02.23,1.5,1.26,1.3,2.24Z"/>
                  <path class="cls-1" d="M1353.15,352.67c-.2.98-1.05,1.69-2.07,1.46-1.02-.23-1.52-1.24-1.32-2.23.2-.99,1.06-1.7,2.09-1.47,1.02.23,1.5,1.26,1.3,2.24Z"/>
                </g>
              </g>
              <g>
                <g>
                  <path class="cls-3" d="M917.93,391.95c-182.86,71.33-235.56,4.3-391.06-72.9,8.41-14.15,16.82-28.31,25.24-42.46,156.81,77.93,155.12,132.12,341.48,73.64,7.09,14.43,16.47,27.71,24.34,41.72Z"/>
                  <path class="cls-4" d="M902.75,366.4c-187.33,61.74-201.94,5.05-360.26-73.63.84-1.41,1.67-2.81,2.51-4.22,157.25,78.12,168.75,135.16,355.32,73.7.81,1.38,1.62,2.77,2.43,4.15Z"/>
                  <path class="cls-12" d="M896.79,356.24c-184.99,60.94-192.75,3.48-348.17-73.79,1.16-1.96,2.32-3.91,3.49-5.87,156.81,77.93,155.12,132.12,341.48,73.64,1,2.05,2.05,4.04,3.2,6.01Z"/>
                  <path class="cls-10" d="M917.93,391.95c-182.86,71.33-235.56,4.3-391.06-72.9,3-5.05,6-10.09,9-15.14,158.89,78.89,186.15,138.35,373.48,73.33,3.23,4.69,5.79,9.75,8.58,14.71Z"/>
                  <path class="cls-11" d="M557.18,279.1c-1.69-.84-3.38-1.68-5.06-2.52-8.41,14.15-16.83,28.31-25.24,42.46,1.69.83,3.37,1.68,5.06,2.51,8.41-14.15,16.82-28.3,25.24-42.46Z"/>
                  <path class="cls-11" d="M884.69,353.03c7.1,14.46,15,28.91,22.9,42.96,3.45-1.35,6.9-2.69,10.35-4.04-7.87-14.01-17.26-27.28-24.34-41.72-2.97.93-5.94,1.86-8.91,2.79Z"/>
                </g>
                <path class="cls-25" d="M527.7,324.28c-3.04-1.51-6.08-3.02-9.11-4.53,9.89-16.64,19.78-33.28,29.67-49.92,3.04,1.51,6.08,3.02,9.12,4.53-9.89,16.64-19.78,33.27-29.67,49.91Z"/>
                <g>
                  <path class="cls-1" d="M551.68,277.58c-.54.91-1.66,1.39-2.65.9-.99-.49-1.17-1.61-.63-2.53.54-.91,1.67-1.37,2.65-.88.98.49,1.17,1.6.62,2.51Z"/>
                  <path class="cls-1" d="M543.64,291.1c-.54.91-1.67,1.4-2.66.91-.99-.49-1.16-1.62-.62-2.54.54-.91,1.67-1.37,2.65-.88.98.49,1.17,1.6.63,2.51Z"/>
                  <path class="cls-1" d="M535.6,304.63c-.54.91-1.66,1.39-2.65.89-.99-.49-1.17-1.61-.63-2.52.55-.92,1.67-1.38,2.65-.89.99.49,1.16,1.61.62,2.52Z"/>
                  <path class="cls-1" d="M527.55,318.16c-.54.91-1.66,1.37-2.64.88-.98-.49-1.18-1.6-.63-2.51.54-.91,1.67-1.38,2.65-.89.98.49,1.16,1.61.62,2.52Z"/>
                </g>
                <path class="cls-25" d="M925.15,393.57c-3.75,1.46-7.5,2.92-11.24,4.38-9.3-16.54-19.12-33-27.48-50.03,3.26-1.02,6.57-1.93,9.78-3.1,7.6,17.04,19.76,32.42,28.94,48.74Z"/>
                <g>
                  <path class="cls-1" d="M895.42,350.79c.47.95.21,2.02-.85,2.36-1.06.34-2.16-.31-2.63-1.26-.47-.95-.19-2.01.86-2.34,1.05-.34,2.15.3,2.62,1.25Z"/>
                  <path class="cls-1" d="M903.12,364.24c.54.92.27,1.93-.77,2.28-1.04.35-2.22-.19-2.76-1.11s-.24-1.91.79-2.25c1.03-.34,2.2.16,2.74,1.08Z"/>
                  <path class="cls-1" d="M911.52,377.16c.7,1.07-.05,2.06-1.14,2.52-1.09.46-2.4.1-2.97-.92-.58-1.02-.27-1.87.79-2.3,1.06-.43,2.62-.37,3.32.7Z"/>
                  <path class="cls-1" d="M918.98,390.42c.57,1.03-.05,2.04-1.09,2.44-1.04.4-2.38.16-2.95-.87-.57-1.03.04-2.05,1.09-2.46,1.04-.4,2.38-.15,2.95.88Z"/>
                </g>
              </g>
            </g>
            <g>
              <g>
                <g>
                  <path class="cls-3" d="M2189.37,342.04c-135.4,26.26-268.55,55.37-406.22,66.66-1.07-15.81-2.24-31.63-3.53-47.43,135.75-9.71,267.01-39.9,400.36-65.76,3.13,15.51,6.26,31.02,9.39,46.53Z"/>
                  <path class="cls-4" d="M2183.56,313.25c-134.18,26-266.1,55.41-402.58,66.15-.11-1.58-.23-3.15-.34-4.73,136.29-10.73,267.99-40.07,401.99-66.03.31,1.54.62,3.08.93,4.62Z"/>
                  <path class="cls-12" d="M2181.28,301.94c-133.67,25.91-265.12,55.64-401.13,65.88-.16-2.18-.34-4.36-.52-6.54,135.75-9.71,267.01-39.9,400.36-65.76.43,2.14.86,4.29,1.3,6.43Z"/>
                  <path class="cls-10" d="M2189.37,342.04c-135.4,26.26-268.55,55.37-406.22,66.66-.38-5.61-.78-11.23-1.25-16.83,136.97-10.99,269.43-40.32,404.12-66.42,1.12,5.53,2.23,11.06,3.35,16.59Z"/>
                  <path class="cls-11" d="M1785.54,360.85c-1.97.14-3.95.28-5.92.42,1.29,15.8,2.46,31.62,3.53,47.43,2.02-.17,4.04-.33,6.06-.49-1.2-15.79-2.38-31.58-3.66-47.36Z"/>
                  <path class="cls-11" d="M2170.32,297.38c3.13,15.52,6.33,31.02,9.38,46.55,3.22-.64,6.45-1.26,9.68-1.89-3.13-15.51-6.26-31.02-9.39-46.53-3.22.63-6.44,1.25-9.66,1.87Z"/>
                </g>
                <path class="cls-25" d="M1787.1,412.55c-3.67.3-7.34.61-11.01.91-1.25-18.57-2.44-37.14-3.86-55.7,3.54-.35,7.08-.63,10.62-.89,1.46,18.55,2.97,37.11,4.25,55.67Z"/>
                <g>
                  <path class="cls-1" d="M1779.85,362.3c.09,1.08-.68,1.96-1.76,2.04-1.08.08-1.98-.66-2.06-1.75-.08-1.08.68-1.96,1.76-2.04,1.08-.08,1.98.67,2.06,1.75Z"/>
                  <path class="cls-1" d="M1780.98,377.44c.08,1.1-.7,2-1.8,2.09-1.1.08-1.99-.69-2.07-1.78-.08-1.1.71-1.97,1.79-2.05s1.99.65,2.07,1.75Z"/>
                  <path class="cls-1" d="M1782.11,392.6c.09,1.1-.7,1.97-1.79,2.05-1.09.09-2-.65-2.09-1.74-.08-1.1.69-1.96,1.78-2.05,1.09-.09,2.01.64,2.1,1.74Z"/>
                  <path class="cls-1" d="M1783.23,407.65c.08,1.11-.77,1.96-1.85,2.05-1.09.09-2.03-.61-2.1-1.72-.08-1.11.76-1.97,1.85-2.07,1.09-.09,2.03.63,2.11,1.74Z"/>
                </g>
                <path class="cls-25" d="M2195.03,345.19c-3.51.68-7.02,1.38-10.52,2.07-3.55-18.27-7.33-36.5-11.01-54.74,3.5-.68,7-1.36,10.5-2.03,3.68,18.23,7.36,36.47,11.04,54.7Z"/>
                <g>
                  <path class="cls-1" d="M2181.66,296.25c.21,1.06-.44,2.03-1.5,2.24-1.07.21-2.06-.44-2.28-1.51-.21-1.07.46-2.03,1.52-2.23,1.06-.2,2.04.43,2.26,1.5Z"/>
                  <path class="cls-1" d="M2184.65,311.07c.21,1.06-.43,2.05-1.5,2.25-1.07.21-2.06-.45-2.28-1.52-.22-1.07.46-2.02,1.52-2.23,1.06-.21,2.04.43,2.26,1.49Z"/>
                  <path class="cls-1" d="M2187.64,325.9c.22,1.07-.44,2.03-1.5,2.24-1.07.21-2.06-.43-2.28-1.5-.22-1.07.45-2.03,1.52-2.24,1.07-.21,2.04.44,2.26,1.51Z"/>
                  <path class="cls-1" d="M2190.63,340.73c.21,1.06-.44,2.02-1.51,2.22-1.06.2-2.06-.42-2.27-1.49-.22-1.07.46-2.03,1.52-2.24,1.06-.21,2.04.44,2.26,1.51Z"/>
                </g>
              </g>
              <g>
                <g>
                  <path class="cls-3" d="M1770.82,409.73c-140.37,11.72-274.99-23.58-410.64-54.39,3.19-15.4,6.77-30.72,10.03-46.11,130.65,29.33,262.32,66.57,397.49,53.15.95,15.79,2.06,31.57,3.12,47.35Z"/>
                  <path class="cls-4" d="M1768.92,380.46c-137.01,12.95-270.12-23.62-402.48-53.67.34-1.52.68-3.05,1.01-4.58,132.07,29.71,264.46,66.44,401.13,53.52.11,1.57.23,3.15.34,4.72Z"/>
                  <path class="cls-12" d="M1768.09,368.9c-135.8,13.46-267.99-23.82-399.23-53.3.45-2.12.9-4.24,1.35-6.36,130.65,29.33,262.32,66.57,397.49,53.15.13,2.17.26,4.35.39,6.52Z"/>
                  <path class="cls-10" d="M1770.82,409.73c-140.37,11.72-274.99-23.58-410.64-54.39,1.14-5.5,2.31-10.99,3.54-16.47,134.01,30.41,267.33,65.86,406,54.01.34,5.62.72,11.23,1.1,16.85Z"/>
                  <path class="cls-11" d="M1375.63,310.45c-1.81-.4-3.62-.81-5.43-1.22-3.26,15.39-6.84,30.71-10.03,46.11,1.74.39,3.48.79,5.22,1.19,3.45-15.35,6.97-30.69,10.23-46.08Z"/>
                  <path class="cls-11" d="M1757.85,363.36c.95,15.74,1.87,31.49,2.87,47.23,3.36-.29,6.73-.57,10.09-.85-1.06-15.78-2.17-31.56-3.12-47.35-3.28.33-6.56.65-9.84.98Z"/>
                </g>
                <path class="cls-25" d="M1362.47,360.11c-3.13-.71-6.27-1.42-9.4-2.13,3.75-18.1,7.65-36.17,11.48-54.26,3.26.73,6.51,1.46,9.77,2.19-3.83,18.09-8.1,36.09-11.85,54.2Z"/>
                <g>
                  <path class="cls-1" d="M1370.12,310.27c-.21,1.01-1.11,1.69-2.14,1.46-1.04-.23-1.58-1.23-1.37-2.25.22-1.01,1.12-1.68,2.15-1.45,1.03.23,1.57,1.22,1.36,2.23Z"/>
                  <path class="cls-1" d="M1367,324.94c-.23,1.01-1.12,1.71-2.16,1.48-1.04-.24-1.55-1.25-1.34-2.26.21-1.01,1.12-1.67,2.15-1.44,1.03.23,1.57,1.22,1.35,2.23Z"/>
                  <path class="cls-1" d="M1363.68,339.63c-.23,1.01-1.12,1.69-2.15,1.46-1.03-.24-1.55-1.24-1.33-2.25.23-1.01,1.13-1.69,2.16-1.46,1.03.23,1.55,1.24,1.32,2.25Z"/>
                  <path class="cls-1" d="M1360.51,354.35c-.2.99-1.05,1.69-2.07,1.46-1.02-.23-1.52-1.24-1.31-2.23.2-.99,1.05-1.71,2.08-1.47,1.02.23,1.5,1.26,1.3,2.24Z"/>
                </g>
                <path class="cls-25" d="M1776.16,413.46c-3.67.31-7.34.61-11.01.91-1.18-18.52-2.37-37.04-3.48-55.57,3.54-.35,7.08-.7,10.62-1.05,1.43,18.56,2.61,37.13,3.87,55.7Z"/>
                <g>
                  <path class="cls-1" d="M1769.25,363.26c.07,1.09-.72,1.98-1.8,2.09-1.08.11-1.97-.62-2.04-1.71-.07-1.09.74-1.97,1.81-2.08,1.07-.11,1.97.61,2.03,1.7Z"/>
                  <path class="cls-1" d="M1770.29,378.38c.08,1.09-.7,2.01-1.79,2.11-1.09.1-2-.65-2.08-1.75s.72-1.98,1.8-2.08c1.08-.1,1.99.62,2.07,1.72Z"/>
                  <path class="cls-1" d="M1771.29,393.49c.07,1.11-.75,1.97-1.84,2.07-1.09.09-2.02-.63-2.09-1.73s.77-1.97,1.85-2.07c1.09-.09,2,.63,2.07,1.73Z"/>
                  <path class="cls-1" d="M1772.28,408.55c.08,1.11-.76,1.96-1.85,2.05-1.09.09-2.03-.61-2.11-1.72-.08-1.11.76-1.98,1.85-2.07,1.09-.09,2.03.63,2.1,1.74Z"/>
                </g>
              </g>
            </g>
          </g>
          <g>
            <g>
              <circle class="cls-5" cx="2049.24" cy="243.43" r="167.13"/>
              <g>
                <g>
                  <g>
                    <path class="cls-24" d="M1622.76,832.02c-49.41-96.52,202.91-377.67,202.91-377.67l-19.76-17.43,56.02-60.66s59.63,36.26,47.43,61.48c-8.59,17.75-18.72,21.05-18.72,21.05-15.27,47.6-113.64,282.26-113.64,282.26,0,0-132.47,133.53-154.25,90.97Z"/>
                    <g>
                      <path class="cls-26" d="M1776.6,401.27c-.23,19.35,44.66,51.99,58.88,42.59,14.22-9.4,69.77-81.58,69.77-81.58l-57.09-62.95s-71.33,82.49-71.56,101.94Z"/>
                      <g>
                        <path class="cls-24" d="M1835.68,286.39c-8.77.13-24.78,33.16-24.78,33.16l24.8-8.17s10.73-25.15-.01-24.99Z"/>
                        <path class="cls-24" d="M1850.46,284.84c-8.77.13-24.78,33.16-24.78,33.16l24.8-8.17s10.73-25.15-.01-24.99Z"/>
                        <path d="M1810.89,321.05c.56,0,1.09-.31,1.35-.85,6.04-12.45,17.75-32.23,23.46-32.32,1.48-.02,2.11.6,2.43,1.08,2.44,3.64-1.05,15.32-3.82,21.82-.33.76.03,1.64.79,1.97.76.32,1.64-.03,1.97-.79.8-1.88,7.69-18.5,3.55-24.67-.75-1.12-2.12-2.44-4.96-2.41-9.22.14-23.37,28.35-26.11,34.01-.36.75-.05,1.64.69,2,.21.1.43.15.65.15Z"/>
                      </g>
                    </g>
                  </g>
                  <path d="M1777.01,742.54c.59,0,1.14-.35,1.38-.92l9.04-21.63c.32-.76-.04-1.64-.81-1.96-.76-.32-1.64.04-1.96.81l-9.04,21.63c-.32.76.04,1.64.81,1.96.19.08.39.12.58.12Z"/>
                </g>
                <g>
                  <path class="cls-24" d="M2044.65,353.75c-.46,4.32,2.32,112.16,2.32,112.16l-111.72,78.79,18.55-88.46,90.85-102.48Z"/>
                  <path d="M2028.07,403.07c-8.2,30.81-27.64,47.96-76.39,61.19l2.44-13.39c-.44-2.78,77.08-76.86,77.08-76.86l-3.13,29.06Z"/>
                </g>
                <g>
                  <g>
                    <path class="cls-24" d="M2032.75,324.46c-2.44,17.2,9.54,33.12,26.74,35.56,17.2,2.44,33.12-9.54,35.56-26.74,2.44-17.2-9.54-33.12-26.74-35.56-17.2-2.44-33.12,9.54-35.56,26.74Z"/>
                    <g>
                      <path d="M2051.33,331.67c.74,0,1.38-.54,1.48-1.29,1.12-7.92,8.49-13.44,16.39-12.32.83.11,1.58-.46,1.7-1.27.12-.82-.45-1.58-1.27-1.7-9.59-1.35-18.43,5.32-19.78,14.87-.12.82.45,1.58,1.27,1.7.07.01.14.01.21.01Z"/>
                      <path d="M2066.95,343.98c.75,0,1.39-.55,1.49-1.31,1.62-12.82-10.69-22.74-11.22-23.16-.65-.52-1.59-.4-2.11.24-.51.65-.41,1.59.24,2.11.12.09,11.52,9.3,10.11,20.43-.1.82.48,1.57,1.3,1.68.06,0,.13.01.19.01Z"/>
                    </g>
                  </g>
                  <path class="cls-24" d="M1849.07,342.89c6.69,64.99,47.76,114.02,110.31,107.57,62.54-6.45,92.76-62.82,86.07-127.79-6.69-64.99-47.76-114.01-110.31-107.57-62.55,6.44-92.77,62.8-86.07,127.79Z"/>
                  <g>
                    <g>
                      <path d="M1978.14,300.08c2.95-.72,4.75-3.7,4.03-6.65-.72-2.95-3.7-4.75-6.65-4.03l-15.26,3.75c-2.95.72-4.75,3.7-4.03,6.65.72,2.95,3.7,4.76,6.65,4.03l15.26-3.75Z"/>
                      <path d="M1863.56,316.11c-3.04-.11-5.41-2.66-5.3-5.69.11-3.04,2.66-5.41,5.69-5.3l15.71.56c3.04.11,5.41,2.66,5.3,5.69-.11,3.04-2.66,5.41-5.69,5.3l-15.71-.56Z"/>
                    </g>
                    <path d="M1936.07,369.74c.34,0,.68-.02,1.02-.05.82-.08,1.42-.82,1.34-1.65-.09-.82-.8-1.43-1.65-1.34-3.78.4-7.12-2.35-7.51-6.11-.19-1.82.34-3.6,1.5-5.02,1.15-1.42,2.79-2.3,4.61-2.49.82-.08,1.42-.82,1.34-1.65-.09-.82-.82-1.41-1.65-1.34-2.62.27-4.97,1.54-6.63,3.58-1.66,2.04-2.42,4.6-2.16,7.22.52,5.06,4.81,8.84,9.79,8.84Z"/>
                    <path class="cls-2" d="M1928.78,404.67c.46,4.5,5.96,7.63,12.28,6.98,6.32-.65,11.06-4.83,10.6-9.33-.46-4.5-5.96-7.63-12.28-6.98-6.32.65-11.06,4.83-10.6,9.33Z"/>
                    <path d="M1936.91,405.17c1.1,0,2.26-.05,3.47-.18,10.31-1.06,16.42-6.33,16.67-6.55.62-.55.68-1.49.14-2.11-.54-.62-1.49-.69-2.12-.14-.06.05-5.69,4.86-15,5.82-9.33.97-15.07-2.63-15.12-2.67-.69-.45-1.62-.24-2.07.45-.45.7-.24,1.62.45,2.07.24.15,5.27,3.31,13.58,3.31Z"/>
                  </g>
                  <g>
                    <path d="M1966.47,334.35c.59,5.69,2.72,10.13,8.41,9.54,5.69-.59,6.87-5.37,6.29-11.06-.59-5.69-2.72-10.13-8.41-9.54-5.69.59-6.87,5.37-6.29,11.06Z"/>
                    <path d="M1958.2,335.67c.5,0,.99-.25,1.28-.71,5.13-8.29,22.99-14.63,39.2-10.7.8.2,1.62-.3,1.81-1.1.19-.81-.3-1.62-1.1-1.81-17.95-4.34-36.77,2.86-42.46,12.04-.44.7-.22,1.63.48,2.06.25.15.52.23.79.23Z"/>
                  </g>
                  <g>
                    <path d="M1874.52,343.23c.99,5.63.15,10.49-5.48,11.48-5.63.99-8.08-3.29-9.07-8.92-.99-5.63-.15-10.49,5.48-11.48,5.63-.99,8.08,3.29,9.07,8.92Z"/>
                    <path d="M1855.36,340.52c.27,0,.54-.07.78-.22,10.84-6.61,28.86-5.06,41.05-.1.77.31,1.64-.06,1.96-.82s-.06-1.64-.82-1.96c-12.89-5.24-32.05-6.81-43.74.32-.71.43-.93,1.35-.5,2.06.28.46.78.72,1.28.72Z"/>
                  </g>
                  <path d="M1951.01,453.98c3.49,0,7.01-.18,10.55-.55.82-.08,1.42-.82,1.34-1.65-.09-.82-.83-1.41-1.65-1.34-29.44,3.05-56.17-6.47-77.28-27.51-20.02-19.95-32.87-48.58-36.17-80.61-.09-.82-.82-1.4-1.65-1.34-.82.08-1.42.82-1.34,1.65,3.37,32.72,16.52,61.99,37.03,82.43,18.92,18.85,43.16,28.91,69.15,28.91Z"/>
                </g>
                <path class="cls-5" d="M2043.32,305.11c-19.16,4.98-117.88-21.17-132.3-56.97,0,0-11.82,63.31-62.79,72.54,0,0-22.12-96.39,84.1-111.86,106.23-15.47,129.9,91.37,110.99,96.29Z"/>
                <g>
                  <path class="cls-24" d="M1780.35,389.36c-.45-9.75,2.06-23.34,7.78-36.22,2.96-6.67,8.79-19.9,17.36-29.85,7.98-9.27,31.89-19.58,40-16.18,11.47,4.81-29.92,31.91-29.92,31.91l-35.22,50.33Z"/>
                  <path d="M1788.28,354.54c.52,0,.98-.26,1.22-.79l.12-.26c3.04-6.84,8.69-19.57,17.01-29.22,7.9-9.17,31.16-18.75,38.28-15.78.77.33,1.64-.04,1.96-.8.32-.76-.04-1.64-.8-1.96-8.89-3.73-33.52,7.07-41.72,16.59-8.6,9.98-14.37,22.98-17.47,29.96-.34.76-.05,1.78.7,2.11.23.1.47.16.7.16Z"/>
                </g>
                <path class="cls-16" d="M2063.9,401.99c13.71,0,24.87-11.16,24.87-24.87,0-.83-.67-1.5-1.5-1.5-.83,0-1.5.67-1.5,1.5,0,12.06-9.81,21.87-21.87,21.87-12.06,0-21.87-9.81-21.87-21.87,0-12.06,9.81-21.87,21.87-21.87.83,0,1.5-.67,1.5-1.5,0-.83-.67-1.5-1.5-1.5-13.71,0-24.87,11.16-24.87,24.87,0,13.71,11.16,24.87,24.87,24.87Z"/>
              </g>
              <g>
                <path class="cls-7" d="M2057.2,436.73c1.22,14.35,3.17,23.96,3.17,23.96,0,0,93.77-40.42,155.79-18.8v432.28s-383.4-23.01-383.4-23.01c0,0-23.26-221.72,4.23-245.42,27.49-23.71,98.26-61.03,98.26-61.03l3.7-43.91c.8-9.44,5.85-18,13.72-23.27l88.59-50.29c7.17-3.11,15.27,1.71,15.93,9.5Z"/>
                <g>
                  <path d="M2046.31,473.8s.09,0,.14,0c.82-.07,1.43-.81,1.36-1.63l-3.13-34.37c-.08-.82-.8-1.44-1.63-1.36-.82.07-1.43.81-1.36,1.63l3.13,34.37c.07.78.73,1.36,1.49,1.36Z"/>
                  <path d="M2031.2,482.94s.09,0,.14,0c.82-.07,1.43-.81,1.36-1.63l-3.13-34.37c-.08-.82-.8-1.43-1.63-1.36-.82.07-1.43.81-1.36,1.63l3.13,34.37c.07.78.73,1.36,1.49,1.36Z"/>
                  <path d="M2016.95,490.98s.09,0,.14,0c.82-.07,1.43-.81,1.36-1.63l-3.13-34.37c-.08-.82-.8-1.44-1.63-1.36-.82.07-1.43.81-1.36,1.63l3.13,34.37c.07.78.73,1.36,1.49,1.36Z"/>
                  <path d="M2003.18,500.12s.09,0,.14,0c.82-.07,1.43-.81,1.36-1.63l-3.13-34.37c-.08-.82-.79-1.43-1.63-1.36-.82.07-1.43.81-1.36,1.63l3.13,34.37c.07.78.73,1.36,1.49,1.36Z"/>
                  <path d="M1987.47,508.16s.09,0,.14,0c.82-.07,1.43-.81,1.36-1.63l-3.13-34.37c-.08-.82-.8-1.42-1.63-1.36-.82.07-1.43.81-1.36,1.63l3.13,34.37c.07.78.73,1.36,1.49,1.36Z"/>
                  <path d="M1971.77,520.01s.09,0,.14,0c.82-.07,1.43-.81,1.36-1.63l-3.13-34.37c-.08-.82-.8-1.44-1.63-1.36-.82.07-1.43.81-1.36,1.63l3.13,34.37c.07.78.73,1.36,1.49,1.36Z"/>
                  <path d="M1956.06,531.85s.09,0,.14,0c.82-.07,1.43-.81,1.36-1.63l-3.13-34.37c-.08-.82-.8-1.42-1.63-1.36-.82.07-1.43.81-1.36,1.63l3.13,34.37c.07.78.73,1.36,1.49,1.36Z"/>
                </g>
              </g>
              <g>
                <path d="M1474,845.64h431.24s-26.74-228.16-26.74-228.16c-2.97-25.34-24.45-44.45-49.96-44.45h-329.94c-30.1,0-53.47,26.26-49.96,56.16l25.37,216.45Z"/>
                <path class="cls-17" d="M1484.9,573.03h329.94c25.52,0,46.99,19.1,49.96,44.45l26.74,228.16h.57l14.04,16.68h-429.17c-9.21,0-16.68-7.47-16.68-16.68h0s-25.37-216.45-25.37-216.45c-3.51-29.9,19.86-56.16,49.96-56.16Z"/>
                <path d="M1853.17,832.11c.06,0,.13,0,.2-.01.82-.11,1.4-.86,1.29-1.68l-3.57-27.14c-.11-.82-.85-1.41-1.68-1.29-.82.11-1.4.86-1.29,1.68l3.57,27.14c.1.75.74,1.3,1.49,1.3Z"/>
                <path d="M1843.72,832.11c.06,0,.13,0,.2-.01.82-.11,1.4-.86,1.29-1.68l-3.57-27.14c-.11-.82-.83-1.41-1.68-1.29-.82.11-1.4.86-1.29,1.68l3.57,27.14c.1.75.74,1.3,1.49,1.3Z"/>
                <path d="M1834.28,832.11c.06,0,.13,0,.2-.01.82-.11,1.4-.86,1.29-1.68l-3.57-27.14c-.11-.82-.86-1.41-1.68-1.29-.82.11-1.4.86-1.29,1.68l3.57,27.14c.1.76.74,1.31,1.49,1.31Z"/>
                <path d="M1824.83,832.11c.06,0,.13,0,.2-.01.82-.11,1.4-.86,1.29-1.68l-3.57-27.14c-.11-.82-.84-1.41-1.68-1.29-.82.11-1.4.86-1.29,1.68l3.57,27.14c.1.75.74,1.3,1.49,1.3Z"/>
                <path d="M1815.38,832.11c.06,0,.13,0,.2-.01.82-.11,1.4-.86,1.29-1.68l-3.57-27.14c-.11-.82-.84-1.41-1.68-1.29-.82.11-1.4.86-1.29,1.68l3.57,27.14c.1.75.74,1.3,1.49,1.3Z"/>
                <path class="cls-18" d="M1686.97,709.36l-.74-6.29c-1.58-13.52-13.04-23.71-26.65-23.71h0c-16.06,0-28.52,14.01-26.65,29.96l.74,6.29c1.58,13.52,13.04,23.71,26.65,23.71h0c16.06,0,28.52-14.01,26.65-29.96Z"/>
                <path d="M1910.36,862.32h91.51c4.61,0,8.34-3.73,8.34-8.34h0c0-4.61-3.73-8.34-8.34-8.34h-110.33c1.15,9.52,9.23,16.68,18.81,16.68Z"/>
                <path d="M1460.31,847.14c.06,0,.12,0,.18-.01.82-.1,1.41-.84,1.32-1.66l-25.37-216.44c-1.62-13.83,2.76-27.72,12.01-38.12,9.25-10.4,22.54-16.37,36.46-16.37h329.94c.83,0,1.5-.67,1.5-1.5,0-.83-.67-1.5-1.5-1.5h-329.94c-14.78,0-28.88,6.33-38.71,17.37-9.82,11.04-14.47,25.79-12.75,40.46l25.37,216.44c.09.76.74,1.33,1.49,1.33Z"/>
              </g>
              <g>
                <g>
                  <path class="cls-24" d="M1958.74,928.84c.26,29.82-35.26,57.14-43.76,68.31-8.51,11.17,2.55,76.21-9.96,82.44-9.62,4.79-16.76-9.85-16.76-9.85,0,0,3.29,29.15-9.02,25.94-12.82-3.35-15.66-16.84-15.66-16.84,0,0,8.32,28.88-6.12,26.98-14.44-1.9-31.9-71.13-31.9-71.13,0,0-3.53,53-20.8,51.73-17.27-1.28-7.15-63.55-1.3-82.79,4.13-13.57,5.33-30.94,28.42-62.6,23.09-31.66,68.49-76.35,99.78-89.38,45.57-18.96,271.12-56.43,271.12-56.43l-51.45-237.51c-15.92-73.51-14.11-148.87,64.84-115.83,66.09,27.67,134.61,345.59,138.14,406.9,3.52,61.32-31.72,88.1-180.42,83.87-148.71-4.23-215.13-3.81-215.13-3.81Z"/>
                  <path d="M1888.26,1071.24c.21,0,.41-.04.61-.13.76-.34,1.09-1.23.75-1.98-7.18-15.95-8.72-43.76-3.84-69.21.16-.81-.38-1.6-1.19-1.76-.8-.15-1.6.38-1.76,1.19-4.99,26.01-3.37,54.54,4.05,71.01.25.56.8.88,1.37.88Z"/>
                  <path d="M1860.57,1068.54c.11,0,.22-.01.32-.04.81-.18,1.32-.98,1.14-1.79-.93-4.21-1.98-8.59-3.06-13.05-5.22-21.66-11.14-46.21-4.06-61.2.35-.75.03-1.64-.72-2-.75-.36-1.64-.03-2,.72-7.53,15.95-1.48,41.04,3.86,63.18,1.07,4.44,2.12,8.8,3.04,12.99.15.7.77,1.18,1.46,1.18Z"/>
                  <path d="M1828.33,1036.19c.13,0,.27-.02.4-.05.8-.22,1.27-1.04,1.05-1.84-3.2-11.67-1.57-26.81,3.65-33.76.5-.66.36-1.6-.3-2.1-.66-.49-1.61-.36-2.1.3-5.8,7.72-7.62,23.69-4.14,36.35.18.67.79,1.1,1.44,1.1Z"/>
                </g>
                <path d="M2202.77,796.72s.05,0,.07,0l59.2-2.82c.83-.04,1.47-.74,1.43-1.57-.04-.83-.76-1.44-1.57-1.43l-59.2,2.82c-.83.04-1.47.74-1.43,1.57.04.8.7,1.43,1.5,1.43Z"/>
                <path d="M2329.94,714.97s4.11,17.78,6.39,29.15c0,0-139.41,15.84-143.39,5.68-3.98-10.16,137-34.83,137-34.83Z"/>
                <path class="cls-7" d="M2360.34,708.78c-26.55-112.69-101.49-249.04-144.17-266.9-78.95-33.05-94.44,46.26-78.52,119.78,24,114.24,42.67,190.25,42.67,190.25,0,0,136.91-21.78,180.02-43.12Z"/>
                <path d="M2180.32,753.4c.08,0,.16,0,.24-.02,1.37-.22,137.63-22.06,180.45-43.25.74-.37,1.05-1.27.68-2.01-.37-.74-1.27-1.04-2.01-.68-40.13,19.86-163.81,40.41-178.23,42.76-2.6-10.7-20.33-84.14-42.33-188.85-.17-.81-.96-1.33-1.78-1.16-.81.17-1.33.97-1.16,1.78,23.73,112.95,42.5,189.53,42.68,190.29.17.68.77,1.14,1.45,1.14Z"/>
                <path d="M1958.1,937.96c.59,0,1.15-.35,1.39-.94.14-.35,3.32-8.73-3.71-28.17-.28-.78-1.14-1.19-1.92-.9-.78.28-1.18,1.14-.9,1.92,6.57,18.17,3.77,25.97,3.74,26.05-.29.77.09,1.64.86,1.94.18.07.37.1.55.1Z"/>
              </g>
              <path class="cls-21" d="M1840.16,132.61c0-54.12-17.81-97.99-134.59-97.99-116.78,0-134.59,43.87-134.59,97.99,0,54.12,17.81,97.99,134.59,97.99,23.77,0,43.38-1.85,59.64-5.2,22.5,20.31,49.85,42.24,59.04,38.08,9.54-4.32,4.76-39.58-.99-68.7,13.51-16.92,16.91-38.57,16.91-62.17Z"/>
              <g id="simbolo_star" data-name="simbolo star">
                <path class="cls-23" d="M1661.12,716.32c-5.46,2.15-8.87,3.65-9.89,7.24l-.16.57c-.75,2.63-.29,5.47,1.34,7.68l.03.04c3.35-10.37,15.37-8.06,20.11-14.31,1.75-2.31,2.85-5.24,2.96-11-3.53,5.5-9.45,7.84-14.37,9.78h-.01Z"/>
                <path class="cls-14" d="M1673.81,685.4c-2.5,15.4-40.65,7.36-26.13,37.15,4.19-14.62,33.25-4.65,26.13-37.15Z"/>
                <path class="cls-6" d="M1652.59,710.39l.22,1.34c.03.16-.15.29-.29.21l-1.21-.63s-.13-.03-.19,0l-1.19.63c-.15.07-.32-.04-.29-.21l.24-1.34s0-.13-.06-.18l-.97-.94c-.12-.12-.06-.32.12-.34l1.34-.19s.12-.04.15-.1l.6-1.22c.07-.15.28-.15.35,0l.6,1.22s.09.1.15.1l1.34.19c.16.03.24.22.12.34l-.97.94s-.07.12-.06.18h.01Z"/>
              </g>
            </g>
            <g>
              <g>
                <rect class="cls-9" x="1450.91" y="643.13" width="25.72" height="140.69" transform="translate(2756.5 1703.69) rotate(-168.53)"/>
                <g>
                  <path class="cls-17" d="M1437.18,779.86l5.7,28.03c.32,1.59,2.4,2.01,3.32.67l16.18-23.59-25.2-5.11Z"/>
                  <path d="M1444.03,810.8c-1.34-.27-2.34-1.27-2.61-2.61l-5.7-28.03c-.1-.49.05-1,.41-1.36.35-.36.87-.5,1.36-.41l25.2,5.11c.49.1.9.44,1.09.91.19.47.13,1-.15,1.41l-16.18,23.59c-.63.92-1.67,1.45-2.75,1.45-.22,0-.45-.02-.67-.07ZM1439.1,781.79l5.25,25.81c.03.15.12.24.27.27.15.03.27-.02.35-.14l14.89-21.73-20.76-4.21Z"/>
                </g>
                <rect class="cls-16" x="1465.92" y="636.24" width="25.52" height="8.37" transform="translate(2799.31 1563.81) rotate(-168.46)"/>
                <path class="cls-2" d="M1483.2,618.33h0c6.91,1.41,11.36,8.15,9.95,15.06l-1.12,5.5-25.01-5.11,1.12-5.5c1.41-6.91,8.15-11.36,15.06-9.95Z"/>
                <path d="M1481.74,691.06c.7,0,1.32-.49,1.47-1.2.16-.81-.36-1.6-1.17-1.77l-25.2-5.11c-.83-.15-1.61.36-1.77,1.17-.16.81.36,1.6,1.17,1.77l25.2,5.11c.1.02.2.03.3.03Z"/>
              </g>
              <g>
                <g>
                  <rect class="cls-16" x="1410.34" y="611.43" width="25.72" height="140.69" transform="translate(-107.13 296.52) rotate(-11.47)"/>
                  <g>
                    <path class="cls-17" d="M1449.78,748.17l-5.7,28.03c-.32,1.59-2.4,2.01-3.32.67l-16.18-23.59,25.2-5.11Z"/>
                    <path d="M1439.52,777.72l-16.18-23.59c-.28-.41-.34-.94-.15-1.41.19-.47.6-.81,1.09-.91l25.2-5.11c.5-.1,1,.05,1.36.41.36.36.51.87.41,1.36l-5.7,28.03c-.27,1.34-1.27,2.34-2.61,2.61-.22.04-.45.07-.67.07-1.09,0-2.12-.53-2.75-1.45ZM1427.1,754.3l14.89,21.73c.08.12.2.17.35.14.15-.03.24-.12.27-.27l5.25-25.81-20.76,4.21Z"/>
                  </g>
                  <rect class="cls-9" x="1395.52" y="604.55" width="25.52" height="8.37" transform="translate(-93.33 294.13) rotate(-11.54)"/>
                  <path class="cls-19" d="M1403.77,586.63h0c-6.91,1.41-11.36,8.15-9.95,15.06l1.12,5.5,25.01-5.11-1.12-5.5c-1.41-6.91-8.15-11.36-15.06-9.95Z"/>
                  <path d="M1405.23,659.36c.1,0,.2-.01.3-.03l25.2-5.11c.81-.17,1.34-.96,1.17-1.77-.17-.81-.95-1.33-1.77-1.17l-25.2,5.11c-.81.17-1.34.96-1.17,1.77.15.71.77,1.2,1.47,1.2Z"/>
                </g>
                <path d="M1394.27,671.07c.09,0,.19,0,.29-.03.81-.16,1.35-.94,1.19-1.76l-10.65-55.26,10.82-1.78c.82-.14,1.37-.91,1.24-1.72-.13-.82-.89-1.39-1.72-1.24l-12.34,2.03c-.4.07-.76.29-.99.62-.23.33-.32.74-.24,1.14l10.95,56.78c.14.72.77,1.22,1.47,1.22Z"/>
              </g>
              <g>
                <polygon class="cls-8" points="1501.84 705.61 1396.93 705.61 1398.64 750.56 1500.14 750.56 1501.84 705.61"/>
                <polygon class="cls-8" points="1405.36 750.56 1409.03 862.32 1489.74 862.32 1493.41 750.56 1405.36 750.56"/>
              </g>
            </g>
          </g>
          <g>
            <g>
              <path class="cls-21" d="M669.69,97.99c0-54.12,17.81-97.99,134.59-97.99,116.78,0,134.59,43.87,134.59,97.99,0,54.12-17.81,97.99-134.59,97.99-23.77,0-43.38-1.85-59.64-5.2-22.5,20.31-49.85,42.24-59.04,38.08-9.54-4.32-4.76-39.58.99-68.7-13.51-16.92-16.91-38.57-16.91-62.17Z"/>
              <g>
                <g>
                  <path class="cls-24" d="M797.78,863.78c-109.39-.84-119.12,1.82-138.74-59.29-16.38-51.01-57.89-206.34-57.89-206.34-12.3-56.79-2.79-79.95,58.2-54.42,51.06,21.37,95.39,185.34,109.38,231.24,0,0,223.56,27.32,239.38,27.67,31.44.69,92.09,10.41,123.03,26.3,30.95,7.47,26.6,17.73,26.6,17.73,11.23,3.55,17.16,18.64,3.57,17.46-13.6-1.18-248.61.55-363.53-.33Z"/>
                  <path d="M750.13,711.63s2.16,4.51,3.92,13.29c0,0-73.95,35.1-107.62,37.5,0,0-4.09-15.13-4.94-17.3-3.08-7.85,108.64-33.5,108.64-33.5Z"/>
                  <path class="cls-14" d="M762.61,714.86c-20.51-87.06-85.04-188.23-118.01-202.04-60.99-25.53-66.33,31.59-54.02,88.38,18.54,88.25,32.97,146.97,32.97,146.97,0,0,105.76-16.83,139.07-33.31Z"/>
                  <path d="M1157.74,848.16c.64,0,1.24-.41,1.43-1.06.24-.79-.2-1.63-.99-1.88-2.04-.63-50.31-15.32-77.13-13.13-.82.07-1.44.79-1.37,1.62.07.83.76,1.45,1.62,1.37,26.27-2.17,75.51,12.86,76,13.01.15.05.3.07.44.07Z"/>
                  <path d="M1135.45,832.53c.65,0,1.26-.43,1.44-1.1.22-.8-.24-1.63-1.04-1.85-1.88-.52-46.1-12.85-56.54-13.15-.83.04-1.52.63-1.54,1.46-.02.83.63,1.52,1.46,1.54,10.08.29,55.36,12.92,55.82,13.04.14.04.27.06.41.06Z"/>
                </g>
                <g>
                  <path class="cls-24" d="M545.04,431.62l4.56,57.89,39.11,13.01s-11.76,89.61-91.2,85.66c-79.44-3.95-89.86-111.82-89.86-111.82h41.67s-14.92-95.61-14.92-95.61l110.64,50.88Z"/>
                  <path d="M548.06,469.98s-65.31,0-92.29-49.16l89.27,10.79,3.02,38.37Z"/>
                  <path class="cls-7" d="M269.16,759.77l28.59,102.32,419.85-.52s-29.42-310.14-68.49-339.08c-39.07-28.94-81.13-25.44-83.73-29.38,0,0,21.58,49.08-47.44,38.55-69.02-10.52-86.85-55.32-86.85-55.32,0,0-65.12,1.32-104.19,11.84-39.07,10.53-57.74,271.58-57.74,271.58Z"/>
                  <path d="M668.19,854.38s.1,0,.15,0c.82-.08,1.42-.82,1.34-1.65-.15-1.48-15.33-149.26-37.97-250.35-.18-.81-.98-1.31-1.79-1.14-.81.18-1.32.98-1.14,1.79,22.6,100.92,37.76,248.52,37.91,250,.08.77.73,1.35,1.49,1.35Z"/>
                </g>
                <g>
                  <path class="cls-5" d="M331.31,318.28c.37-20.86,15.12-37.89,34.14-40.99-4.5-10.67-6.97-22.46-6.75-34.9.81-45.72,36.82-82.16,80.42-81.38,43.6.78,78.29,38.47,77.48,84.2-.81,45.72-36.82,82.16-80.42,81.38-8.57-.15-16.77-1.77-24.45-4.56-.24,3.41-.82,6.71-1.78,9.84,19.01,3.67,33.26,21.27,32.89,42.22-.42,23.33-18.79,41.92-41.04,41.53-22.25-.4-39.95-19.63-39.53-42.96.08-4.24.76-8.32,1.94-12.16-19.01-3.67-33.26-21.27-32.88-42.22Z"/>
                  <g>
                    <path class="cls-24" d="M613.78,312.84c9.6,105.47-21.71,132.91-94.34,134.85-72.63,1.94-115.66-58.13-117.71-133.59-2.04-75.47,37.71-137.77,110.35-139.73,72.64-1.96,94.86,63.28,101.7,138.47Z"/>
                    <g>
                      <g>
                        <path class="cls-5" d="M475.5,278.17c-3.49-.39-6-3.53-5.61-7.02.39-3.49,3.53-6,7.02-5.61l18.05,2.02c3.49.39,6,3.53,5.61,7.02-.39,3.49-3.53,6-7.02,5.61l-18.05-2.02Z"/>
                        <path class="cls-5" d="M593.9,279.17c3.46-.58,5.8-3.85,5.23-7.32-.58-3.46-3.85-5.8-7.32-5.23l-17.91,2.99c-3.46.58-5.8,3.85-5.23,7.32.58,3.46,3.85,5.8,7.32,5.23l17.91-2.99Z"/>
                      </g>
                      <path d="M540.64,353.92h.04c9.91-.27,17.76-8.55,17.49-18.46-.13-4.8-2.12-9.26-5.61-12.57-3.49-3.31-8.06-5.07-12.85-4.92-.83.02-1.48.71-1.46,1.54.02.83.68,1.48,1.54,1.46,4.04-.15,7.8,1.35,10.71,4.1,2.91,2.75,4.57,6.47,4.67,10.47.11,4-1.35,7.8-4.1,10.71-2.75,2.9-6.47,4.56-10.47,4.67-.83.02-1.48.71-1.46,1.54.02.81.69,1.46,1.5,1.46Z"/>
                      <path d="M533.35,392.53c.36,0,.72,0,1.08-.01,11.95-.32,18.64-5.84,18.92-6.07.63-.53.71-1.48.18-2.11-.53-.63-1.48-.71-2.11-.19-.06.05-6.23,5.08-17.07,5.37-10.85.25-18.13-4.42-18.2-4.47-.69-.46-1.62-.28-2.08.42-.46.69-.28,1.62.41,2.08.31.21,7.58,4.99,18.87,4.99Z"/>
                    </g>
                    <path d="M493.98,315.7c.18,6.61-1.6,12.01-8.21,12.19-6.61.18-8.68-5.13-8.85-11.73-.18-6.61,1.6-12.01,8.21-12.19,6.61-.18,8.68,5.13,8.85,11.73Z"/>
                    <path d="M581.42,312.78c-.29,6.6,1.39,12.04,7.99,12.33,6.6.29,8.77-4.97,9.06-11.58.3-6.6-1.39-12.04-7.99-12.33-6.6-.29-8.77,4.97-9.06,11.58Z"/>
                    <g>
                      <path class="cls-24" d="M423.87,314.39c5.36,19.35-5.98,39.38-25.33,44.73-19.35,5.36-39.38-5.98-44.73-25.33-5.36-19.35,5.98-39.38,25.33-44.73,19.35-5.36,39.38,5.98,44.73,25.33Z"/>
                      <g>
                        <path d="M403.42,325.21c.13,0,.27-.02.4-.05.8-.22,1.27-1.05,1.05-1.85-2.94-10.62-13.98-16.87-24.6-13.93-.8.22-1.27,1.05-1.05,1.85.22.8,1.05,1.26,1.85,1.05,9.04-2.5,18.4,2.81,20.91,11.84.18.67.79,1.1,1.44,1.1Z"/>
                        <path d="M387.36,341.64c.13,0,.25-.02.38-.05.8-.21,1.28-1.03,1.07-1.83-3.32-12.7,8.47-25.01,8.59-25.14.58-.59.56-1.54-.03-2.12-.59-.58-1.54-.56-2.12.03-.54.55-13.08,13.66-9.34,27.99.18.67.79,1.12,1.45,1.12Z"/>
                      </g>
                    </g>
                  </g>
                  <path class="cls-5" d="M468.77,263.89c-10.8-3.07-19.5-9.78-25.43-17.83-13.24,29.93-33.13,67.65-47.78,63.34-23.93-7.04-22.63-56.04-15.71-74.27,7.82-20.58,29.36-39.75,56.22-53.43-7.19-9.78-9.86-22.95-5.87-35.82,6.53-21.04,28.09-33.04,48.15-26.81,12.04,3.74,20.76,13.21,24.43,24.71.06-.22.09-.43.16-.65,6.85-22.06,32.34-33.75,56.95-26.11,24.6,7.64,39,31.71,32.15,53.77-.51,1.63-1.14,3.18-1.85,4.7,0,0,46.6,3.96,49.03,35.16,2.43,31.2-37.97,34.69-37.97,34.69,0,0-26.49,38-79.44,15.29,0,0-27.62,10.49-53.04,3.26Z"/>
                </g>
                <g>
                  <path d="M305.4,862.07c19.18,0,7.93-60.02,7.93-60.02h-30.95s-.12,60.02,23.03,60.02Z"/>
                  <path class="cls-7" d="M356.2,610.05l1.51-126.58c-89.97,6.28-114.42,60.33-122.57,132.53-11.69,103.62-.18,186.04-.18,186.04l145.93-50.52-24.69-141.47"/>
                  <path class="cls-26" d="M364.87,298.85c16.72,2.47,89.16,62.44,95.54,69.24,6.37,6.8,25.05,59.51,25.05,65.69,0,6.18-15.22,2.44-15.22,2.44l-109.66-72.47s-7.76-49.49-5.9-57.42c1.85-7.94,10.2-7.47,10.2-7.47Z"/>
                  <path class="cls-24" d="M294.35,692.43c15.55-44.71,97.63-253.21,97.63-253.21,0,0-33.98-60.4-37.59-67.55-6.6-13.07-12.38-25.45-9.67-36.73,4.12-17.2,30.98-28.62,30.98-28.62,11.66-10.37,21.55,13.94,21.55,13.94,19.61-1.94,19.35,13.99,19.35,13.99,5.18-3.89,32.44-7.51,31.82,27.67l-12.86-7.08-14.56,3.92s49.38,55.19,49.38,79.81c0,22.8-62.78,361.23-125.67,407.83h0s-8.56,4.98-12.82,5.26c-15.04,4.63-40.73,7.75-62.73-13.4-42.79-41.12-33.72-159.56,25.19-145.83Z"/>
                  <path d="M460.83,500.39c.71,0,1.34-.5,1.47-1.22,5.73-30.29,9.58-54.64,9.58-60.6,0-24.91-47.73-78.54-49.77-80.81-.55-.62-1.5-.67-2.12-.12-.62.55-.67,1.5-.12,2.12.49.55,49,55.04,49,78.81,0,4.66-2.98,25.44-9.53,60.04-.15.81.38,1.6,1.2,1.75.09.02.19.03.28.03Z"/>
                  <path d="M448.42,363.42c.82,0,1.49-.65,1.5-1.47.32-18.42-6.9-26.02-13.02-29.15-6.84-3.5-14.72-2.65-19.02-.91-.41-2.38-1.54-6.09-4.72-9.01-3.51-3.23-8.55-4.64-14.96-4.2-1.56-3.46-7.05-14.45-14.52-16.19-3.12-.73-6.14.19-8.98,2.71-.62.55-.68,1.5-.12,2.12.55.62,1.5.68,2.12.12,2.1-1.86,4.16-2.53,6.3-2.03,5.96,1.39,11.31,11.6,12.87,15.42.25.61.87.98,1.54.93,6.04-.61,10.66.51,13.71,3.3,4.01,3.66,4,9.12,4,9.18,0,.57.31,1.1.82,1.36.51.26,1.12.21,1.58-.14,2.08-1.56,10.49-3.84,18.03.02,7.69,3.93,11.62,13.07,11.39,26.42-.01.83.65,1.51,1.47,1.53h.03Z"/>
                  <path d="M400.31,345.64c.27,0,.54-.07.79-.23l15.96-9.92c.7-.44.92-1.36.48-2.07-.44-.7-1.36-.92-2.07-.48l-15.96,9.92c-.7.44-.92,1.36-.48,2.07.28.46.77.71,1.28.71Z"/>
                  <path d="M381.29,331.68c.27,0,.54-.07.79-.23l15.96-9.92c.7-.44.92-1.36.48-2.07-.44-.7-1.36-.92-2.07-.48l-15.96,9.92c-.7.44-.92,1.36-.48,2.07.28.46.77.71,1.28.71Z"/>
                  <path class="cls-7" d="M294.35,692.43c-21.18,24.56-17.25,160.45,11.05,169.63-47.85,1.14-67.62-31.37-70.44-60.02-2.81-28.65.67-132.37,59.39-109.61Z"/>
                </g>
              </g>
            </g>
            <g>
              <g>
                <path d="M734.25,862.07h-174.5c-5.07,0-9.18-4.11-9.18-9.18h0c0-5.07,4.11-9.18,9.18-9.18h174.5c5.07,0,9.18,4.11,9.18,9.18h0c0,5.07-4.11,9.18-9.18,9.18Z"/>
                <path class="cls-17" d="M1146.69,862.07h-456.94c-5.07,0-9.18-4.11-9.18-9.18h0c0-5.07,4.11-9.18,9.18-9.18h456.94c5.07,0,9.18,4.11,9.18,9.18h0c0,5.07-4.11,9.18-9.18,9.18Z"/>
                <rect x="661.91" y="468.38" width="88.32" height="300.06" rx="37.02" ry="37.02"/>
                <rect class="cls-17" x="676.72" y="468.38" width="479.15" height="300.06" rx="37.02" ry="37.02"/>
                <rect class="cls-17" x="881.59" y="768.44" width="77.75" height="93.62"/>
                <path class="cls-18" d="M958.03,618.41c0,23.05-18.69,41.74-41.74,41.74-23.05,0-41.74-18.69-41.74-41.74,0-23.05,18.69-41.74,41.74-41.74,23.05,0,41.74,18.69,41.74,41.74Z"/>
                <path d="M764.58,769.94h354.27c21.24,0,38.52-17.28,38.52-38.53v-226.01c0-21.24-17.28-38.52-38.52-38.52-.83,0-1.5.67-1.5,1.5,0,.83.67,1.5,1.5,1.5,19.59,0,35.52,15.94,35.52,35.52v226.01c0,19.59-15.94,35.53-35.52,35.53h-354.27c-.83,0-1.5.67-1.5,1.5,0,.83.67,1.5,1.5,1.5Z"/>
                <path d="M1146.69,863.57c5.89,0,10.68-4.79,10.68-10.68,0-5.89-4.79-10.68-10.68-10.68h-294.61c-.83,0-1.5.67-1.5,1.5,0,.83.67,1.5,1.5,1.5h294.61c4.24,0,7.68,3.45,7.68,7.68,0,4.24-3.45,7.68-7.68,7.68-.83,0-1.5.67-1.5,1.5,0,.83.67,1.5,1.5,1.5Z"/>
                <g>
                  <path class="cls-17" d="M436.66,862.99h107.93c0-19.97-24.16-36.16-53.96-36.16-29.8,0-53.97,16.19-53.97,36.16Z"/>
                  <path d="M529.2,865.68s.09,0,.13,0c.83-.07,1.44-.8,1.36-1.62-1.26-14.4-10.59-26.84-22.7-30.27-.79-.23-1.63.24-1.85,1.03-.23.8.24,1.63,1.03,1.85,10.94,3.1,19.38,14.47,20.53,27.65.07.78.72,1.37,1.49,1.37Z"/>
                </g>
              </g>
              <g>
                <path class="cls-22" d="M190.9,699c23.4,7.06,45.27,3.16,48.86-8.72,3.58-11.88-12.48-27.23-35.88-34.29-23.4-7.06-45.27-3.16-48.86,8.72-3.58,11.88,12.48,27.23,35.88,34.29Z"/>
                <path d="M116.83,737.96c.83,0,1.5-.67,1.5-1.5v-21.84c.03-17.41,5.9-30.97,16.53-38.18,13.71-9.29,34.56-8.47,61.98,2.44.76.3,1.64-.07,1.95-.84.31-.77-.07-1.64-.84-1.95-28.4-11.29-50.19-12.01-64.77-2.14-11.48,7.78-17.82,22.22-17.85,40.66v21.85c0,.83.67,1.5,1.5,1.5Z"/>
                <path class="cls-22" d="M48.93,621.12c17.69,16.87,38.97,23.26,47.53,14.28,8.56-8.98,1.16-29.93-16.53-46.79-17.69-16.87-38.97-23.26-47.53-14.28-8.56,8.98-1.16,29.93,16.53,46.79Z"/>
                <path d="M116.67,712.09h0c.83,0,1.5-.68,1.5-1.5-.11-48.3-7.49-63.27-52.7-106.8-.59-.57-1.55-.56-2.12.04-.57.6-.56,1.55.04,2.12,44.9,43.24,51.68,56.93,51.78,104.64,0,.83.67,1.5,1.5,1.5Z"/>
                <path class="cls-16" d="M50.38,724.25c.19.27.37.53.56.8,10.17,14.1,10.17,32.91,0,47.01-6.2,8.59-9.73,18.49-9.73,29.02,0,32.98,34.63,59.72,77.34,59.72,42.71,0,77.34-26.74,77.34-59.72,0-10.53-3.53-20.43-9.73-29.02-10.17-14.1-10.17-32.91,0-47.01.19-.26.38-.53.56-.79,8.28-11.9-.8-28.22-15.29-28.22h-105.77c-14.49,0-23.57,16.33-15.29,28.22Z"/>
                <path class="cls-22" d="M141.33,578.99c-16.99,17.57-23.54,38.8-14.62,47.43,8.92,8.62,29.92,1.37,46.91-16.2,16.99-17.57,23.54-38.8,14.62-47.43-8.92-8.62-29.92-1.37-46.91,16.2Z"/>
                <path class="cls-22" d="M167.17,761.27c10.71,22.18,28.51,35.76,39.77,30.33,11.26-5.43,11.71-27.82,1-50.01-10.71-22.18-28.51-35.76-39.77-30.33-11.26,5.43-11.71,27.82-1,50.01Z"/>
                <path class="cls-22" d="M57.68,800.53c5.5,24.01,19.83,41.22,32.02,38.43,12.19-2.79,17.61-24.52,12.11-48.53-5.5-24.01-19.83-41.22-32.02-38.43-12.19,2.79-17.61,24.52-12.12,48.53Z"/>
                <path class="cls-22" d="M69.13,538.35c7.97,23.31,24.02,38.92,35.85,34.88,11.83-4.05,14.96-26.22,6.99-49.53-7.97-23.31-24.02-38.92-35.85-34.88-11.83,4.05-14.96,26.22-6.99,49.53Z"/>
                <path class="cls-22" d="M51.35,723.68c20.23-13.72,30.98-33.16,24.02-43.43-6.96-10.27-29-7.47-49.23,6.25-20.23,13.72-30.98,33.16-24.02,43.43,6.96,10.27,29,7.47,49.23-6.25Z"/>
                <path d="M38.75,706.59c.32,0,.64-.1.91-.31,29.86-22.82,47.71-31.58,59.67-29.31,5.92,1.13,10.77,5.12,15.25,12.56.43.71,1.35.94,2.06.51.71-.43.94-1.35.51-2.06-4.95-8.23-10.44-12.66-17.26-13.96-12.89-2.45-31.44,6.48-62.05,29.87-.66.5-.78,1.44-.28,2.1.3.39.74.59,1.19.59Z"/>
                <path d="M79.75,796.98c.24,0,.49-.06.72-.19.73-.4.99-1.31.59-2.04-24.94-45.24-6.95-86,13.06-99.3,8.69-5.78,16.74-5.62,21.53.43.51.65,1.45.76,2.11.24.65-.51.76-1.46.24-2.11-5.77-7.29-15.56-7.71-25.54-1.07-20.94,13.92-39.87,56.36-14.02,103.25.27.5.79.78,1.32.78Z"/>
                <path d="M185.7,746.82c.2,0,.4-.04.59-.12.76-.33,1.12-1.21.8-1.97-12.06-28.39-28.4-47.23-46.03-53.06-7.97-2.64-15.9-2.35-22.64.76,1.16-29.33,7.19-66.19,40.08-96.73.61-.56.64-1.51.08-2.12-.56-.61-1.51-.64-2.12-.08-34.66,32.19-40.18,71.1-41.12,101.4-.02.55.27,1.06.73,1.34.47.28,1.05.28,1.53,0,6.55-3.84,14.34-4.44,22.53-1.73,9.73,3.22,28.4,14.17,44.21,51.38.24.57.8.91,1.38.91Z"/>
                <path d="M116.83,696.46c.83,0,1.5-.67,1.5-1.5v-.4c0-78.13-9.41-136.49-26.5-164.32-.44-.71-1.36-.93-2.06-.49-.71.43-.93,1.36-.49,2.06,16.81,27.37,26.06,85.17,26.05,162.75v.4c0,.83.67,1.5,1.5,1.5Z"/>
              </g>
              <g>
                <path class="cls-9" d="M266.67,838.23c-12.34,0-38.37-7.36-39.91-22.98h-82.47s10.87,22.98,26.83,22.98c15.96,0,95.55,0,95.55,0"/>
                <rect class="cls-9" x="225.71" y="838.23" width="40.96" height="22.98" transform="translate(492.38 1699.44) rotate(-180)"/>
                <rect class="cls-9" x="143.78" y="838.23" width="81.93" height="22.98" transform="translate(369.49 1699.44) rotate(-180)"/>
                <path d="M165.57,848.7h31.23c.83,0,1.5-.67,1.5-1.5,0-.83-.67-1.5-1.5-1.5h-31.23c-.83,0-1.5.67-1.5,1.5,0,.83.67,1.5,1.5,1.5Z"/>
                <path d="M174.07,854.72h51.64c.83,0,1.5-.67,1.5-1.5,0-.83-.67-1.5-1.5-1.5h-51.64c-.83,0-1.5.67-1.5,1.5,0,.83.67,1.5,1.5,1.5Z"/>
                <path d="M233.46,854.72h14.69c.83,0,1.5-.67,1.5-1.5,0-.83-.67-1.5-1.5-1.5h-14.69c-.83,0-1.5.67-1.5,1.5,0,.83.67,1.5,1.5,1.5Z"/>
                <path d="M251.97,848.7h14.69c.83,0,1.5-.67,1.5-1.5,0-.83-.67-1.5-1.5-1.5h-14.69c-.83,0-1.5.67-1.5,1.5,0,.83.67,1.5,1.5,1.5Z"/>
                <path d="M143.78,839.73h122.89c.83,0,1.5-.67,1.5-1.5,0-.83-.67-1.5-1.5-1.5h-122.89c-.83,0-1.5.67-1.5,1.5,0,.83.67,1.5,1.5,1.5Z"/>
                <path d="M225.71,862.71c.83,0,1.5-.67,1.5-1.5v-22.98c0-.83-.67-1.5-1.5-1.5s-1.5.67-1.5,1.5v22.98c0,.83.67,1.5,1.5,1.5Z"/>
              </g>
            </g>
            <g id="simbolo_star-2" data-name="simbolo star">
              <path class="cls-23" d="M917.74,626.89c-7.26,2.86-11.8,4.85-13.15,9.63l-.22.76c-1,3.5-.39,7.28,1.78,10.22l.04.06c4.46-13.8,20.45-10.72,26.75-19.04,2.33-3.07,3.8-6.97,3.93-14.64-4.7,7.32-12.56,10.43-19.12,13.01h-.02Z"/>
              <path class="cls-14" d="M934.61,585.76c-3.33,20.49-54.07,9.79-34.76,49.41,5.58-19.45,44.23-6.18,34.76-49.41Z"/>
              <path class="cls-6" d="M906.39,619.01l.29,1.78c.04.22-.2.39-.39.27l-1.6-.84s-.18-.04-.25,0l-1.59.84c-.2.1-.43-.06-.39-.27l.31-1.78s0-.18-.08-.23l-1.29-1.25c-.16-.16-.08-.43.16-.45l1.78-.25s.16-.06.2-.14l.8-1.62c.1-.2.37-.2.47,0l.8,1.62s.12.14.2.14l1.78.25c.22.04.31.29.16.45l-1.29,1.25s-.1.16-.08.23h.02Z"/>
            </g>
          </g>
        </g>
        <g>
          <path class="cls-7" d="M2508.47,205.07c1.06-.65,2.66-.99,4.09-.91,17.6.29,84.78-.23,114.92.02,2.23-.03,4.03.47,5.33,1.79,11.13,13.45,207.02,250.68,219.9,266.28,2.05,2.45-1.86,4.59-4.18,3.76-1.39-.21-2.88-2.05-2.17-3.14,13.48-16.73,207.7-252.58,219.36-266.87,2.07-1.93,3.59-1.79,7.54-1.84,29.28.03,97.76-.14,115.49.1,1.25.2,2.22.7,2.93,1.26.98.79,1.5,1.69,1.46,2.14.05.71-.03,1.58,0,2.96,0,49.21,0,604.4,0,622.51,0,.5-.62,1.43-1.61,2.19-1.06.83-2.66,1.31-4.1,1.22-38.74-.14-100.38.11-134.79,0-2.97.32-6.72-.66-7.32-3.6.49-14.83-.39-319.15-.02-396.89.3-2.78-.98-4.9,1.76-5.36,1.28-.07,2.9.78,2.97,2.16.02.6-.25,1.06-.6,1.48-15.77,18.54-31.34,36.93-54.15,63.75-33.83,39.88-125.73,147.99-134.16,157.96-.85.94-1.16,1.17-2.99,1.54-4.12.75-12.09.64-16.24.2-1.28-.04-3.16-.48-3.91-1.2-6.08-6.9-36.2-42.89-72.3-85.47-32.91-38.76-88.25-104.53-115.54-136.7-2.63-2.73,3.51-5.68,4.09-2.05.14,88.38-.07,382.96-.01,400.59-.06.64-.58,1.48-1.38,2.18-.86.81-2.35,1.4-3.76,1.41-2.31.14-8.59-.08-12.64.01-30.24-.07-87.51.05-121.6,0-.98.01-1.76,0-2.65,0-2.25.12-3.94-.82-4.9-1.85-.61-.64-.93-1.27-.91-1.63,1.99-21.67-3.8-605.41,2.05-627.96l.05-.03Z"/>
          <path class="cls-7" d="M3427.99,639.71c1.16,1.6,2.76,6.33,3.51,9.83,1.62,7.12,3.95,13.75,7.16,20.03,5.78,11.34,14.28,21.63,24.35,29.27,33.25,25.04,86.27,26.33,122.85,7.89,17.08-8.85,30.75-25.26,33.64-44.6,1.75-11.28.89-23.58-4.26-33.92-10.18-19.03-30.83-30-50.15-37.86-24.42-9.27-50.65-14.42-75.77-21.12-70.1-16.89-150.68-36.14-190.18-102.36-16.57-26.58-21.09-59.78-20.36-91.48,1.71-95.03,66.25-151.69,155.14-171.73,85.07-18.14,195.94-13.19,263.41,48.55,35.31,32.28,56.19,75.75,60.74,123.97.36,3.82.18,8.78-.82,10.76-.7,1.81-2.14,2.37-3.83,2.24-17.95.07-122.15-.05-148.33,0-1.77.17-3.48-.46-4.35-2.4-1.28-2.61-2-5.23-2.86-8.81-2.76-12.89-9.35-24.55-18.75-33.68-13.23-12.75-31.68-20.33-49.96-22.76-27.01-2.94-56.81,1.45-78.4,18.8-18.73,15.12-24.54,45.74-9.78,65.42,3.33,4.51,7.41,8.38,11.78,11.85,18.26,14.2,40.75,21.1,62.9,26.7,38.04,9.72,74.23,18.01,112.3,29.56,63.05,18.46,126.34,57.44,142.88,124.77,10.1,42.75,6.19,94.91-12.87,133.13-41.9,85.76-140.41,114.24-231.91,114.34-39.34.11-77.79-4.8-113.4-17.23-61.39-20.49-109.32-65.04-130.96-125.28-3.17-8.81-5.76-17.9-7.75-27.28-1.84-8.73-3.21-17.72-4.01-26.93-.27-2.69-.11-5.89.45-8.38.79-2.99,1.77-3.76,4.02-3.74,15.94.09,133.21.79,150.04.89,1.41,0,2.45.1,3.47,1.49l.06.08Z"/>
          <path class="cls-14" d="M4181.78,390.05c18.28-2.44,99.16-.19,117.92-.85,1.09.11,2,.48,2.71.95,1.29.86,2,2.04,1.94,2.76.06,1.07-.04,2.48,0,4.68.08,81.82.01,300.3-.06,408.26-.63,36.8-6.81,70.54-20.65,102.08-46.44,109.27-169.62,145.55-279.42,125.95-63.24-11.77-121.79-47.38-153.45-103.96-7.26-11.68-27.93-57.9-23.58-70.8.78-1.44,2.08-1.55,3.49-1.54,13.88,0,92.44,0,121.02,0,2.58.01,5.06-.01,7.58,0,1.75,0,2.98-.07,4.36,1.29,2.23,2.49,3.43,5.08,5.31,8.69,7.23,15.23,21.34,28,36.89,35.82,39.16,20.05,97.95,16.61,127.82-16.52,15.62-16.72,22.76-37.24,25.46-60.57,1.04-9.26,1.25-18.82,1.14-28.13-.15-9.25-3.58-10.49-10.38-4.58-31.32,27.77-73.36,39.37-115.99,39.96-39.98,1.53-79.22-6.4-113.93-25.99-103.75-56.46-136.73-192.74-92.97-297.94,31.14-77.06,107.13-129.24,190.29-129.85,55.93-1.67,104.64,14.04,144.66,52,5.94,4.34,7.81.42,9-5.05,1.89-7.54,5.4-21.6,7.24-28.93.78-2.76,1.42-5.85,3.53-7.66l.06-.04ZM4095.63,710.55c42.54-18.79,65.09-61.59,62.65-107.52-1.56-46.94-29.95-85.82-75.47-98.29-26.1-6.92-55.42-4.97-79.54,6.81-49.54,23.41-66.08,87.1-49.51,136.76,9.62,29.74,32.35,55.05,62.35,65.05,24.34,8.5,55.8,7.94,79.35-2.74l.18-.08Z"/>
          <path class="cls-14" d="M4719.18,795.17c-1.47-.9-3.72-.08-6.25,1.71-12.32,11.19-25.36,21.47-41.33,29.62-31.97,17.68-76.34,22.11-116.11,18.33-185.61-20-242.68-264.04-132.28-395.02,38.49-46.73,100.31-71.89,160.77-70.12,31.03.62,59.35,4.67,85.95,18.14,15.23,7.62,28.97,17.36,40.49,28.66,1.87,1.76,5.02,4.18,7.13,4.17,3.26.01,3.69-4.23,4.38-6.76,1.61-7.16,4.55-20.32,6.05-26.93.74-2.7,1.32-5.89,3.76-7.29,23.78-1.73,85.57.1,111.78-.55,4.69.13,8.16-.95,10.74,2.41,1.39,11.92-.07,169.82.44,295.13-.08,66.97.06,104.88,0,145.95.15,2.19-3.3,4.34-5.74,3.96-14.92,0-98.58,0-113.22,0-4.75.32-5.87-3.64-7.12-8.48-1.73-7.05-4.98-20.34-6.66-27.17-.51-1.91-1.05-4.64-2.69-5.73l-.09-.05ZM4654.56,714.85c65.76-27.67,81.54-119.83,39.77-173.96-29.71-39.06-88.12-48.08-131.35-27.79-50.5,23.98-67.36,89.78-49.73,140.16,19.47,59.29,84.41,86.54,141.12,61.67l.18-.08Z"/>
          <path class="cls-14" d="M5126.54,503.08c.71,1.33.17,3.04-1.31,3.35-17.95.23-178.93.03-196.34.1-2.47-.03-4.23-1.77-4.56-4.83.72-18.34-1.62-93.17.91-110.49,2.29-3.01,3.29-1.75,6.85-2,2.8,0,6.79,0,11.8,0,73.08-.17,268.99.12,334.11,0,.67-.05,1.13.17,1.8.65,1.19.9,2.31,2.75,2.19,5.78-.08,14.8.06,37.13,0,53.6,0,10.6,0,20.85,0,31.19-.08,4.41-.67,4.94-1.82,6.34-7.37,8.84-18.65,22.17-37.18,44.27-55.78,66.42-153.88,183.22-162.39,193.36-1.86,2.37-5.17-1.22-3.58-3.37.66-.87,1.56-.83,2.42-.83,4.83.05,15.13-.04,30.2,0,48.77.34,138.68-.57,183.7.27,2.04.75,3.25,3.67,2.97,5.98,0,15.25,0,90.06,0,104.25.3,2.74-1.79,6.24-4.46,5.86-79.51-.15-351.71.11-366.49,0-2.59.06-4.26-4.03-3.9-6.77.51-16.61-.77-66.2.36-88.23,13.84-18.75,151.19-179.35,200.98-239.19.96-1.38,3.02-.96,3.73.65l.03.06Z"/>
          <path class="cls-13" d="M5456.47,566.61c.73-.62,1.57-.94,2.49-.95,3.92-.01,16.82,0,34.36,0,38.47-.24,146.46.44,162.6-.23,6.88-5.59-6.2-29.53-10.68-35.16-17.84-25.54-48.85-38.59-79.56-38.89-16.43-.16-33.07,2.21-47.87,9.44-30.56,14.23-47.75,46.46-53.02,78.67-4.69,28.77-2.98,59.13,6.26,86.86,13.12,39.41,48.49,66.5,90.6,67.85,31.44,1.88,65.02-6.83,85.11-32.15,2.65-3.33,5-7.1,7.84-10.18,1.78-2.17,3.67-2.28,6.56-2.21,30.75-.13,107.9-.88,125.69-.81,3.51.65,2.95,4.01,2.39,8.09-14.07,43.1-40.69,78.19-76.12,104.15-2.48,1.8-4.96,3.54-7.45,5.2-40.97,27.56-89.48,39.78-140.46,39.83-151.55,2.52-255.11-120.1-235.09-268.26,10.35-82.04,66.28-154.31,144.71-182.12,53.06-19.67,125.68-20.25,180.14-1.26,96.01,31.89,148.36,122.57,143.88,222.27-.33,5.67-.03,26.86-6.12,28.12-18.79-.26-317.53.5-337.13-.26-2.17-.91-3.13-4.97-2.69-8.79.33-13.56,1.22-50.71,1.51-62.55-.04-2.29.4-5.16,2.01-6.57l.05-.04Z"/>
          <path class="cls-13" d="M5826.94,390c13.1-2.3,55.79-.2,70.04-.89,2.55.06,5.51-.49,6.47-2.99,1.04-17.11.12-96.36.42-112.92-.22-3.41,1.99-6.09,5.57-6.2,32-5.14,71.88-11.7,105.28-17.08,11.65-1.77,17.6-2.95,25.13-4.07,2.87-.44,5.37,2,5.19,4.78,0,3.21,0,10.47,0,20.09,0,26.77,0,57.3,0,83.76,0,14.03,0,25.05,0,29.33-.24,2.84,2.01,5.26,4.88,5.28,17.58.12,84.05-.05,113.72.02,3.6-.19,5.74,2.75,5.4,6.11,0,9.55,0,43.56,0,70.85,0,13.27,0,24.95,0,31.46.24,4.36-.03,8.93-5.14,8.96-24.16.03-56.11,0-82.01,0-6.27,0-12.14,0-18.02,0-6.21,0-10.92,0-13.44,0-4.44-.13-5.84,3.45-5.4,7.31,0,36.12,0,79.15,0,115.17-.71,36.2-.75,65.7,34.28,80.67,14.97,7.01,34.64,10.07,52.53,9.55,6.55-.15,13.06-.71,19.52-1.6,3.44-.43,7-.85,10.11.4,2.03.92,1.83,2.82,1.83,4.68,0,16.77,0,97.76,0,112.66.15,1.84-.46,3.6-2.14,4.57-3.46,2.18-10.61,3.58-15.38,4.24-10.41,1.68-22.31,2.83-33.01,3.45-56.13,2.94-117.22-7.17-158.43-45.78-38.2-35.62-53.17-87.86-52.38-141.16.02-36.9-.01-108.77,0-139.26,0-4.58,0-7.99,0-9.9-.02-2.56-1.23-4.28-4.69-4.87-5.78-.34-10.87-.02-20.17-.13-11.26,0-24.83,0-34.74,0-6.5-.52-15.02,1.75-17.18-2.88-1.49-16.95.08-93.29-.47-108.97-.05-1.85.58-3.68,2.18-4.61l.07-.04Z"/>
          <path class="cls-13" d="M6557.17,795.17c-1.47-.9-3.72-.08-6.25,1.71-12.32,11.19-25.36,21.47-41.33,29.62-31.97,17.68-76.34,22.11-116.11,18.33-185.61-20-242.68-264.04-132.28-395.02,38.44-46.67,100.16-71.84,160.54-70.12,31.09.6,59.52,4.65,86.17,18.15,15.23,7.62,28.97,17.36,40.49,28.66,1.87,1.76,5.02,4.18,7.13,4.17,3.26.01,3.69-4.23,4.38-6.76,1.61-7.16,4.55-20.32,6.05-26.93.74-2.7,1.32-5.89,3.76-7.29,23.78-1.73,85.57.1,111.78-.55,4.69.13,8.16-.95,10.74,2.41,1.39,11.92-.07,169.82.44,295.13-.08,66.97.06,104.88,0,145.95.15,2.19-3.3,4.34-5.74,3.96-14.92,0-98.58,0-113.22,0-4.75.32-5.87-3.64-7.12-8.48-1.73-7.05-4.98-20.34-6.66-27.17-.51-1.91-1.05-4.64-2.69-5.73l-.09-.05ZM6492.55,714.85c66.14-27.82,81.72-120.91,39.05-174.89-29.93-38.3-87.75-46.97-130.62-26.86-50.49,23.98-67.36,89.71-49.73,140.16,19.47,59.29,84.41,86.55,141.12,61.68l.18-.08Z"/>
        </g>
        <g id="simbolo_star-3" data-name="simbolo star">
          <path class="cls-23" d="M4647.42,257.09c-32.47,12.78-52.77,21.7-58.81,43.06l-.96,3.41c-4.46,15.67-1.75,32.56,7.96,45.69l.18.26c19.95-61.7,91.46-47.96,119.64-85.16,10.41-13.74,16.98-31.16,17.59-65.46-21,32.73-56.19,46.65-85.51,58.2h-.09Z"/>
          <path class="cls-14" d="M4722.86,73.13c-14.88,91.63-241.82,43.76-155.44,220.99,24.94-86.99,197.8-27.66,155.44-220.99Z"/>
          <path class="cls-6" d="M4596.65,221.82l1.31,7.96c.18.96-.88,1.75-1.75,1.23l-7.18-3.76s-.79-.18-1.14,0l-7.09,3.76c-.88.44-1.93-.26-1.75-1.23l1.4-7.96s0-.79-.35-1.05l-5.78-5.6c-.7-.7-.35-1.93.7-2.01l7.96-1.14s.7-.26.88-.61l3.59-7.26c.44-.88,1.66-.88,2.1,0l3.59,7.26s.53.61.88.61l7.96,1.14c.96.18,1.4,1.31.7,2.01l-5.78,5.6s-.44.7-.35,1.05h.09Z"/>
        </g>
      </g>
    </g>
  </g>
</svg>