<?xml version="1.0" encoding="UTF-8"?>
<svg id="Camada_1" data-name="Camada 1" xmlns="http://www.w3.org/2000/svg" viewBox="0 0 482.28 177.27">
  <defs>
    <style>
      .cls-1 {
        fill: #004070;
      }

      .cls-1, .cls-2, .cls-3, .cls-4 {
        stroke-width: 0px;
      }

      .cls-2 {
        fill: #fbba00;
      }

      .cls-3 {
        fill: #0069b4;
      }

      .cls-4 {
        fill: #76b82a;
      }
    </style>
  </defs>
  <path class="cls-4" d="M374.95,54.58c-9.64,3.79-15.64,6.44-17.46,12.77l-.29,1.01c-1.33,4.64-.51,9.67,2.36,13.55l.06.09c5.91-18.3,27.12-14.24,35.49-25.25,3.09-4.07,5.04-9.24,5.21-19.42-6.23,9.72-16.67,13.84-25.37,17.26Z"/>
  <path class="cls-3" d="M397.33,0c-4.41,27.18-71.73,12.97-46.1,65.55C358.63,39.74,409.89,57.36,397.33,0Z"/>
  <path class="cls-2" d="M359.89,44.1l.4,2.36c.05.29-.25.51-.51.37l-2.12-1.11c-.1-.05-.23-.05-.33,0l-2.12,1.11c-.26.14-.56-.08-.51-.37l.41-2.35c.02-.11-.02-.23-.1-.31l-1.71-1.67c-.21-.2-.09-.56.2-.6l2.37-.35c.11-.02.21-.09.27-.19l1.06-2.14c.13-.26.5-.26.63,0l1.06,2.14c.05.1.15.18.26.19l2.36.35c.29.04.4.4.2.6l-1.71,1.67c-.08.08-.12.2-.1.31Z"/>
  <path class="cls-1" d="M120.64,85.31v59.01h-24.79v-58.35c0-6.81-6.75-11.03-13-11.03-4.04,0-7.62,1.68-10.66,5,1.41,4.49,2.1,8.79,2.1,13.1l-.34,51.44h-21.66v-51.44c0-7.5-3.6-13.78-9.62-16.79-3.12-1.4-5.83-2.13-7.99-2.13-8.03,0-13,3.17-13,18.93v51.44H0v-51.44c0-25.52,12.96-40.76,34.67-40.76,9.31,0,18.78,3.76,26.23,10.36,6.63-6.69,15.47-10.36,25.07-10.36,7.7,0,16.27,3.39,22.94,9.06,7.57,6.44,11.73,14.95,11.73,23.97ZM190.5,92.89c-4.36-2.18-11.61-4.55-21.52-7.02-9.8-2.59-13.54-3.85-14.16-4.16l-.07-.04-.08-.03c-1.85-.7-4.05-1.87-4.05-3.41,0-.47,0-1.05.11-1.4.29-1.12,1.18-4.52,9.53-4.54l25.5,2.24,7.04-18.98-1.97-.31c-11.35-1.76-21.55-2.65-30.34-2.65-7.42,0-12.99.73-16.97,2.23-5.05,1.74-8.98,5.03-12.04,10.06-2.88,4.75-4.35,10.12-4.35,15.97,0,4.93,1.34,9.04,3.99,12.22,2.69,3.23,6.21,5.81,10.46,7.68,7.11,3.12,11.87,4.63,22.14,7,7.82,1.86,10.73,2.83,11.21,3.1l.11.06c3.14,1.57,3.54,3.3,3.54,4.63,0,.41,0,.88,0,.91l-.1.2-.04.21c-.37,1.86-1.62,3.3-3.69,4.27-2.06.95-5.46,1.5-9.35,1.5h-1.56l-23.13-2.42-8.77,20.07,28.11,2.87h2.71c10.33,0,18.84-1.9,25.29-5.63,7.12-4,11.7-10.16,13.63-18.4.44-2.5.85-5.1.85-7.19,0-8.19-4.04-14.58-12.08-19.05ZM389.82,68.55c-2.52,1.15-5.1,2.06-7.56,2.91-6.08,2.12-10.57,3.86-13.51,7.22,5.91,4.45,9.76,11.5,9.76,19.45,0,13.43-10.92,24.35-24.35,24.35s-24.35-11.15-24.35-24.35c0-11.21,8.04-20.93,18.55-23.62l-2.98-6.11c-2.49-5.12-4.26-9.86-5.31-14.25-18.59,5.97-32.09,23.42-32.09,43.98,0,25.03,21.15,46.18,46.18,46.18,8.71,0,16.89-2.35,24.35-6.98v6.48h21.66l.17-47c0-8.08-2.13-15.67-6.33-22.56-1.25-2.02-2.66-3.92-4.19-5.7ZM301.46,97.8h0v31.24c0,3.96-.49,7.8-1.43,11.47-5.08,20.02-23.14,34.87-44.59,34.87-7.23,0-14.08-1.64-20.18-4.57l8.76-20.06c3.41,1.78,7.3,2.79,11.42,2.79,9.93,0,18.47-6.1,22.19-14.79-6.87,3.84-14.16,5.72-22.2,5.72-25.56,0-46.35-20.64-46.35-46.02s20.64-46.35,46.02-46.35,46.34,20.49,46.35,45.69ZM279.63,98.13c0-13.34-11-24.18-24.51-24.18s-24.18,11-24.18,24.51,11,24.18,24.51,24.18,24.19-11,24.19-24.51ZM470.2,92.89c-4.36-2.18-11.61-4.55-21.52-7.02-9.8-2.59-13.54-3.85-14.16-4.16l-.07-.04-.08-.03c-1.85-.7-4.05-1.87-4.05-3.41,0-.47,0-1.05.11-1.4.29-1.12,1.18-4.52,9.53-4.54l25.5,2.24,7.04-18.98-1.97-.31c-11.35-1.76-21.55-2.65-30.34-2.65-7.42,0-12.99.73-16.97,2.23-5.05,1.74-8.98,5.03-12.04,10.06-2.88,4.75-4.35,10.12-4.35,15.97,0,4.93,1.34,9.04,3.99,12.22,2.69,3.23,6.21,5.81,10.46,7.68,7.11,3.12,11.87,4.63,22.14,7,7.82,1.86,10.73,2.83,11.21,3.1l.11.06c3.14,1.57,3.54,3.3,3.54,4.63,0,.41,0,.88,0,.91l-.1.2-.04.21c-.37,1.86-1.62,3.3-3.69,4.27-2.06.95-5.46,1.5-9.35,1.5h-1.56l-23.13-2.42-8.77,20.07,28.11,2.87h2.71c10.33,0,18.84-1.9,25.29-5.63,7.12-4,11.7-10.16,13.63-18.4.44-2.5.85-5.1.85-7.19,0-8.19-4.04-14.58-12.08-19.05Z"/>
</svg>