<?xml version="1.0" encoding="UTF-8"?>
<svg id="Camada_1" data-name="Camada 1" xmlns="http://www.w3.org/2000/svg" viewBox="0 0 482.28 177.27">
  <defs>
    <style>
      .cls-1 {
        fill: #fff;
        stroke-width: 0px;
      }
    </style>
  </defs>
  <path class="cls-1" d="M400.19,38.3c-.17,10.17-2.11,15.33-5.2,19.4-8.36,11.01-29.56,6.95-35.46,25.23l-.06-.09c-2.87-3.88-3.69-8.9-2.36-13.54l.29-1.01c1.81-6.33,7.81-8.97,17.45-12.76,8.69-3.42,19.12-7.54,25.35-17.25ZM351.14,66.51c-25.61-52.54,41.66-38.35,46.07-65.5,12.55,57.31-38.67,39.71-46.07,65.5ZM361.41,42.5l-2.36-.35c-.11-.02-.21-.09-.26-.19l-1.06-2.14c-.13-.26-.5-.26-.63,0l-1.05,2.14c-.05.1-.15.18-.27.19l-2.37.35c-.29.04-.4.4-.2.6l1.71,1.67c.08.08.12.2.1.31l-.41,2.35c-.05.29.25.51.51.37l2.11-1.11c.1-.05.22-.05.33,0l2.12,1.11c.26.14.56-.08.51-.37l-.4-2.35c-.02-.11.02-.23.1-.31l1.71-1.67c.21-.2.09-.56-.2-.6ZM109.02,62.3c-6.66-5.67-15.23-9.05-22.92-9.05-9.59,0-18.42,3.66-25.05,10.35-7.44-6.6-16.91-10.35-26.21-10.35C13.15,53.25.19,68.47.19,93.97v51.4h21.65v-51.4c0-15.75,4.97-18.91,12.99-18.91,2.16,0,4.86.73,7.98,2.13,6.02,3.01,9.61,9.28,9.61,16.78v51.4h21.64l.34-51.4c0-4.32-.69-8.61-2.09-13.09,3.03-3.31,6.61-4.99,10.65-4.99,6.25,0,12.99,4.21,12.99,11.02v58.3h24.77v-58.96c0-9.01-4.16-17.52-11.72-23.95ZM202.62,112.86c0,2.09-.41,4.69-.85,7.18-1.93,8.24-6.5,14.39-13.62,18.39-6.44,3.73-14.95,5.63-25.27,5.63h-2.71l-28.09-2.86,8.76-20.05,23.11,2.42h1.56c3.88,0,7.28-.54,9.34-1.49,2.07-.97,3.31-2.4,3.69-4.26l.04-.21.1-.2s0-.5,0-.91c0-1.33-.4-3.06-3.54-4.62l-.11-.06c-.48-.27-3.39-1.24-11.2-3.1-10.26-2.37-15.02-3.87-22.13-6.99-4.25-1.87-7.77-4.45-10.45-7.68-2.65-3.18-3.99-7.29-3.99-12.21,0-5.84,1.46-11.21,4.34-15.96,3.05-5.03,6.99-8.32,12.03-10.06,3.98-1.49,9.54-2.22,16.96-2.22,8.78,0,18.97.89,30.31,2.65l1.97.3-7.04,18.96-25.48-2.24c-8.35.02-9.23,3.42-9.53,4.53-.11.35-.11.93-.11,1.4,0,1.54,2.2,2.71,4.04,3.41l.08.03.07.04c.61.31,4.36,1.57,14.14,4.15,9.9,2.48,17.14,4.84,21.5,7.02,8.03,4.46,12.07,10.85,12.07,19.03ZM393.89,75.21c4.2,6.88,6.32,14.46,6.32,22.54l-.17,46.97h-21.65v-6.48c-7.45,4.63-15.62,6.97-24.33,6.97-25.01,0-46.15-21.13-46.15-46.15,0-20.54,13.49-37.97,32.06-43.94,1.05,4.39,2.81,9.13,5.31,14.24l2.97,6.1c-10.5,2.68-18.53,12.4-18.53,23.6,0,13.19,11.14,24.33,24.33,24.33s24.33-10.91,24.33-24.33c0-7.94-3.84-14.99-9.75-19.43,2.94-3.36,7.42-5.09,13.5-7.21,2.46-.86,5.04-1.76,7.56-2.91,1.52,1.79,2.93,3.68,4.18,5.7ZM255.1,53.08c-25.35,0-45.98,20.77-45.98,46.31s20.77,45.98,46.31,45.98c8.03,0,15.31-1.88,22.18-5.71-3.72,8.69-12.26,14.78-22.18,14.78-4.12,0-8-1.01-11.41-2.79l-8.76,20.04c6.1,2.92,12.94,4.56,20.17,4.56,21.43,0,39.48-14.84,44.55-34.84.94-3.67,1.43-7.51,1.43-11.46v-31.22h0c0-25.17-20.77-45.65-46.31-45.65ZM255.43,123.56c-13.51,0-24.49-10.84-24.49-24.16s10.84-24.49,24.16-24.49,24.49,10.84,24.49,24.16-10.84,24.49-24.17,24.49ZM482.08,112.86c0,2.09-.41,4.69-.85,7.18-1.93,8.24-6.5,14.39-13.62,18.39-6.44,3.73-14.96,5.63-25.27,5.63h-2.71l-28.09-2.86,8.76-20.05,23.11,2.42h1.56c3.88,0,7.29-.54,9.34-1.49,2.07-.97,3.31-2.4,3.69-4.26l.04-.21.1-.2s0-.5,0-.91c0-1.33-.4-3.06-3.54-4.62l-.11-.06c-.48-.27-3.39-1.24-11.2-3.1-10.26-2.37-15.02-3.87-22.13-6.99-4.25-1.87-7.76-4.45-10.45-7.68-2.65-3.18-3.99-7.29-3.99-12.21,0-5.84,1.46-11.21,4.34-15.96,3.05-5.03,6.99-8.32,12.03-10.06,3.98-1.49,9.54-2.22,16.96-2.22,8.78,0,18.97.89,30.31,2.65l1.97.3-7.04,18.96-25.48-2.24c-8.35.02-9.23,3.42-9.53,4.53-.11.35-.11.93-.11,1.4,0,1.54,2.2,2.71,4.05,3.41l.08.03.07.04c.61.31,4.35,1.57,14.14,4.15,9.9,2.48,17.14,4.84,21.5,7.02,8.03,4.46,12.07,10.85,12.07,19.03Z"/>
</svg>