<?xml version="1.0" encoding="UTF-8"?>
<svg id="Camada_2" data-name="Camada 2" xmlns="http://www.w3.org/2000/svg" viewBox="0 0 476 158.29">
  <defs>
    <style>
      .cls-1 {
        fill: #76b82a;
      }

      .cls-2 {
        fill: #fbba09;
      }

      .cls-3 {
        fill: #0d4574;
      }

      .cls-4 {
        fill: #0069b4;
      }

      .cls-5 {
        fill: #fbba00;
      }

      .cls-6 {
        fill: #004070;
      }

      .cls-7 {
        fill: #76b82f;
      }
    </style>
  </defs>
  <g id="Camada_1-2" data-name="Camada 1">
    <g>
      <g>
        <path class="cls-2" d="M0,100.9l19.62,42.42s110.41-69.97,155,0c0,0-46.73-76.6-145.07-50.06,0,0-22.77,5.22-29.55,7.64Z"/>
        <path class="cls-7" d="M15.26,71.35l12.11,45.3s102.17-43.3,147.25,26.67c0,0-20.08-66.16-72.4-70.03-52.32-3.88-74.35-3.52-86.96-1.94Z"/>
        <path class="cls-4" d="M47.4,43.2l2.55,47.46s85.01-14.53,124.68,52.67c0,0-19.78-71.67-81.36-88.66,0,0-4.67-4.25-45.86-11.47Z"/>
        <path class="cls-3" d="M79.6,14.3l-4.19,45.65s62.88,2.79,99.22,83.38c0,0-6.99-97.82-95.02-129.03Z"/>
      </g>
      <g id="logo_msgas-organizado_PRINCIPAL">
        <path class="cls-1" d="M409.69,93.66c-5.16,2.03-8.37,3.45-9.34,6.83l-.16.54c-.71,2.48-.27,5.17,1.26,7.25l.03.05c3.16-9.79,14.51-7.62,18.99-13.51,1.65-2.18,2.7-4.94,2.79-10.39-3.33,5.2-8.92,7.4-13.57,9.23h0Z"/>
        <path class="cls-4" d="M421.66,64.46c-2.36,14.54-38.38,6.94-24.66,35.07,3.96-13.81,31.38-4.38,24.66-35.07Z"/>
        <path class="cls-5" d="M401.63,88.06l.21,1.26c.03.16-.13.27-.27.2l-1.13-.59c-.05-.03-.12-.03-.18,0l-1.13.59c-.14.07-.3-.04-.27-.2l.22-1.26c.01-.06-.01-.12-.05-.17l-.91-.89c-.11-.11-.05-.3.11-.32l1.27-.19c.06-.01.11-.05.14-.1l.57-1.14c.07-.14.27-.14.34,0l.57,1.14c.03.05.08.1.14.1l1.26.19c.16.02.21.21.11.32l-.91.89s-.06.11-.05.17h0Z"/>
        <path class="cls-6" d="M273.62,110.1v31.57h-13.26v-31.22c0-3.64-3.61-5.9-6.96-5.9-2.16,0-4.08.9-5.7,2.68.75,2.4,1.12,4.7,1.12,7.01l-.18,27.52h-11.59v-27.52c0-4.01-1.93-7.37-5.15-8.98-1.67-.75-3.12-1.14-4.27-1.14-4.3,0-6.96,1.7-6.96,10.13v27.52h-11.6v-27.52c0-13.65,6.93-21.81,18.55-21.81,4.98,0,10.05,2.01,14.03,5.54,3.55-3.58,8.28-5.54,13.41-5.54,4.12,0,8.7,1.81,12.27,4.85,4.05,3.45,6.28,8,6.28,12.82h0ZM311,114.16c-2.33-1.17-6.21-2.43-11.51-3.76-5.24-1.39-7.24-2.06-7.58-2.23l-.04-.02-.04-.02c-.99-.37-2.17-1-2.17-1.82,0-.25,0-.56.06-.75.16-.6.63-2.42,5.1-2.43l13.64,1.2,3.77-10.15-1.05-.17c-6.07-.94-11.53-1.42-16.23-1.42-3.97,0-6.95.39-9.08,1.19-2.7.93-4.8,2.69-6.44,5.38-1.54,2.54-2.33,5.41-2.33,8.54,0,2.64.72,4.84,2.13,6.54,1.44,1.73,3.32,3.11,5.6,4.11,3.8,1.67,6.35,2.48,11.85,3.75,4.18,1,5.74,1.51,6,1.66l.06.03c1.68.84,1.89,1.77,1.89,2.48v.49l-.05.11-.02.11c-.2,1-.87,1.77-1.97,2.28-1.1.51-2.92.8-5,.8h-.83l-12.38-1.29-4.69,10.74,15.04,1.54h1.45c5.53,0,10.08-1.02,13.53-3.01,3.81-2.14,6.26-5.44,7.29-9.84.24-1.34.45-2.73.45-3.85,0-4.38-2.16-7.8-6.46-10.19h.03ZM417.64,101.14c-1.35.62-2.73,1.1-4.04,1.56-3.25,1.13-5.66,2.07-7.23,3.86,3.16,2.38,5.22,6.15,5.22,10.41,0,7.19-5.84,13.03-13.03,13.03s-13.03-5.97-13.03-13.03c0-6,4.3-11.2,9.92-12.64l-1.59-3.27c-1.33-2.74-2.28-5.28-2.84-7.62-9.95,3.19-17.17,12.53-17.17,23.53,0,13.39,11.32,24.71,24.71,24.71,4.66,0,9.04-1.26,13.03-3.73v3.47h11.59l.09-25.15c0-4.32-1.14-8.38-3.39-12.07-.67-1.08-1.42-2.1-2.24-3.05ZM370.37,116.79h0v16.71c0,2.12-.26,4.17-.77,6.14-2.72,10.71-12.38,18.66-23.86,18.66-3.87,0-7.53-.88-10.8-2.45l4.69-10.73c1.82.95,3.91,1.49,6.11,1.49,5.31,0,9.88-3.26,11.87-7.91-3.68,2.05-7.58,3.06-11.88,3.06-13.68,0-24.8-11.04-24.8-24.62s11.04-24.8,24.62-24.8,24.79,10.96,24.8,24.45h0ZM358.69,116.96c0-7.14-5.89-12.94-13.11-12.94s-12.94,5.89-12.94,13.11,5.89,12.94,13.11,12.94,12.94-5.89,12.94-13.11h0ZM460.65,114.16c-2.33-1.17-6.21-2.43-11.51-3.76-5.24-1.39-7.24-2.06-7.58-2.23l-.04-.02-.04-.02c-.99-.37-2.17-1-2.17-1.82,0-.25,0-.56.06-.75.16-.6.63-2.42,5.1-2.43l13.64,1.2,3.77-10.15-1.05-.17c-6.07-.94-11.53-1.42-16.23-1.42-3.97,0-6.95.39-9.08,1.19-2.7.93-4.8,2.69-6.44,5.38-1.54,2.54-2.33,5.41-2.33,8.54,0,2.64.72,4.84,2.13,6.54,1.44,1.73,3.32,3.11,5.6,4.11,3.8,1.67,6.35,2.48,11.85,3.75,4.18,1,5.74,1.51,6,1.66l.06.03c1.68.84,1.89,1.77,1.89,2.48v.49l-.05.11-.02.11c-.2,1-.87,1.77-1.97,2.28-1.1.51-2.92.8-5,.8h-.83l-12.38-1.29-4.69,10.74,15.04,1.54h1.45c5.53,0,10.08-1.02,13.53-3.01,3.81-2.14,6.26-5.44,7.29-9.84.24-1.34.45-2.73.45-3.85,0-4.38-2.16-7.8-6.46-10.19h.03Z"/>
      </g>
      <g>
        <path class="cls-3" d="M199.14,61.55l-.39-.34v-2.23l.39-.34c2.09-.03,3.43-.14,4.03-.32.6-.19,1.14-.56,1.61-1.12s1.42-2.38,2.85-5.47l4.5-9.78,11.67-26.42c2.2-5.17,4.39-10.35,6.56-15.53h2.79l18.31,43.06,2.45,5.75c.71,1.63,1.54,3.4,2.47,5.32.93,1.92,1.57,3.05,1.93,3.39.36.34.8.61,1.33.79.53.19,1.71.29,3.54.32l.34.34v2.23l-.34.34c-3.03-.26-5.76-.39-8.19-.39-4.75.14-9.49.27-14.24.39l-.34-.34v-2.23l.34-.34c3.2-.06,5.2-.19,6-.41s1.2-.71,1.2-1.48c0-.63-.2-1.46-.6-2.49l-5.28-13.08h-24.83l-4.67,10.98c-.83,1.97-1.24,3.42-1.24,4.33,0,.72.39,1.24,1.16,1.59.77.34,2.72.53,5.83.56l.39.34v2.23l-.34.34c-3.69-.23-6.92-.34-9.69-.34-3.15,0-6.32.11-9.52.34ZM218.69,37.49h21.7l-10.77-25.86-10.94,25.86Z"/>
        <path class="cls-3" d="M302.8,56.62l-1.72,2.87c-3.69,2.03-7.81,3.05-12.35,3.05-6.29,0-11.15-1.87-14.58-5.62-3.43-3.75-5.15-8.58-5.15-14.5,0-2.69.29-5.08.88-7.18.59-2.1,1.33-3.84,2.23-5.21s1.89-2.46,2.98-3.26c1.09-.8,2.92-1.92,5.51-3.35,2.59-1.43,4.54-2.37,5.85-2.81s3.13-.67,5.45-.67c4.43,0,8.06.84,10.89,2.53-.54,3.23-.96,6.83-1.24,10.81l-.39.34h-1.76l-.39-.39c-.11-2.4-.27-4.02-.47-4.85-.2-.83-1.34-1.72-3.41-2.66-2.07-.94-4.28-1.42-6.63-1.42s-4.43.49-6.26,1.48c-1.83.99-3.21,2.6-4.14,4.85-.93,2.25-1.39,4.93-1.39,8.04,0,2.63.37,5.2,1.12,7.7.74,2.5,1.72,4.58,2.94,6.22,1.21,1.64,2.82,2.97,4.83,3.97,2,1,4.23,1.5,6.69,1.5,1.54,0,3.05-.2,4.53-.6,1.47-.4,3.17-1.06,5.08-1.97l.9,1.12Z"/>
        <path class="cls-3" d="M342.48,54.9l-1.37,3.09c-2.97,1.92-5.63,3.16-7.96,3.73-2.33.57-4.41.86-6.24.86-3.43,0-6.68-.67-9.76-2.02-3.07-1.34-5.58-3.62-7.51-6.82-1.93-3.2-2.9-7.06-2.9-11.58,0-3,.37-5.71,1.12-8.13.74-2.42,1.52-4.21,2.34-5.38.81-1.17,2.19-2.47,4.14-3.9,1.94-1.43,4-2.57,6.18-3.43s4.52-1.29,7.03-1.29c3.43,0,6.46.81,9.07,2.42,2.62,1.62,4.45,3.68,5.51,6.2,1.06,2.52,1.59,5.19,1.59,8.02,0,.89-.04,1.74-.13,2.57l-.47.47c-1.95.43-4.56.71-7.85.86-3.29.14-5.46.21-6.52.21h-13.77c.06,5.92,1.54,10.28,4.46,13.08,2.92,2.8,6.49,4.2,10.72,4.2,2,0,3.92-.34,5.77-1.03,1.84-.69,3.8-1.64,5.85-2.87l.69.73ZM314.98,37.36c.51.09,2.49.19,5.94.3,3.45.11,6,.17,7.66.17,3.97,0,6.39-.07,7.25-.21.03-.69.04-1.21.04-1.59,0-4.43-.9-7.73-2.7-9.89-1.8-2.16-4.26-3.24-7.38-3.24-3.4,0-6.06,1.22-7.96,3.65-1.9,2.43-2.85,6.03-2.85,10.81Z"/>
        <path class="cls-3" d="M363.11,20.33l.82.56c-.17,1.66-.3,4.6-.39,8.84l3.22-4.07c1.06-1.34,1.99-2.38,2.81-3.11.82-.73,1.77-1.29,2.85-1.69s2.2-.6,3.35-.6c1.26,0,2.44.26,3.56.77l.3.6c-.46,3.8-.71,7.15-.77,10.04h-1.93c-1.14-2.63-2.99-3.95-5.53-3.95-1.77,0-3.32.56-4.63,1.69-1.32,1.13-2.2,2.55-2.64,4.25-.44,1.7-.67,3.85-.67,6.46v4.76c0,.86.06,2.96.17,6.3.11,3.35.24,5.28.36,5.79s.33.89.6,1.14c.27.24.63.41,1.07.49.44.09,2.48.23,6.11.43l.39.34v1.8l-.39.39c-3.8-.23-7.78-.34-11.92-.34-3.29,0-6.72.11-10.29.34l-.39-.39v-1.8l.39-.34c2.77-.17,4.34-.3,4.7-.39.36-.09.67-.26.94-.54.27-.27.46-.69.56-1.24.1-.56.21-2.4.34-5.53.13-3.13.19-5.5.19-7.1v-8.45c0-1.14-.06-2.7-.17-4.67-.11-1.97-.21-3.19-.28-3.65-.07-.46-.29-.79-.67-1.01-.37-.21-1.12-.32-2.23-.32l-3.6-.04-.39-.34v-1.84l.34-.34c5.46-.66,10.06-1.73,13.81-3.22Z"/>
        <path class="cls-3" d="M403.21,61.98l-2.66-6.73-3.17-7.33-8.79-20.46c-.57-1.34-1.08-2.23-1.52-2.66s-.89-.69-1.35-.77c-.46-.09-1.37-.16-2.75-.21l-.34-.34v-1.84l.39-.39c4,.2,7.18.3,9.52.3,3.32,0,6.65-.1,9.99-.3l.34.34v1.89l-.34.34c-2.97.09-4.7.29-5.19.62-.49.33-.73.75-.73,1.27,0,.86.57,2.7,1.72,5.53l5.23,13.04,4.12,9.74,4.29-9.74,3.56-8.84c1.37-3.35,2.26-5.72,2.66-7.12.4-1.4.6-2.33.6-2.79,0-.54-.32-.94-.94-1.18-.63-.24-2.22-.42-4.76-.54l-.34-.34v-1.84l.39-.39c3.54.2,6.2.3,7.98.3,1.49,0,4.03-.1,7.63-.3l.39.39v1.84l-.34.34c-1.69.14-2.81.39-3.37.73s-1.1,1.01-1.63,1.99c-.53.99-2.05,4.05-4.57,9.2l-4.12,8.79c-.69,1.49-3.16,7.31-7.42,17.46h-4.46Z"/>
        <path class="cls-3" d="M433.88,41.56c0-3.4.7-6.68,2.1-9.84,1.4-3.16,3.84-5.89,7.31-8.19,3.47-2.3,7.6-3.45,12.37-3.45,6,0,10.89,1.89,14.67,5.68,3.77,3.79,5.66,8.66,5.66,14.6,0,6.55-2.17,11.94-6.5,16.17-4.33,4.23-9.56,6.35-15.68,6.35-4,0-7.58-1.08-10.72-3.24s-5.47-4.8-6.97-7.91c-1.5-3.12-2.25-6.5-2.25-10.17ZM441.99,38.6c0,4,.51,7.58,1.54,10.74,1.03,3.16,2.66,5.7,4.89,7.61,2.23,1.92,4.77,2.87,7.63,2.87,3.37,0,6.16-1.34,8.36-4.01,2.2-2.67,3.3-6.7,3.3-12.07,0-6.09-1.19-11.08-3.58-14.97-2.39-3.89-5.83-5.83-10.31-5.83-3.72,0-6.62,1.34-8.71,4.03-2.09,2.69-3.13,6.56-3.13,11.62Z"/>
      </g>
    </g>
  </g>
</svg>