<?xml version="1.0" encoding="UTF-8"?>
<svg xmlns="http://www.w3.org/2000/svg" xmlns:xlink="http://www.w3.org/1999/xlink" viewBox="0 0 1722.29 1016.37">
  <defs>
    <style>
      .cls-1 {
        fill: none;
      }

      .cls-2 {
        fill: #fcda2a;
      }

      .cls-3 {
        fill: #ee3f95;
      }

      .cls-4, .cls-5 {
        fill: #e7d04f;
      }

      .cls-6 {
        fill: #070a25;
      }

      .cls-7 {
        fill: #fbba00;
      }

      .cls-8 {
        fill: #0d4574;
      }

      .cls-9 {
        fill: #190e60;
      }

      .cls-10 {
        fill: #ff6142;
      }

      .cls-11 {
        opacity: .7;
      }

      .cls-11, .cls-12, .cls-13 {
        mix-blend-mode: multiply;
      }

      .cls-11, .cls-13 {
        fill: #e6c378;
      }

      .cls-14 {
        fill: #004070;
      }

      .cls-15 {
        fill: #0069b4;
      }

      .cls-16 {
        isolation: isolate;
      }

      .cls-17 {
        fill: #ffba29;
      }

      .cls-18 {
        fill: #76b82f;
        font-family: SantEliaScript-Bold, 'SantElia Script';
        font-size: 175.63px;
        font-weight: 700;
      }

      .cls-19 {
        fill: #fff;
      }

      .cls-20 {
        fill: #f9f9f9;
      }

      .cls-21 {
        fill: #7286ff;
      }

      .cls-22 {
        opacity: .54;
      }

      .cls-23 {
        fill: #97d7ff;
      }

      .cls-12 {
        fill: #c6991a;
      }

      .cls-24 {
        fill: #00ac9b;
      }

      .cls-25 {
        fill: #76b82a;
      }

      .cls-26 {
        fill: #ff9d87;
      }

      .cls-27 {
        fill: #d29319;
      }

      .cls-5 {
        mix-blend-mode: screen;
      }

      .cls-28 {
        clip-path: url(#clippath);
      }

      .cls-29 {
        fill: #d2921a;
      }

      .cls-30 {
        letter-spacing: .01em;
      }
    </style>
    <clipPath id="clippath">
      <path class="cls-1" d="M859.37,768.32v250.05h864.93v-250.05h-864.93ZM886.54,919.55c-10.23-9.9-16.28-23.87-17.49-40.54l15.76,1.65h2.96c4.79,0,9.18-.44,12.75-1.24,2.67,16.69,12.43,27.85,27.17,31.14-10.99,5.56-24.8,8.6-41.16,9Z"/>
    </clipPath>
  </defs>
  <g class="cls-16">
    <g id="Camada_2" data-name="Camada 2">
      <g id="Camada_19" data-name="Camada 19">
        <g>
          <g class="cls-22">
            <g>
              <g>
                <g>
                  <path class="cls-4" d="M969.91,253.6c-128.88-29.27-178.38-24.94-302.17,24.14-5.24-10.19-12.3-19.62-16.97-30.05,129.63-56.89,192.27-58.97,326.11-27.23-2.35,11.04-4.68,22.09-6.97,33.14Z"/>
                  <path class="cls-5" d="M974.2,233.07c-133.64-31.2-187.58-26.79-316.79,26.06-.65-.95-1.3-1.89-1.95-2.84,130.09-53.23,184.89-58.41,319.43-26.5-.23,1.09-.46,2.19-.7,3.28Z"/>
                  <path class="cls-13" d="M975.91,225.03c-132.99-31.54-194.61-29.29-323.19,27.1-.64-1.49-1.25-2.99-1.94-4.45,129.63-56.89,192.27-58.97,326.11-27.23-.32,1.52-.65,3.05-.97,4.57Z"/>
                  <path class="cls-11" d="M969.91,253.6c-128.88-29.27-178.38-24.94-302.17,24.14-2.04-3.62-3.09-7.6-5.36-11.13,124.57-52.4,180.9-54.16,309.98-24.85-.82,3.95-1.63,7.89-2.45,11.84Z"/>
                  <path class="cls-12" d="M656.46,245.19c-1.9.83-3.8,1.66-5.69,2.5,4.67,10.42,11.73,19.86,16.97,30.05,1.54-.6,3.08-1.22,4.61-1.86-4.34-10.81-11.24-20.03-15.89-30.69Z"/>
                  <path class="cls-12" d="M970.52,218.95c-2.36,11.06-4.52,22.16-6.81,33.24,2.07.47,4.14.94,6.21,1.41,2.29-11.05,4.62-22.1,6.97-33.14-2.12-.5-4.24-1.01-6.37-1.51Z"/>
                </g>
                <path class="cls-27" d="M671.89,279.3c-2.69,1.05-5.38,2.1-8.07,3.15-6.6-11.74-15.21-22.77-20.78-34.97,3.29-1.32,6.57-2.64,9.81-4.06,5.8,12.13,12.46,24.18,19.04,35.89Z"/>
                <g>
                  <path class="cls-2" d="M651.23,248.33c.41.92-.47,1.76-1.27,2.11s-1.97.41-2.4-.5c-.43-.91.44-1.73,1.23-2.08.79-.34,2.03-.45,2.44.47Z"/>
                  <path class="cls-2" d="M656.73,257.91c.51.76-.03,1.51-.81,1.82-.78.31-1.89.25-2.4-.51-.51-.76.05-1.49.82-1.8.77-.31,1.88-.27,2.39.49Z"/>
                  <path class="cls-2" d="M662.79,267.02c.48.76-.07,1.49-.82,1.81-.76.31-1.82.26-2.29-.5-.48-.76.06-1.49.82-1.8.76-.31,1.82-.26,2.3.5Z"/>
                  <path class="cls-2" d="M667.47,277.03c.42.75-.04,1.47-.78,1.76-.75.29-1.7.12-2.11-.63-.41-.74.02-1.46.78-1.76.76-.31,1.7-.12,2.12.63Z"/>
                </g>
                <path class="cls-27" d="M972.42,257.22c-2.25-.51-4.5-1.02-6.74-1.53,2.69-13.01,5.33-26.03,8.1-39.02,2.31.55,4.62,1.1,6.94,1.62-2.75,12.98-5.61,25.93-8.29,38.93Z"/>
                <g>
                  <path class="cls-2" d="M977.7,221.41c-.15.72-.79,1.21-1.52,1.04-.74-.18-1.12-.91-.97-1.63.15-.72.8-1.2,1.53-1.03.73.17,1.11.9.96,1.62Z"/>
                  <path class="cls-2" d="M975.47,231.94c-.15.72-.8,1.23-1.54,1.06-.74-.17-1.12-.91-.97-1.64.15-.72.8-1.2,1.53-1.02.73.17,1.13.88.97,1.6Z"/>
                  <path class="cls-2" d="M973.2,242.5c-.15.71-.75,1.23-1.49,1.06-.73-.17-1.09-.9-.94-1.61.15-.71.76-1.22,1.5-1.06.73.17,1.08.9.93,1.61Z"/>
                  <path class="cls-2" d="M971.01,253.08c-.15.71-.75,1.22-1.48,1.05-.73-.17-1.09-.89-.95-1.6s.76-1.22,1.5-1.06c.73.17,1.08.9.93,1.61Z"/>
                </g>
              </g>
              <g>
                <g>
                  <path class="cls-4" d="M658.7,281.26c-131.22,51.18-169.04,3.09-280.62-52.32,6.04-10.16,12.07-20.31,18.11-30.47,112.52,55.92,111.31,94.81,245.04,52.85,5.08,10.36,11.82,19.89,17.47,29.94Z"/>
                  <path class="cls-5" d="M647.81,262.93c-134.42,44.3-144.91,3.62-258.52-52.84.6-1.01,1.2-2.02,1.8-3.03,112.85,56.06,121.09,96.99,254.97,52.88.58.99,1.16,1.99,1.75,2.98Z"/>
                  <path class="cls-13" d="M643.53,255.64c-132.75,43.73-138.32,2.5-249.84-52.95.83-1.4,1.67-2.81,2.5-4.21,112.52,55.92,111.31,94.81,245.04,52.85.72,1.47,1.47,2.9,2.3,4.31Z"/>
                  <path class="cls-11" d="M658.7,281.26c-131.22,51.18-169.04,3.09-280.62-52.32,2.15-3.62,4.3-7.24,6.46-10.86,114.01,56.61,133.58,99.28,268.01,52.62,2.32,3.37,4.15,7,6.16,10.56Z"/>
                  <path class="cls-12" d="M399.83,200.28c-1.21-.6-2.42-1.2-3.63-1.81-6.04,10.16-12.07,20.31-18.11,30.47,1.21.6,2.42,1.2,3.63,1.8,6.04-10.16,12.07-20.31,18.11-30.47Z"/>
                  <path class="cls-12" d="M634.84,253.33c5.1,10.38,10.77,20.75,16.43,30.83,2.47-.97,4.95-1.93,7.43-2.9-5.65-10.05-12.38-19.58-17.47-29.94-2.13.67-4.26,1.34-6.39,2.01Z"/>
                </g>
                <path class="cls-27" d="M378.67,232.7c-2.18-1.08-4.36-2.17-6.54-3.25,7.1-11.94,14.19-23.88,21.29-35.82,2.18,1.08,4.36,2.17,6.54,3.25-7.1,11.94-14.19,23.88-21.29,35.82Z"/>
                <g>
                  <path class="cls-2" d="M395.88,199.19c-.39.65-1.19,1-1.9.64-.71-.35-.84-1.16-.45-1.81.39-.65,1.2-.98,1.9-.63.7.35.84,1.15.45,1.8Z"/>
                  <path class="cls-2" d="M390.11,208.89c-.39.65-1.2,1.01-1.91.65-.71-.35-.83-1.16-.44-1.82.39-.66,1.2-.98,1.9-.63.7.35.84,1.15.45,1.8Z"/>
                  <path class="cls-2" d="M384.34,218.6c-.39.65-1.19.99-1.9.64-.71-.35-.84-1.15-.45-1.81s1.2-.99,1.9-.64c.71.35.83,1.15.44,1.81Z"/>
                  <path class="cls-2" d="M378.57,228.31c-.39.65-1.19.98-1.89.63-.7-.35-.85-1.14-.45-1.8.39-.66,1.2-.99,1.9-.64.71.35.83,1.15.44,1.81Z"/>
                </g>
                <path class="cls-27" d="M663.88,282.42c-2.69,1.05-5.38,2.1-8.07,3.15-6.67-11.87-13.72-23.68-19.72-35.9,2.34-.73,4.72-1.39,7.02-2.22,5.46,12.23,14.18,23.26,20.77,34.98Z"/>
                <g>
                  <path class="cls-2" d="M642.55,251.72c.34.68.15,1.45-.61,1.69-.76.24-1.55-.22-1.89-.9-.34-.68-.13-1.44.62-1.68.75-.24,1.54.21,1.88.89Z"/>
                  <path class="cls-2" d="M648.08,261.38c.39.66.19,1.39-.55,1.64-.74.25-1.59-.13-1.98-.8s-.17-1.37.57-1.62c.74-.25,1.58.12,1.97.78Z"/>
                  <path class="cls-2" d="M654.1,270.65c.5.77-.04,1.48-.82,1.81-.78.33-1.72.07-2.13-.66s-.19-1.34.57-1.65c.76-.31,1.88-.27,2.38.5Z"/>
                  <path class="cls-2" d="M659.46,280.16c.41.74-.03,1.46-.78,1.75-.75.29-1.7.12-2.12-.63-.41-.74.03-1.47.78-1.76.75-.29,1.71-.11,2.12.63Z"/>
                </g>
              </g>
            </g>
            <g>
              <g>
                <g>
                  <path class="cls-4" d="M1571.08,245.45c-97.16,18.84-192.71,39.73-291.5,47.84-.77-11.35-1.61-22.7-2.53-34.04,97.42-6.97,191.6-28.63,287.29-47.19,2.25,11.13,4.49,22.26,6.74,33.39Z"/>
                  <path class="cls-5" d="M1566.91,224.79c-96.29,18.66-190.95,39.76-288.89,47.47-.08-1.13-.16-2.26-.25-3.4,97.8-7.7,192.31-28.75,288.46-47.39.22,1.1.45,2.21.67,3.32Z"/>
                  <path class="cls-13" d="M1565.27,216.67c-95.92,18.59-190.25,39.93-287.85,47.27-.11-1.56-.25-3.13-.37-4.69,97.42-6.97,191.6-28.63,287.29-47.19.31,1.54.62,3.08.93,4.61Z"/>
                  <path class="cls-11" d="M1571.08,245.45c-97.16,18.84-192.71,39.73-291.5,47.84-.27-4.03-.56-8.06-.9-12.08,98.29-7.88,193.34-28.93,289.99-47.66.8,3.97,1.6,7.94,2.4,11.91Z"/>
                  <path class="cls-12" d="M1281.3,258.95c-1.42.1-2.83.2-4.25.3.92,11.34,1.77,22.69,2.53,34.04,1.45-.12,2.9-.24,4.35-.35-.86-11.33-1.71-22.66-2.63-33.99Z"/>
                  <path class="cls-12" d="M1557.4,213.4c2.25,11.13,4.54,22.26,6.73,33.41,2.31-.46,4.63-.91,6.94-1.36-2.25-11.13-4.49-22.26-6.74-33.39-2.31.45-4.62.9-6.94,1.34Z"/>
                </g>
                <path class="cls-27" d="M1282.41,296.04c-2.63.22-5.27.44-7.9.66-.9-13.32-1.75-26.65-2.77-39.97,2.54-.25,5.08-.45,7.62-.64,1.05,13.31,2.13,26.63,3.05,39.95Z"/>
                <g>
                  <path class="cls-2" d="M1277.21,259.98c.06.78-.49,1.41-1.26,1.46s-1.42-.47-1.48-1.25c-.06-.78.49-1.41,1.26-1.47.77-.06,1.42.48,1.48,1.26Z"/>
                  <path class="cls-2" d="M1278.02,270.85c.06.79-.5,1.44-1.29,1.5s-1.43-.49-1.49-1.28c-.06-.79.51-1.41,1.29-1.47s1.43.47,1.49,1.26Z"/>
                  <path class="cls-2" d="M1278.83,281.73c.07.79-.5,1.41-1.29,1.47-.78.06-1.44-.46-1.5-1.25s.5-1.41,1.28-1.47c.78-.06,1.44.46,1.51,1.25Z"/>
                  <path class="cls-2" d="M1279.63,292.52c.05.8-.55,1.41-1.33,1.47s-1.46-.44-1.51-1.24c-.05-.8.54-1.42,1.33-1.48.78-.07,1.46.45,1.51,1.25Z"/>
                </g>
                <path class="cls-27" d="M1575.14,247.71c-2.52.49-5.03.99-7.55,1.49-2.55-13.11-5.26-26.19-7.9-39.28,2.51-.49,5.02-.97,7.53-1.46,2.64,13.08,5.28,26.17,7.92,39.26Z"/>
                <g>
                  <path class="cls-2" d="M1565.54,212.58c.15.76-.31,1.46-1.08,1.61-.77.15-1.48-.31-1.63-1.08-.15-.77.33-1.45,1.09-1.6.76-.15,1.46.31,1.62,1.08Z"/>
                  <path class="cls-2" d="M1567.69,223.22c.15.76-.31,1.47-1.08,1.62-.77.15-1.48-.32-1.64-1.09-.15-.77.33-1.45,1.09-1.6.76-.15,1.46.31,1.62,1.07Z"/>
                  <path class="cls-2" d="M1569.83,233.86c.15.76-.31,1.46-1.08,1.6-.77.15-1.48-.31-1.63-1.08-.15-.77.33-1.46,1.09-1.61.77-.15,1.47.32,1.62,1.08Z"/>
                  <path class="cls-2" d="M1571.98,244.5c.15.76-.32,1.45-1.08,1.59-.76.15-1.48-.3-1.63-1.07-.15-.77.33-1.46,1.09-1.61.76-.15,1.47.32,1.62,1.08Z"/>
                </g>
              </g>
              <g>
                <g>
                  <path class="cls-4" d="M1270.73,294.02c-100.73,8.41-197.33-16.92-294.67-39.03,2.29-11.05,4.86-22.05,7.2-33.09,93.76,21.05,188.24,47.77,285.24,38.14.68,11.33,1.48,22.65,2.24,33.98Z"/>
                  <path class="cls-5" d="M1269.37,273.01c-98.32,9.29-193.84-16.95-288.82-38.51.25-1.09.49-2.19.72-3.28,94.77,21.32,189.78,47.68,287.85,38.41.08,1.13.16,2.26.25,3.39Z"/>
                  <path class="cls-13" d="M1268.77,264.72c-97.45,9.66-192.31-17.1-286.48-38.25.32-1.52.64-3.04.97-4.57,93.76,21.05,188.24,47.77,285.24,38.14.09,1.56.19,3.12.28,4.68Z"/>
                  <path class="cls-11" d="M1270.73,294.02c-100.73,8.41-197.33-16.92-294.67-39.03.82-3.95,1.66-7.89,2.54-11.82,96.17,21.82,191.83,47.26,291.34,38.75.24,4.03.51,8.06.79,12.09Z"/>
                  <path class="cls-12" d="M987.15,222.78c-1.3-.29-2.6-.58-3.9-.87-2.34,11.04-4.91,22.04-7.2,33.09,1.25.28,2.5.57,3.75.85,2.48-11.02,5-22.02,7.34-33.07Z"/>
                  <path class="cls-12" d="M1261.42,260.74c.68,11.3,1.34,22.6,2.06,33.89,2.41-.21,4.83-.41,7.24-.61-.76-11.32-1.56-22.65-2.24-33.98-2.35.23-4.71.47-7.06.7Z"/>
                </g>
                <path class="cls-27" d="M977.7,258.42c-2.25-.51-4.5-1.02-6.75-1.53,2.69-12.99,5.49-25.96,8.24-38.94,2.34.52,4.67,1.05,7.01,1.57-2.75,12.98-5.81,25.9-8.5,38.89Z"/>
                <g>
                  <path class="cls-2" d="M983.19,222.65c-.15.73-.8,1.22-1.54,1.05-.74-.17-1.13-.89-.98-1.61.15-.73.8-1.2,1.54-1.04.74.16,1.13.88.98,1.6Z"/>
                  <path class="cls-2" d="M980.95,233.17c-.16.72-.81,1.23-1.55,1.06-.74-.17-1.11-.9-.96-1.62.15-.72.8-1.2,1.54-1.03.74.17,1.13.88.97,1.6Z"/>
                  <path class="cls-2" d="M978.57,243.72c-.16.72-.8,1.21-1.55,1.05-.74-.17-1.11-.89-.95-1.61.16-.72.81-1.21,1.55-1.04.74.17,1.11.89.95,1.61Z"/>
                  <path class="cls-2" d="M976.29,254.28c-.15.71-.75,1.22-1.48,1.05s-1.09-.89-.94-1.6c.15-.71.76-1.22,1.49-1.06.73.17,1.08.9.93,1.61Z"/>
                </g>
                <path class="cls-27" d="M1274.56,296.69c-2.63.22-5.27.44-7.9.66-.85-13.29-1.7-26.58-2.5-39.87,2.54-.25,5.08-.5,7.62-.75,1.02,13.32,1.87,26.65,2.77,39.97Z"/>
                <g>
                  <path class="cls-2" d="M1269.6,260.68c.05.78-.52,1.42-1.29,1.5-.77.08-1.42-.45-1.46-1.23-.05-.78.53-1.42,1.3-1.49.77-.08,1.41.44,1.46,1.22Z"/>
                  <path class="cls-2" d="M1270.35,271.52c.06.79-.5,1.44-1.29,1.52-.78.07-1.43-.47-1.49-1.25s.51-1.42,1.29-1.49c.78-.07,1.43.45,1.48,1.23Z"/>
                  <path class="cls-2" d="M1271.07,282.37c.05.79-.54,1.42-1.32,1.48-.78.07-1.45-.45-1.5-1.24s.55-1.42,1.33-1.48c.78-.07,1.44.45,1.49,1.24Z"/>
                  <path class="cls-2" d="M1271.78,293.18c.05.8-.55,1.41-1.33,1.47-.78.06-1.46-.44-1.51-1.24-.05-.8.55-1.42,1.33-1.48.78-.07,1.46.45,1.51,1.25Z"/>
                </g>
              </g>
            </g>
          </g>
          <g>
            <g>
              <circle class="cls-6" cx="1470.52" cy="174.69" r="119.93"/>
              <g>
                <g>
                  <g>
                    <path class="cls-26" d="M1164.48,597.05c-35.46-69.26,145.61-271.01,145.61-271.01l-14.18-12.51,40.2-43.53s42.79,26.02,34.04,44.12c-6.16,12.74-13.43,15.11-13.43,15.11-10.96,34.16-81.55,202.55-81.55,202.55,0,0-95.06,95.82-110.69,65.28Z"/>
                    <g>
                      <path class="cls-29" d="M1274.87,287.95c-.16,13.89,32.05,37.31,42.25,30.56,10.2-6.75,50.07-58.54,50.07-58.54l-40.96-45.17s-51.19,59.19-51.35,73.15Z"/>
                      <g>
                        <path class="cls-26" d="M1317.27,205.51c-6.29.09-17.79,23.8-17.79,23.8l17.79-5.86s7.7-18.05,0-17.93Z"/>
                        <path class="cls-26" d="M1327.87,204.4c-6.29.09-17.79,23.8-17.79,23.8l17.79-5.86s7.7-18.05,0-17.93Z"/>
                        <path d="M1299.48,230.39c.4,0,.78-.22.97-.61,4.33-8.93,12.74-23.13,16.83-23.19,1.06-.01,1.51.43,1.74.77,1.75,2.61-.75,10.99-2.74,15.66-.23.55.02,1.18.57,1.41.55.23,1.18-.02,1.41-.57.57-1.35,5.52-13.27,2.55-17.7-.54-.8-1.52-1.75-3.56-1.73-6.62.1-16.77,20.35-18.74,24.4-.26.54-.04,1.18.5,1.44.15.07.31.11.47.11Z"/>
                      </g>
                    </g>
                  </g>
                  <path d="M1275.17,532.84c.42,0,.82-.25.99-.66l6.49-15.52c.23-.55-.03-1.18-.58-1.41-.55-.23-1.18.03-1.41.58l-6.49,15.52c-.23.55.03,1.18.58,1.41.14.06.28.08.42.08Z"/>
                </g>
                <g>
                  <path class="cls-26" d="M1467.23,253.85c-.33,3.1,1.67,80.48,1.67,80.48l-80.17,56.54,13.31-63.48,65.19-73.54Z"/>
                  <path d="M1455.33,289.24c-5.89,22.11-19.83,34.41-54.81,43.91l1.75-9.61c-.32-2,55.31-55.16,55.31-55.16l-2.25,20.86Z"/>
                </g>
                <g>
                  <g>
                    <path class="cls-26" d="M1458.69,232.83c-1.75,12.34,6.84,23.77,19.19,25.51,12.34,1.75,23.77-6.84,25.51-19.19,1.75-12.34-6.84-23.77-19.19-25.51-12.34-1.75-23.77,6.84-25.51,19.19Z"/>
                    <g>
                      <path d="M1472.02,238.01c.53,0,.99-.39,1.07-.93.81-5.68,6.09-9.65,11.76-8.84.6.08,1.13-.33,1.22-.91.08-.59-.33-1.13-.91-1.22-6.88-.97-13.22,3.82-14.19,10.67-.08.59.33,1.13.91,1.22.05,0,.1.01.15.01Z"/>
                      <path d="M1483.23,246.84c.54,0,1-.4,1.07-.94,1.16-9.2-7.67-16.32-8.05-16.62-.46-.37-1.14-.29-1.51.18-.37.46-.29,1.14.17,1.51.08.07,8.26,6.67,7.25,14.66-.07.59.34,1.13.93,1.2.05,0,.09,0,.14,0Z"/>
                    </g>
                  </g>
                  <path class="cls-26" d="M1326.88,246.05c4.8,46.64,34.28,81.82,79.16,77.19,44.88-4.63,66.56-45.08,61.76-91.7-4.8-46.64-34.27-81.81-79.16-77.19-44.89,4.62-66.57,45.07-61.76,91.7Z"/>
                  <g>
                    <g>
                      <path d="M1419.5,215.34c2.12-.52,3.41-2.66,2.89-4.78-.52-2.12-2.66-3.41-4.78-2.89l-10.95,2.69c-2.12.52-3.41,2.66-2.89,4.78.52,2.12,2.66,3.41,4.78,2.89l10.95-2.69Z"/>
                      <path d="M1337.28,226.84c-2.18-.08-3.88-1.91-3.8-4.09.08-2.18,1.91-3.88,4.09-3.8l11.27.4c2.18.08,3.88,1.91,3.8,4.09-.08,2.18-1.91,3.88-4.09,3.8l-11.27-.4Z"/>
                    </g>
                    <path d="M1389.31,265.33c.24,0,.49-.01.73-.04.59-.06,1.02-.59.96-1.18-.06-.59-.58-1.02-1.18-.96-2.72.29-5.11-1.69-5.39-4.38-.13-1.3.25-2.58,1.07-3.6.83-1.02,2-1.65,3.31-1.79.59-.06,1.02-.59.96-1.18-.06-.59-.59-1.01-1.18-.96-1.88.19-3.57,1.11-4.76,2.57-1.19,1.46-1.74,3.3-1.55,5.18.38,3.63,3.45,6.34,7.02,6.34Z"/>
                    <path class="cls-3" d="M1384.08,290.39c.33,3.23,4.28,5.47,8.81,5.01s7.94-3.46,7.6-6.7c-.33-3.23-4.28-5.47-8.81-5.01-4.53.47-7.94,3.46-7.6,6.7Z"/>
                    <path d="M1389.91,290.75c.79,0,1.62-.04,2.49-.13,7.4-.76,11.78-4.54,11.96-4.7.45-.39.49-1.07.1-1.52-.39-.45-1.07-.49-1.52-.1-.04.03-4.08,3.49-10.77,4.18-6.69.69-10.81-1.89-10.85-1.91-.5-.32-1.17-.18-1.49.33-.32.5-.17,1.17.33,1.49.17.11,3.78,2.37,9.75,2.37Z"/>
                  </g>
                  <g>
                    <path d="M1411.13,239.93c.42,4.08,1.95,7.27,6.03,6.85,4.08-.42,4.93-3.85,4.51-7.94-.42-4.08-1.95-7.27-6.03-6.85-4.08.42-4.93,3.85-4.51,7.94Z"/>
                    <path d="M1405.19,240.87c.36,0,.71-.18.92-.51,3.68-5.95,16.5-10.5,28.13-7.68.58.14,1.16-.21,1.3-.79.14-.58-.21-1.16-.79-1.3-12.88-3.11-26.39,2.05-30.47,8.64-.31.5-.16,1.17.35,1.48.18.11.37.16.57.16Z"/>
                  </g>
                  <g>
                    <path d="M1345.15,246.3c.71,4.04.11,7.53-3.93,8.24-4.04.71-5.8-2.36-6.51-6.4-.71-4.04-.11-7.53,3.93-8.24,4.04-.71,5.8,2.36,6.51,6.4Z"/>
                    <path d="M1331.39,244.36c.19,0,.38-.05.56-.16,7.78-4.75,20.71-3.63,29.45-.07.55.22,1.18-.04,1.4-.59s-.04-1.18-.59-1.4c-9.25-3.76-23-4.89-31.39.23-.51.31-.67.97-.36,1.48.2.33.56.52.92.52Z"/>
                  </g>
                  <path d="M1400.03,325.77c2.5,0,5.03-.13,7.57-.39.59-.06,1.02-.59.96-1.18-.06-.59-.59-1.01-1.18-.96-21.13,2.19-40.31-4.64-55.45-19.74-14.37-14.32-23.58-34.86-25.95-57.85-.06-.59-.59-1.01-1.18-.96-.59.06-1.02.59-.96,1.18,2.42,23.48,11.86,44.48,26.58,59.15,13.57,13.53,30.97,20.75,49.62,20.75Z"/>
                </g>
                <path class="cls-6" d="M1466.27,218.95c-13.75,3.57-84.59-15.19-94.94-40.88,0,0-8.48,45.43-45.06,52.05,0,0-15.88-69.17,60.35-80.27,76.23-11.1,93.21,65.57,79.65,69.09Z"/>
                <g>
                  <path class="cls-26" d="M1277.56,279.4c-.32-7,1.48-16.75,5.58-25.99,2.13-4.78,6.31-14.28,12.46-21.42,5.73-6.65,22.89-14.05,28.7-11.61,8.23,3.45-21.47,22.9-21.47,22.9l-25.27,36.12Z"/>
                  <path d="M1283.26,254.41c.37,0,.71-.19.87-.56l.08-.19c2.18-4.91,6.24-14.04,12.2-20.97,5.67-6.58,22.36-13.46,27.47-11.32.55.24,1.18-.03,1.41-.58.23-.55-.03-1.18-.58-1.41-6.38-2.67-24.05,5.08-29.94,11.9-6.17,7.16-10.32,16.49-12.54,21.5-.24.54-.04,1.28.5,1.52.17.07.34.11.51.11Z"/>
                </g>
                <path class="cls-17" d="M1481.04,288.46c9.84,0,17.85-8.01,17.85-17.85,0-.59-.48-1.08-1.08-1.08-.6,0-1.08.48-1.08,1.08,0,8.65-7.04,15.69-15.69,15.69-8.65,0-15.69-7.04-15.69-15.69,0-8.65,7.04-15.69,15.69-15.69.6,0,1.08-.48,1.08-1.08,0-.59-.48-1.08-1.08-1.08-9.84,0-17.85,8.01-17.85,17.85,0,9.84,8.01,17.85,17.85,17.85Z"/>
              </g>
              <g>
                <path class="cls-8" d="M1476.23,313.39c.87,10.3,2.28,17.19,2.28,17.19,0,0,67.29-29,111.8-13.49v310.2s-275.13-16.51-275.13-16.51c0,0-16.69-159.1,3.03-176.11,19.72-17.01,70.51-43.8,70.51-43.8l2.66-31.51c.57-6.77,4.19-12.92,9.85-16.7l63.57-36.09c5.14-2.23,10.96,1.23,11.43,6.82Z"/>
                <g>
                  <path d="M1468.42,339.99s.07,0,.1,0c.59-.05,1.03-.58.97-1.17l-2.24-24.66c-.05-.59-.58-1.03-1.17-.97-.59.05-1.03.58-.97,1.17l2.24,24.66c.05.56.52.98,1.07.98Z"/>
                  <path d="M1457.58,346.55s.07,0,.1,0c.59-.05,1.03-.58.97-1.17l-2.24-24.66c-.05-.59-.58-1.02-1.17-.97-.59.05-1.03.58-.97,1.17l2.24,24.66c.05.56.52.98,1.07.98Z"/>
                  <path d="M1447.35,352.32s.07,0,.1,0c.59-.05,1.03-.58.97-1.17l-2.24-24.66c-.05-.59-.57-1.04-1.17-.97-.59.05-1.03.58-.97,1.17l2.24,24.66c.05.56.52.98,1.07.98Z"/>
                  <path d="M1437.47,358.89s.07,0,.1,0c.59-.05,1.03-.58.97-1.17l-2.24-24.66c-.05-.59-.57-1.03-1.17-.97-.59.05-1.03.58-.97,1.17l2.24,24.66c.05.56.52.98,1.07.98Z"/>
                  <path d="M1426.2,364.65s.07,0,.1,0c.59-.05,1.03-.58.97-1.17l-2.24-24.66c-.05-.59-.57-1.02-1.17-.97-.59.05-1.03.58-.97,1.17l2.24,24.66c.05.56.52.98,1.07.98Z"/>
                  <path d="M1414.93,373.15s.07,0,.1,0c.59-.05,1.03-.58.97-1.17l-2.24-24.66c-.06-.59-.57-1.03-1.17-.97-.59.05-1.03.58-.97,1.17l2.24,24.66c.05.56.52.98,1.07.98Z"/>
                  <path d="M1403.65,381.65s.07,0,.1,0c.59-.05,1.03-.58.97-1.17l-2.24-24.66c-.05-.59-.58-1.02-1.17-.97-.59.05-1.03.58-.97,1.17l2.24,24.66c.05.56.52.98,1.07.98Z"/>
                </g>
              </g>
              <g>
                <path d="M1057.73,606.82h309.46s-19.19-163.72-19.19-163.72c-2.13-18.19-17.54-31.9-35.85-31.9h-236.77c-21.6,0-38.37,18.85-35.85,40.3l18.21,155.32Z"/>
                <path class="cls-19" d="M1065.55,411.2h236.77c18.31,0,33.72,13.71,35.85,31.9l19.19,163.72h.41l10.08,11.97h-307.97c-6.61,0-11.97-5.36-11.97-11.97h0s-18.21-155.32-18.21-155.32c-2.52-21.46,14.25-40.3,35.85-40.3Z"/>
                <path d="M1329.82,597.11s.09,0,.14,0c.59-.08,1-.62.93-1.21l-2.56-19.47c-.08-.59-.61-1.01-1.21-.93-.59.08-1,.62-.93,1.21l2.56,19.47c.07.54.53.94,1.07.94Z"/>
                <path d="M1323.04,597.11s.09,0,.14,0c.59-.08,1-.62.93-1.21l-2.56-19.47c-.08-.59-.6-1.01-1.21-.93-.59.08-1,.62-.93,1.21l2.56,19.47c.07.54.53.94,1.07.94Z"/>
                <path d="M1316.26,597.11s.09,0,.14,0c.59-.08,1.01-.62.93-1.21l-2.56-19.47c-.08-.59-.61-1.01-1.21-.93-.59.08-1.01.62-.93,1.21l2.56,19.47c.07.54.53.94,1.07.94Z"/>
                <path d="M1309.49,597.11s.09,0,.14,0c.59-.08,1-.62.93-1.21l-2.56-19.47c-.08-.59-.6-1.01-1.21-.93-.59.08-1,.62-.93,1.21l2.56,19.47c.07.54.53.94,1.07.94Z"/>
                <path d="M1302.71,597.11s.09,0,.14,0c.59-.08,1-.62.93-1.21l-2.56-19.47c-.08-.59-.6-1.01-1.21-.93-.59.08-1,.62-.93,1.21l2.56,19.47c.07.54.53.94,1.07.94Z"/>
                <path class="cls-20" d="M1210.56,509.03l-.53-4.51c-1.14-9.7-9.36-17.01-19.12-17.01h0c-11.52,0-20.47,10.05-19.12,21.5l.53,4.51c1.14,9.7,9.36,17.01,19.12,17.01h0c11.52,0,20.47-10.05,19.12-21.5Z"/>
                <path d="M1370.87,618.8h65.67c3.31,0,5.99-2.68,5.99-5.99h0c0-3.31-2.68-5.99-5.99-5.99h-79.17c.82,6.83,6.62,11.97,13.5,11.97Z"/>
                <path d="M1047.91,607.9s.08,0,.13,0c.59-.07,1.01-.6.94-1.19l-18.21-155.32c-1.16-9.92,1.98-19.89,8.62-27.36,6.64-7.46,16.18-11.74,26.17-11.74h236.77c.6,0,1.08-.48,1.08-1.08,0-.6-.48-1.08-1.08-1.08h-236.77c-10.6,0-20.73,4.54-27.77,12.47-7.05,7.92-10.38,18.51-9.15,29.04l18.21,155.32c.06.55.53.95,1.07.95Z"/>
              </g>
              <g>
                <g>
                  <path class="cls-26" d="M1405.58,666.53c.19,21.4-25.3,41-31.4,49.02-6.1,8.02,1.83,54.69-7.15,59.16-6.9,3.44-12.03-7.07-12.03-7.07,0,0,2.36,20.92-6.47,18.61-9.2-2.4-11.24-12.08-11.24-12.08,0,0,5.97,20.73-4.39,19.36-10.36-1.36-22.89-51.04-22.89-51.04,0,0-2.53,38.03-14.93,37.12-12.4-.92-5.13-45.61-.93-59.41,2.96-9.74,3.82-22.2,20.39-44.92,16.57-22.72,49.15-54.79,71.6-64.14,32.7-13.61,194.55-40.49,194.55-40.49l-36.92-170.44c-11.43-52.75-10.12-106.83,46.53-83.12,47.43,19.85,96.6,247.99,99.13,291.99,2.53,44-22.76,63.22-129.47,60.18-106.71-3.03-154.38-2.74-154.38-2.74Z"/>
                  <path d="M1355,768.72c.15,0,.3-.03.44-.09.54-.25.78-.88.54-1.42-5.15-11.44-6.26-31.4-2.75-49.66.11-.58-.27-1.15-.85-1.26-.57-.11-1.15.27-1.26.85-3.58,18.66-2.42,39.14,2.9,50.95.18.4.57.63.98.63Z"/>
                  <path d="M1335.13,766.77c.08,0,.15,0,.23-.03.58-.13.95-.7.82-1.28-.67-3.02-1.42-6.16-2.19-9.36-3.75-15.54-8-33.16-2.92-43.92.25-.54.02-1.18-.51-1.43-.54-.26-1.18-.02-1.43.51-5.4,11.44-1.06,29.45,2.77,45.34.77,3.19,1.52,6.32,2.18,9.32.11.5.56.85,1.05.85Z"/>
                  <path d="M1311.99,743.56c.09,0,.19-.01.29-.04.57-.16.91-.75.75-1.32-2.3-8.37-1.12-19.24,2.62-24.22.36-.48.26-1.15-.21-1.51-.48-.35-1.15-.26-1.51.21-4.16,5.54-5.47,17-2.97,26.09.13.48.56.79,1.04.79Z"/>
                </g>
                <path d="M1580.7,571.72s.03,0,.05,0l42.48-2.02c.59-.03,1.05-.53,1.02-1.13-.03-.59-.55-1.03-1.13-1.02l-42.48,2.02c-.59.03-1.05.53-1.02,1.13.03.58.5,1.02,1.07,1.02Z"/>
                <path d="M1671.95,513.06s2.95,12.76,4.59,20.92c0,0-100.04,11.37-102.9,4.08-2.86-7.29,98.31-24.99,98.31-24.99Z"/>
                <path class="cls-8" d="M1693.76,508.62c-19.05-80.86-72.83-178.71-103.46-191.53-56.65-23.71-67.77,33.2-56.35,85.95,17.22,81.98,30.62,136.52,30.62,136.52,0,0,98.24-15.63,129.18-30.94Z"/>
                <path d="M1564.58,540.63c.06,0,.11,0,.17-.01.98-.16,98.76-15.83,129.49-31.04.53-.26.75-.91.49-1.44-.26-.53-.91-.75-1.44-.49-28.79,14.25-117.55,29-127.89,30.68-1.87-7.68-14.59-60.38-30.38-135.52-.12-.58-.69-.95-1.28-.83-.58.12-.95.69-.83,1.28,17.03,81.06,30.49,136.01,30.63,136.55.12.49.56.82,1.04.82Z"/>
                <path d="M1405.12,673.07c.43,0,.83-.25,1-.67.1-.25,2.39-6.26-2.66-20.22-.2-.56-.82-.85-1.38-.65-.56.2-.85.82-.65,1.38,4.72,13.04,2.71,18.64,2.68,18.69-.21.55.06,1.17.61,1.39.13.05.26.07.39.07Z"/>
              </g>
              <path class="cls-23" d="M1320.48,95.16c0-38.83-12.78-70.32-96.58-70.32-83.8,0-96.58,31.48-96.58,70.32,0,38.83,12.78,70.32,96.58,70.32,17.06,0,31.13-1.32,42.8-3.73,16.14,14.58,35.77,30.31,42.37,27.32,6.84-3.1,3.42-28.4-.71-49.3,9.7-12.14,12.13-27.67,12.13-44.61Z"/>
              <g id="simbolo_star" data-name="simbolo star">
                <path class="cls-25" d="M1192.01,514.03c-3.92,1.54-6.37,2.62-7.09,5.19l-.12.41c-.54,1.89-.21,3.93.96,5.51l.02.03c2.41-7.44,11.03-5.79,14.43-10.27,1.26-1.66,2.05-3.76,2.12-7.9-2.53,3.95-6.78,5.63-10.31,7.02h-.01Z"/>
                <path class="cls-15" d="M1201.11,491.84c-1.79,11.05-29.17,5.28-18.75,26.66,3.01-10.49,23.86-3.34,18.75-26.66Z"/>
                <path class="cls-7" d="M1185.89,509.77l.16.96c.02.12-.11.21-.21.15l-.87-.45s-.1-.02-.14,0l-.86.45c-.11.05-.23-.03-.21-.15l.17-.96s0-.1-.04-.13l-.7-.68c-.08-.08-.04-.23.08-.24l.96-.14s.08-.03.11-.07l.43-.88c.05-.11.2-.11.25,0l.43.88s.06.07.11.07l.96.14c.12.02.17.16.08.24l-.7.68s-.05.08-.04.13h.01Z"/>
              </g>
            </g>
            <g>
              <g>
                <rect class="cls-10" x="1041.16" y="461.51" width="18.45" height="100.96" transform="translate(1978.04 1222.55) rotate(-168.53)"/>
                <g>
                  <path class="cls-19" d="M1031.31,559.63l4.09,20.12c.23,1.14,1.72,1.45,2.38.48l11.61-16.93-18.09-3.67Z"/>
                  <path d="M1036.22,581.83c-.96-.19-1.68-.91-1.87-1.87l-4.09-20.12c-.07-.35.04-.72.29-.98.25-.26.62-.36.98-.29l18.09,3.67c.35.07.65.32.78.65.14.33.09.71-.11,1.01l-11.61,16.93c-.45.66-1.2,1.04-1.98,1.04-.16,0-.32-.02-.48-.05ZM1032.69,561l3.77,18.52c.02.11.09.17.19.19.11.02.19-.01.25-.1l10.69-15.59-14.9-3.02Z"/>
                </g>
                <rect class="cls-17" x="1051.94" y="456.57" width="18.32" height="6.01" transform="translate(2008.76 1122.18) rotate(-168.46)"/>
                <path class="cls-3" d="M1064.34,443.71h0c4.96,1.01,8.15,5.85,7.14,10.81l-.81,3.95-17.95-3.67.81-3.95c1.01-4.96,5.85-8.15,10.81-7.14Z"/>
                <path d="M1063.29,495.9c.5,0,.95-.35,1.05-.86.12-.58-.26-1.15-.84-1.27l-18.09-3.67c-.59-.1-1.15.26-1.27.84-.12.58.26,1.15.84,1.27l18.09,3.67c.07.01.15.02.22.02Z"/>
              </g>
              <g>
                <g>
                  <rect class="cls-17" x="1012.05" y="438.76" width="18.45" height="100.96" transform="translate(-76.87 212.78) rotate(-11.47)"/>
                  <g>
                    <path class="cls-19" d="M1040.36,536.88l-4.09,20.12c-.23,1.14-1.72,1.45-2.38.48l-11.61-16.93,18.09-3.67Z"/>
                    <path d="M1032.99,558.09l-11.61-16.93c-.2-.3-.24-.68-.11-1.01.14-.34.43-.58.78-.65l18.09-3.67c.36-.07.72.04.98.29.26.26.37.62.29.98l-4.09,20.12c-.2.96-.91,1.68-1.87,1.87-.16.03-.32.05-.48.05-.78,0-1.52-.38-1.98-1.04ZM1024.08,541.28l10.69,15.59c.06.09.15.12.25.1.11-.02.17-.09.19-.19l3.77-18.52-14.9,3.02Z"/>
                  </g>
                  <rect class="cls-10" x="1001.41" y="433.82" width="18.32" height="6.01" transform="translate(-66.97 211.06) rotate(-11.54)"/>
                  <path class="cls-21" d="M1007.33,420.96h0c-4.96,1.01-8.15,5.85-7.14,10.81l.81,3.95,17.95-3.67-.81-3.95c-1.01-4.96-5.85-8.15-10.81-7.14Z"/>
                  <path d="M1008.38,473.15c.07,0,.14,0,.22-.02l18.09-3.67c.58-.12.96-.69.84-1.27-.12-.58-.68-.95-1.27-.84l-18.09,3.67c-.58.12-.96.69-.84,1.27.1.51.55.86,1.05.86Z"/>
                </g>
                <path d="M1000.52,481.55c.07,0,.14,0,.2-.02.58-.11.97-.68.85-1.26l-7.65-39.66,7.76-1.28c.59-.1.98-.65.89-1.24-.09-.59-.64-1-1.24-.89l-8.86,1.46c-.29.05-.54.21-.71.45-.17.24-.23.53-.17.82l7.86,40.74c.1.52.55.87,1.06.87Z"/>
              </g>
              <g>
                <polygon class="cls-9" points="1077.71 506.34 1002.43 506.34 1003.65 538.6 1076.49 538.6 1077.71 506.34"/>
                <polygon class="cls-9" points="1008.48 538.6 1011.11 618.8 1069.03 618.8 1071.66 538.6 1008.48 538.6"/>
              </g>
            </g>
          </g>
          <g>
            <g>
              <path class="cls-23" d="M480.57,70.32c0-38.83,12.78-70.32,96.58-70.32,83.8,0,96.58,31.48,96.58,70.32,0,38.83-12.78,70.32-96.58,70.32-17.06,0-31.13-1.32-42.8-3.73-16.14,14.58-35.77,30.31-42.37,27.32-6.84-3.1-3.42-28.4.71-49.3-9.7-12.14-12.13-27.67-12.13-44.61Z"/>
              <g>
                <g>
                  <path class="cls-26" d="M572.48,619.85c-78.5-.6-85.48,1.31-99.56-42.55-11.75-36.61-41.54-148.07-41.54-148.07-8.83-40.75-2-57.37,41.77-39.05,36.64,15.34,68.45,133,78.49,165.93,0,0,160.42,19.61,171.78,19.86,22.56.49,66.09,7.47,88.28,18.87,22.21,5.36,19.09,12.73,19.09,12.73,8.06,2.55,12.32,13.37,2.56,12.53-9.76-.85-178.4.4-260.87-.24Z"/>
                  <path d="M538.29,510.66s1.55,3.24,2.81,9.54c0,0-53.06,25.19-77.22,26.91,0,0-2.94-10.86-3.55-12.41-2.21-5.63,77.96-24.04,77.96-24.04Z"/>
                  <path class="cls-15" d="M547.25,512.98c-14.72-62.47-61.02-135.08-84.69-144.98-43.77-18.32-47.59,22.67-38.77,63.42,13.31,63.33,23.66,105.46,23.66,105.46,0,0,75.9-12.07,99.8-23.9Z"/>
                  <path d="M830.79,608.63c.46,0,.89-.3,1.03-.76.17-.57-.15-1.17-.71-1.35-1.47-.45-36.1-11-55.35-9.42-.59.05-1.03.57-.99,1.16s.55,1.04,1.16.99c18.85-1.56,54.18,9.23,54.54,9.34.11.03.21.05.32.05Z"/>
                  <path d="M814.79,597.42c.47,0,.9-.31,1.04-.79.16-.57-.17-1.17-.75-1.33-1.35-.38-33.08-9.22-40.57-9.44-.6.03-1.09.45-1.11,1.05-.02.59.45,1.09,1.05,1.11,7.23.21,39.73,9.27,40.06,9.36.1.03.19.04.29.04Z"/>
                </g>
                <g>
                  <path class="cls-26" d="M391.12,309.73l3.27,41.54,28.07,9.33s-8.44,64.3-65.45,61.47c-57.01-2.83-64.48-80.24-64.48-80.24h29.91s-10.7-68.61-10.7-68.61l79.39,36.51Z"/>
                  <path d="M393.29,337.26s-46.87,0-66.22-35.28l64.06,7.74,2.17,27.53Z"/>
                  <path class="cls-8" d="M193.15,545.21l20.52,73.43,301.28-.37s-21.11-222.55-49.15-243.32c-28.04-20.77-58.22-18.25-60.08-21.09,0,0,15.49,35.22-34.04,27.67-49.53-7.55-62.32-39.7-62.32-39.7,0,0-46.73.94-74.76,8.5-28.04,7.55-41.44,194.89-41.44,194.89Z"/>
                  <path d="M479.49,613.1s.07,0,.11,0c.59-.06,1.02-.59.96-1.18-.11-1.06-11-107.11-27.25-179.65-.13-.58-.71-.94-1.29-.81-.58.13-.95.71-.81,1.29,16.21,72.42,27.1,178.34,27.2,179.4.06.55.52.97,1.07.97Z"/>
                </g>
                <g>
                  <path class="cls-6" d="M237.74,228.39c.27-14.97,10.85-27.19,24.5-29.41-3.23-7.65-5-16.12-4.85-25.04.58-32.81,26.42-58.96,57.71-58.4,31.29.56,56.18,27.61,55.6,60.42-.58,32.81-26.42,58.96-57.71,58.4-6.15-.11-12.03-1.27-17.54-3.27-.17,2.45-.59,4.82-1.28,7.06,13.64,2.64,23.87,15.26,23.6,30.3-.3,16.74-13.48,30.08-29.45,29.8-15.97-.28-28.67-14.09-28.37-30.83.05-3.04.55-5.97,1.39-8.73-13.64-2.64-23.87-15.26-23.6-30.3Z"/>
                  <g>
                    <path class="cls-26" d="M440.44,224.49c6.89,75.68-15.58,95.37-67.7,96.76-52.12,1.39-83-41.72-84.47-95.86-1.47-54.16,27.06-98.86,79.19-100.27,52.12-1.4,68.07,45.41,72.98,99.36Z"/>
                    <g>
                      <g>
                        <path class="cls-6" d="M341.22,199.61c-2.5-.28-4.31-2.54-4.03-5.04.28-2.5,2.54-4.31,5.04-4.03l12.95,1.45c2.5.28,4.31,2.54,4.03,5.04-.28,2.5-2.54,4.31-5.04,4.03l-12.95-1.45Z"/>
                        <path class="cls-6" d="M426.18,200.33c2.49-.41,4.16-2.76,3.75-5.25-.41-2.49-2.76-4.16-5.25-3.75l-12.86,2.14c-2.49.41-4.16,2.76-3.75,5.25.41,2.49,2.76,4.16,5.25,3.75l12.86-2.14Z"/>
                      </g>
                      <path d="M387.96,253.97h.03c7.11-.19,12.74-6.13,12.55-13.25-.09-3.45-1.52-6.65-4.02-9.02-2.5-2.37-5.79-3.64-9.22-3.53-.59.02-1.06.51-1.05,1.11.02.59.49,1.06,1.11,1.05,2.9-.11,5.6.97,7.68,2.94,2.08,1.98,3.28,4.64,3.35,7.52.08,2.87-.97,5.6-2.94,7.68-1.98,2.08-4.64,3.27-7.52,3.35-.59.02-1.06.51-1.05,1.11.02.58.5,1.05,1.08,1.05Z"/>
                      <path d="M382.73,281.68c.26,0,.52,0,.78-.01,8.57-.23,13.38-4.19,13.58-4.36.45-.38.51-1.06.13-1.51-.38-.46-1.06-.51-1.52-.14-.04.04-4.47,3.65-12.25,3.86-7.79.18-13.01-3.17-13.06-3.21-.5-.33-1.16-.2-1.49.3-.33.49-.2,1.16.3,1.49.22.15,5.44,3.58,13.54,3.58Z"/>
                    </g>
                    <path d="M354.48,226.54c.13,4.74-1.15,8.62-5.89,8.75-4.74.13-6.23-3.68-6.35-8.42-.13-4.74,1.15-8.62,5.89-8.75,4.74-.13,6.23,3.68,6.35,8.42Z"/>
                    <path d="M417.22,224.45c-.21,4.74,1,8.64,5.74,8.85,4.74.21,6.29-3.57,6.5-8.31.21-4.74-1-8.64-5.74-8.85-4.74-.21-6.29,3.57-6.5,8.31Z"/>
                    <g>
                      <path class="cls-26" d="M304.16,225.61c3.84,13.88-4.29,28.26-18.18,32.1-13.88,3.85-28.26-4.29-32.1-18.18-3.85-13.88,4.29-28.26,18.18-32.1,13.88-3.84,28.26,4.29,32.1,18.18Z"/>
                      <g>
                        <path d="M289.49,233.37c.1,0,.19-.01.29-.04.57-.16.91-.75.75-1.32-2.11-7.62-10.03-12.11-17.65-10-.57.16-.91.75-.75,1.32.16.58.75.91,1.32.75,6.49-1.8,13.21,2.02,15,8.49.13.48.57.79,1.04.79Z"/>
                        <path d="M277.97,245.16c.09,0,.18-.01.27-.03.58-.15.92-.74.77-1.31-2.38-9.12,6.08-17.95,6.16-18.04.41-.43.4-1.11-.02-1.52-.43-.42-1.11-.4-1.52.02-.38.4-9.39,9.8-6.7,20.08.13.48.56.8,1.04.8Z"/>
                      </g>
                    </g>
                  </g>
                  <path class="cls-6" d="M336.39,189.36c-7.75-2.2-13.99-7.02-18.25-12.79-9.5,21.47-23.78,48.54-34.29,45.45-17.18-5.05-16.24-40.22-11.27-53.29,5.61-14.77,21.07-28.52,40.34-38.34-5.16-7.02-7.08-16.47-4.21-25.71,4.69-15.09,20.15-23.71,34.55-19.24,8.64,2.68,14.9,9.48,17.53,17.73.04-.15.07-.31.12-.46,4.91-15.83,23.21-24.22,40.86-18.74,17.65,5.48,27.98,22.76,23.07,38.58-.36,1.17-.82,2.28-1.32,3.37,0,0,33.44,2.84,35.18,25.23,1.75,22.39-27.25,24.89-27.25,24.89,0,0-19.01,27.27-57,10.97,0,0-19.82,7.52-38.06,2.34Z"/>
                </g>
                <g>
                  <path d="M219.15,618.61c13.76,0,5.69-43.07,5.69-43.07h-22.21s-.09,43.07,16.52,43.07Z"/>
                  <path class="cls-8" d="M255.61,437.77l1.08-90.83c-64.56,4.51-82.11,43.29-87.95,95.1-8.39,74.36-.13,133.5-.13,133.5l104.72-36.26-17.72-101.52"/>
                  <path class="cls-29" d="M261.82,214.46c12,1.77,63.98,44.81,68.56,49.69,4.57,4.88,17.97,42.7,17.97,47.14,0,4.43-10.92,1.75-10.92,1.75l-78.69-52.01s-5.57-35.51-4.24-41.21c1.33-5.7,7.32-5.36,7.32-5.36Z"/>
                  <path class="cls-26" d="M211.22,496.89c11.16-32.08,70.06-181.7,70.06-181.7,0,0-24.38-43.34-26.98-48.47-4.74-9.38-8.88-18.26-6.94-26.36,2.96-12.34,22.23-20.53,22.23-20.53,8.37-7.44,15.47,10,15.47,10,14.07-1.39,13.89,10.04,13.89,10.04,3.72-2.79,23.28-5.39,22.83,19.85l-9.23-5.08-10.45,2.82s35.44,39.6,35.44,57.27c0,16.36-45.05,259.22-90.18,292.66h0s-6.14,3.57-9.2,3.77c-10.8,3.32-29.23,5.56-45.01-9.61-30.7-29.51-24.2-114.5,18.08-104.65Z"/>
                  <path d="M330.69,359.08c.51,0,.96-.36,1.06-.88,4.11-21.74,6.87-39.21,6.87-43.49,0-17.87-34.25-56.36-35.71-57.99-.4-.44-1.08-.48-1.52-.08-.44.4-.48,1.08-.08,1.52.35.39,35.16,39.5,35.16,56.55,0,3.34-2.14,18.25-6.84,43.09-.11.58.27,1.15.86,1.26.07.01.13.02.2.02Z"/>
                  <path d="M321.78,260.79c.59,0,1.07-.47,1.08-1.06.23-13.22-4.95-18.67-9.35-20.91-4.91-2.51-10.56-1.9-13.65-.66-.29-1.71-1.11-4.37-3.39-6.47-2.52-2.32-6.14-3.33-10.74-3.01-1.12-2.48-5.06-10.37-10.42-11.62-2.24-.52-4.4.14-6.44,1.95-.44.39-.48,1.08-.09,1.52.39.44,1.08.48,1.52.09,1.51-1.34,2.99-1.81,4.52-1.46,4.28.99,8.12,8.33,9.23,11.06.18.44.62.7,1.1.67,4.34-.44,7.65.37,9.83,2.37,2.88,2.63,2.87,6.55,2.87,6.59,0,.41.22.79.59.97.37.18.81.15,1.13-.1,1.49-1.12,7.53-2.75,12.94.01,5.52,2.82,8.34,9.38,8.17,18.96-.01.59.46,1.08,1.06,1.1h.02Z"/>
                  <path d="M287.26,248.03c.19,0,.39-.05.57-.16l11.45-7.12c.5-.31.66-.98.35-1.48-.31-.5-.98-.66-1.48-.35l-11.45,7.12c-.5.31-.66.98-.35,1.48.2.33.56.51.92.51Z"/>
                  <path d="M273.61,238.01c.19,0,.39-.05.57-.16l11.45-7.12c.5-.31.66-.98.35-1.48-.31-.5-.98-.66-1.48-.35l-11.45,7.12c-.5.31-.66.98-.35,1.48.2.33.56.51.92.51Z"/>
                  <path class="cls-8" d="M211.22,496.89c-15.2,17.62-12.38,115.14,7.93,121.73-34.34.82-48.53-22.51-50.54-43.07-2.02-20.56.48-94.99,42.62-78.66Z"/>
                </g>
              </g>
            </g>
            <g>
              <g>
                <path d="M526.9,618.61h-125.22c-3.64,0-6.59-2.95-6.59-6.59h0c0-3.64,2.95-6.59,6.59-6.59h125.22c3.64,0,6.59,2.95,6.59,6.59h0c0,3.64-2.95,6.59-6.59,6.59Z"/>
                <path class="cls-19" d="M822.86,618.61h-327.89c-3.64,0-6.59-2.95-6.59-6.59h0c0-3.64,2.95-6.59,6.59-6.59h327.89c3.64,0,6.59,2.95,6.59,6.59h0c0,3.64-2.95,6.59-6.59,6.59Z"/>
                <rect x="474.98" y="336.11" width="63.38" height="215.32" rx="26.57" ry="26.57"/>
                <rect class="cls-19" x="485.61" y="336.11" width="343.83" height="215.32" rx="26.57" ry="26.57"/>
                <rect class="cls-19" x="632.62" y="551.43" width="55.79" height="67.18"/>
                <path class="cls-20" d="M687.48,443.77c0,16.54-13.41,29.95-29.95,29.95-16.54,0-29.95-13.41-29.95-29.95,0-16.54,13.41-29.95,29.95-29.95,16.54,0,29.95,13.41,29.95,29.95Z"/>
                <path d="M548.66,552.51h254.22c15.24,0,27.64-12.4,27.64-27.65v-162.19c0-15.24-12.4-27.64-27.64-27.64-.6,0-1.08.48-1.08,1.08,0,.6.48,1.08,1.08,1.08,14.06,0,25.49,11.44,25.49,25.49v162.19c0,14.06-11.44,25.49-25.49,25.49h-254.22c-.6,0-1.08.48-1.08,1.08,0,.6.48,1.08,1.08,1.08Z"/>
                <path d="M822.86,619.69c4.23,0,7.67-3.44,7.67-7.66s-3.44-7.67-7.67-7.67h-211.41c-.6,0-1.08.48-1.08,1.08,0,.6.48,1.08,1.08,1.08h211.41c3.04,0,5.51,2.47,5.51,5.51,0,3.04-2.47,5.51-5.51,5.51-.6,0-1.08.48-1.08,1.08s.48,1.08,1.08,1.08Z"/>
                <g>
                  <path class="cls-19" d="M313.35,619.28h77.45c0-14.33-17.34-25.94-38.72-25.94-21.39,0-38.73,11.62-38.73,25.94Z"/>
                  <path d="M379.75,621.21s.06,0,.09,0c.59-.05,1.03-.57.98-1.17-.9-10.33-7.6-19.26-16.29-21.72-.57-.17-1.17.17-1.33.74-.16.57.17,1.17.74,1.33,7.85,2.22,13.91,10.38,14.73,19.84.05.56.52.98,1.07.98Z"/>
                </g>
              </g>
              <g>
                <path class="cls-24" d="M136.99,501.6c16.79,5.07,32.49,2.27,35.06-6.26,2.57-8.52-8.96-19.54-25.75-24.61-16.79-5.07-32.49-2.27-35.06,6.26-2.57,8.52,8.96,19.54,25.75,24.61Z"/>
                <path d="M83.83,529.56c.59,0,1.08-.48,1.08-1.08v-15.67c.02-12.5,4.23-22.23,11.86-27.39,9.84-6.67,24.8-6.08,44.47,1.75.55.22,1.18-.05,1.4-.6.22-.55-.05-1.18-.6-1.4-20.38-8.1-36.01-8.62-46.48-1.53-8.24,5.58-12.79,15.94-12.81,29.18v15.68c0,.6.48,1.08,1.08,1.08Z"/>
                <path class="cls-24" d="M35.11,445.71c12.69,12.1,27.96,16.69,34.11,10.25,6.14-6.44.83-21.48-11.86-33.58-12.69-12.1-27.96-16.69-34.11-10.25-6.14,6.44-.83,21.48,11.86,33.58Z"/>
                <path d="M83.72,510.99h0c.6,0,1.08-.48,1.07-1.08-.08-34.66-5.38-45.4-37.82-76.64-.43-.41-1.11-.4-1.52.03-.41.43-.4,1.11.03,1.52,32.22,31.03,37.08,40.85,37.16,75.09,0,.59.48,1.07,1.08,1.07Z"/>
                <path class="cls-17" d="M36.15,519.71c.13.19.27.38.4.57,7.3,10.12,7.3,23.62,0,33.74-4.45,6.16-6.98,13.27-6.98,20.82,0,23.67,24.85,42.85,55.5,42.85,30.65,0,55.5-19.19,55.5-42.85,0-7.56-2.53-14.66-6.98-20.82-7.3-10.12-7.3-23.62,0-33.74.14-.19.27-.38.4-.57,5.94-8.54-.57-20.25-10.97-20.25H47.13c-10.4,0-16.91,11.71-10.97,20.25Z"/>
                <path class="cls-24" d="M101.41,415.48c-12.19,12.61-16.89,27.84-10.49,34.03,6.4,6.19,21.47.98,33.66-11.62,12.19-12.61,16.89-27.84,10.49-34.03-6.4-6.19-21.47-.98-33.66,11.62Z"/>
                <path class="cls-24" d="M119.96,546.28c7.68,15.92,20.46,25.66,28.54,21.76,8.08-3.9,8.4-19.96.72-35.88-7.68-15.92-20.46-25.66-28.54-21.76-8.08,3.9-8.4,19.96-.72,35.88Z"/>
                <path class="cls-24" d="M41.39,574.46c3.94,17.23,14.23,29.58,22.98,27.57,8.74-2,12.64-17.59,8.69-34.82-3.94-17.23-14.23-29.58-22.97-27.57-8.75,2-12.64,17.59-8.69,34.82Z"/>
                <path class="cls-24" d="M49.61,386.32c5.72,16.73,17.24,27.93,25.73,25.03,8.49-2.9,10.73-18.81,5.01-35.54-5.72-16.72-17.24-27.93-25.73-25.03-8.49,2.9-10.73,18.81-5.01,35.54Z"/>
                <path class="cls-24" d="M36.85,519.31c14.52-9.84,22.23-23.8,17.24-31.16-5-7.37-20.81-5.36-35.33,4.48-14.52,9.84-22.23,23.8-17.24,31.16,5,7.37,20.81,5.36,35.33-4.48Z"/>
                <path d="M27.81,507.04c.23,0,.46-.07.65-.22,21.43-16.38,34.24-22.66,42.82-21.03,4.25.81,7.73,3.67,10.94,9.01.31.51.97.67,1.48.37.51-.31.67-.97.37-1.48-3.55-5.9-7.49-9.09-12.38-10.02-9.25-1.76-22.56,4.65-44.53,21.44-.47.36-.56,1.04-.2,1.51.21.28.53.42.86.42Z"/>
                <path d="M57.23,571.91c.18,0,.35-.04.52-.13.52-.29.71-.94.42-1.46-17.9-32.46-4.99-61.71,9.37-71.26,6.24-4.15,12.02-4.03,15.45.31.37.47,1.04.55,1.51.18.47-.37.54-1.05.18-1.51-4.14-5.23-11.17-5.53-18.33-.77-15.02,9.99-28.61,40.44-10.06,74.09.2.36.56.56.94.56Z"/>
                <path d="M133.26,535.91c.14,0,.28-.03.42-.09.55-.23.8-.87.57-1.41-8.65-20.37-20.38-33.89-33.03-38.07-5.72-1.89-11.41-1.69-16.25.55.83-21.04,5.16-47.5,28.76-69.41.44-.4.46-1.08.06-1.52-.4-.44-1.08-.46-1.52-.06-24.87,23.1-28.84,51.02-29.51,72.77-.01.39.19.76.53.96.34.2.76.2,1.09,0,4.7-2.76,10.29-3.19,16.17-1.24,6.98,2.31,20.38,10.16,31.72,36.87.17.41.57.66.99.66Z"/>
                <path d="M83.83,499.77c.59,0,1.08-.48,1.08-1.08v-.28c0-56.07-6.75-97.94-19.01-117.91-.31-.51-.97-.66-1.48-.35-.51.31-.67.97-.35,1.48,12.06,19.64,18.7,61.11,18.7,116.79v.28c0,.6.48,1.08,1.08,1.08Z"/>
              </g>
              <g>
                <path class="cls-10" d="M191.36,601.51c-8.85,0-27.54-5.28-28.64-16.49h-59.18s7.8,16.49,19.25,16.49,68.57,0,68.57,0"/>
                <rect class="cls-10" x="161.97" y="601.51" width="29.4" height="16.49" transform="translate(353.33 1219.51) rotate(-180)"/>
                <rect class="cls-10" x="103.18" y="601.51" width="58.79" height="16.49" transform="translate(265.14 1219.51) rotate(-180)"/>
                <path d="M118.81,609.02h22.41c.59,0,1.08-.48,1.08-1.08,0-.6-.48-1.08-1.08-1.08h-22.41c-.6,0-1.08.48-1.08,1.08,0,.6.48,1.08,1.08,1.08Z"/>
                <path d="M124.91,613.34h37.06c.6,0,1.08-.48,1.08-1.08,0-.6-.48-1.08-1.08-1.08h-37.06c-.6,0-1.08.48-1.08,1.08,0,.6.48,1.08,1.08,1.08Z"/>
                <path d="M167.53,613.34h10.54c.6,0,1.08-.48,1.08-1.08,0-.6-.48-1.08-1.08-1.08h-10.54c-.6,0-1.08.48-1.08,1.08,0,.6.48,1.08,1.08,1.08Z"/>
                <path d="M180.81,609.02h10.54c.6,0,1.08-.48,1.08-1.08,0-.6-.48-1.08-1.08-1.08h-10.54c-.6,0-1.08.48-1.08,1.08s.48,1.08,1.08,1.08Z"/>
                <path d="M103.18,602.59h88.19c.59,0,1.08-.48,1.08-1.08,0-.6-.48-1.08-1.08-1.08h-88.19c-.6,0-1.08.48-1.08,1.08,0,.59.48,1.08,1.08,1.08Z"/>
                <path d="M161.97,619.08c.6,0,1.08-.48,1.08-1.08v-16.49c0-.6-.48-1.08-1.08-1.08s-1.08.48-1.08,1.08v16.49c0,.6.48,1.08,1.08,1.08Z"/>
              </g>
            </g>
            <g id="simbolo_star-2" data-name="simbolo star">
              <path class="cls-25" d="M658.56,449.86c-5.21,2.05-8.47,3.48-9.44,6.91l-.15.55c-.72,2.51-.28,5.22,1.28,7.33l.03.04c3.2-9.9,14.68-7.7,19.2-13.66,1.67-2.2,2.72-5,2.82-10.5-3.37,5.25-9.02,7.49-13.72,9.34h-.01Z"/>
              <path class="cls-15" d="M670.67,420.34c-2.39,14.7-38.8,7.02-24.94,35.46,4-13.96,31.74-4.44,24.94-35.46Z"/>
              <path class="cls-7" d="M650.42,444.2l.21,1.28c.03.15-.14.28-.28.2l-1.15-.6s-.13-.03-.18,0l-1.14.6c-.14.07-.31-.04-.28-.2l.22-1.28s0-.13-.06-.17l-.93-.9c-.11-.11-.06-.31.11-.32l1.28-.18s.11-.04.14-.1l.58-1.17c.07-.14.27-.14.34,0l.58,1.17s.08.1.14.1l1.28.18c.15.03.22.21.11.32l-.93.9s-.07.11-.06.17h.01Z"/>
            </g>
          </g>
        </g>
        <g>
          <g id="logo_msgas-organizado_PRINCIPAL">
            <path class="cls-25" d="M754.66,751.53c-18.29,7.19-29.68,12.22-33.13,24.23l-.55,1.92c-2.52,8.8-.97,18.35,4.48,25.71l.11.17c11.21-34.73,51.46-27.02,67.35-47.91,5.86-7.72,9.56-17.53,9.89-36.85-11.82,18.44-31.63,26.26-48.14,32.75v-.02Z"/>
            <path class="cls-15" d="M797.12,647.96c-8.37,51.58-136.11,24.61-87.48,124.39,14.04-48.98,111.31-15.54,87.48-124.39Z"/>
            <path class="cls-7" d="M726.08,731.64l.76,4.48c.09.55-.47.97-.97.7l-4.02-2.11c-.19-.09-.44-.09-.63,0l-4.02,2.11c-.49.27-1.06-.15-.97-.7l.78-4.46c.04-.21-.04-.44-.19-.59l-3.24-3.17c-.4-.38-.17-1.06.38-1.14l4.5-.66c.21-.04.4-.17.51-.36l2.01-4.06c.25-.49.95-.49,1.2,0l2.01,4.06c.09.19.28.34.49.36l4.48.66c.55.08.76.76.38,1.14l-3.24,3.17c-.15.15-.23.38-.19.59l-.02-.02Z"/>
            <path class="cls-14" d="M272.08,809.84v111.98h-47.04v-110.72c0-12.92-12.81-20.93-24.67-20.93-7.67,0-14.46,3.19-20.23,9.49,2.68,8.52,3.98,16.68,3.98,24.86l-.65,97.61h-41.1v-97.61c0-14.23-6.83-26.15-18.25-31.86-5.92-2.66-11.06-4.04-15.16-4.04-15.24,0-24.67,6.02-24.67,35.92v97.61h-41.14v-97.61c0-48.43,24.59-77.35,65.79-77.35,17.67,0,35.64,7.13,49.77,19.66,12.58-12.69,29.36-19.66,47.57-19.66,14.61,0,30.87,6.43,43.53,17.19,14.36,12.22,22.26,28.37,22.26,45.49v-.02ZM404.64,824.23c-8.27-4.14-22.03-8.63-40.84-13.32-18.6-4.91-25.69-7.31-26.87-7.89l-.13-.08-.15-.06c-3.51-1.33-7.69-3.55-7.69-6.47,0-.89,0-1.99.21-2.66.55-2.13,2.24-8.58,18.08-8.62l48.39,4.25,13.36-36.02-3.74-.59c-21.54-3.34-40.89-5.03-57.57-5.03-14.08,0-24.65,1.39-32.2,4.23-9.58,3.3-17.04,9.54-22.85,19.09-5.47,9.01-8.25,19.2-8.25,30.3,0,9.36,2.54,17.15,7.57,23.19,5.1,6.13,11.78,11.03,19.85,14.57,13.49,5.92,22.52,8.79,42.01,13.28,14.84,3.53,20.36,5.37,21.27,5.88l.21.11c5.96,2.98,6.72,6.26,6.72,8.79v1.73l-.19.38-.08.4c-.7,3.53-3.07,6.26-7,8.1-3.91,1.8-10.36,2.85-17.74,2.85h-2.96l-43.89-4.59-16.64,38.08,53.34,5.45h5.14c19.6,0,35.75-3.61,47.99-10.68,13.51-7.59,22.2-19.28,25.86-34.92.83-4.74,1.61-9.68,1.61-13.64,0-15.54-7.67-27.67-22.92-36.15l.09.02ZM782.87,778.04c-4.78,2.18-9.68,3.91-14.35,5.52-11.54,4.02-20.06,7.32-25.64,13.7,11.21,8.44,18.52,21.82,18.52,36.91,0,25.48-20.72,46.21-46.21,46.21s-46.21-21.16-46.21-46.21c0-21.27,15.26-39.72,35.2-44.82l-5.65-11.59c-4.73-9.72-8.08-18.71-10.08-27.04-35.28,11.33-60.89,44.44-60.89,83.46,0,47.5,40.13,87.63,87.63,87.63,16.53,0,32.05-4.46,46.21-13.25v12.3h41.1l.32-89.19c0-15.33-4.04-29.74-12.01-42.81-2.37-3.83-5.05-7.44-7.95-10.82ZM615.2,833.55h0v59.28c0,7.51-.93,14.8-2.71,21.77-9.64,37.99-43.91,66.17-84.61,66.17-13.72,0-26.72-3.11-38.29-8.67l16.62-38.07c6.47,3.38,13.85,5.29,21.67,5.29,18.84,0,35.05-11.58,42.11-28.07-13.04,7.29-26.87,10.85-42.13,10.85-48.5,0-87.95-39.17-87.95-87.33s39.17-87.95,87.33-87.95,87.93,38.88,87.95,86.7l.02.02ZM573.78,834.17c0-25.31-20.87-45.88-46.51-45.88s-45.88,20.87-45.88,46.51,20.87,45.88,46.51,45.88,45.9-20.87,45.9-46.51h-.02Z"/>
          </g>
          <g>
            <text class="cls-18" transform="translate(861.37 919.6)"><tspan x="0" y="0">Comunic</tspan><tspan class="cls-30" x="733.6" y="0">a</tspan></text>
            <path class="cls-14" d="M935.4,824.23c-8.27-4.14-22.03-8.63-40.84-13.32-18.6-4.91-25.69-7.31-26.87-7.89l-.13-.08-.15-.06c-3.51-1.33-7.69-3.55-7.69-6.47,0-.89,0-1.99.21-2.66.55-2.13,2.24-8.58,18.08-8.62l48.39,4.25,13.36-36.02-3.74-.59c-21.54-3.34-40.89-5.03-57.57-5.03-14.08,0-24.65,1.39-32.2,4.23-9.58,3.3-17.04,9.54-22.85,19.09-5.47,9.01-8.25,19.2-8.25,30.3,0,9.36,2.54,17.15,7.57,23.19,5.1,6.13,11.78,11.03,19.85,14.57,13.49,5.92,22.52,8.79,42.01,13.28,14.84,3.53,20.36,5.37,21.27,5.88l.21.11c5.96,2.98,6.72,6.26,6.72,8.79v1.73l-.19.38-.08.4c-.7,3.53-3.07,6.26-7,8.1-3.91,1.8-10.36,2.85-17.74,2.85h-2.96l-43.89-4.59-16.64,38.08,53.34,5.45h5.14c19.6,0,35.75-3.61,47.99-10.68,13.51-7.59,22.2-19.28,25.86-34.92.83-4.74,1.61-9.68,1.61-13.64,0-15.54-7.67-27.67-22.92-36.15l.09.02ZM936.03,752.78c-21.54-3.34-40.89-5.03-57.57-5.03-14.08,0-24.65,1.39-32.2,4.23"/>
            <g class="cls-28">
              <text class="cls-18" transform="translate(861.37 919.6)"><tspan x="0" y="0">Comunic</tspan><tspan class="cls-30" x="733.6" y="0">a</tspan></text>
            </g>
          </g>
        </g>
      </g>
    </g>
  </g>
</svg>